<?xml version="1.0" encoding="utf-8" standalone="no"?>
<!DOCTYPE svg PUBLIC "-//W3C//DTD SVG 1.1//EN"
  "http://www.w3.org/Graphics/SVG/1.1/DTD/svg11.dtd">
<!-- Created with matplotlib (https://matplotlib.org/) -->
<svg height="345.6pt" version="1.1" viewBox="0 0 460.8 345.6" width="460.8pt" xmlns="http://www.w3.org/2000/svg" xmlns:xlink="http://www.w3.org/1999/xlink">
 <defs>
  <style type="text/css">
*{stroke-linecap:butt;stroke-linejoin:round;}
  </style>
 </defs>
 <g id="figure_1">
  <g id="patch_1">
   <path d="M 0 345.6 
L 460.8 345.6 
L 460.8 0 
L 0 0 
z
" style="fill:#ffffff;"/>
  </g>
  <g id="axes_1">
   <g id="patch_2">
    <path d="M 56.09 303.64 
L 434.115 303.64 
L 434.115 26.88 
L 56.09 26.88 
z
" style="fill:#ffffff;"/>
   </g>
   <g id="matplotlib.axis_1">
    <g id="xtick_1">
     <g id="line2d_1">
      <defs>
       <path d="M 0 0 
L 0 3.5 
" id="m8686b8f77b" style="stroke:#000000;stroke-width:0.8;"/>
      </defs>
      <g>
       <use style="stroke:#000000;stroke-width:0.8;" x="56.089844" xlink:href="#m8686b8f77b" y="303.64"/>
      </g>
     </g>
     <g id="text_1">
      <!-- 23:59:59 -->
      <defs>
       <path d="M 19.1875 8.296875 
L 53.609375 8.296875 
L 53.609375 0 
L 7.328125 0 
L 7.328125 8.296875 
Q 12.9375 14.109375 22.625 23.890625 
Q 32.328125 33.6875 34.8125 36.53125 
Q 39.546875 41.84375 41.421875 45.53125 
Q 43.3125 49.21875 43.3125 52.78125 
Q 43.3125 58.59375 39.234375 62.25 
Q 35.15625 65.921875 28.609375 65.921875 
Q 23.96875 65.921875 18.8125 64.3125 
Q 13.671875 62.703125 7.8125 59.421875 
L 7.8125 69.390625 
Q 13.765625 71.78125 18.9375 73 
Q 24.125 74.21875 28.421875 74.21875 
Q 39.75 74.21875 46.484375 68.546875 
Q 53.21875 62.890625 53.21875 53.421875 
Q 53.21875 48.921875 51.53125 44.890625 
Q 49.859375 40.875 45.40625 35.40625 
Q 44.1875 33.984375 37.640625 27.21875 
Q 31.109375 20.453125 19.1875 8.296875 
z
" id="DejaVuSans-50"/>
       <path d="M 40.578125 39.3125 
Q 47.65625 37.796875 51.625 33 
Q 55.609375 28.21875 55.609375 21.1875 
Q 55.609375 10.40625 48.1875 4.484375 
Q 40.765625 -1.421875 27.09375 -1.421875 
Q 22.515625 -1.421875 17.65625 -0.515625 
Q 12.796875 0.390625 7.625 2.203125 
L 7.625 11.71875 
Q 11.71875 9.328125 16.59375 8.109375 
Q 21.484375 6.890625 26.8125 6.890625 
Q 36.078125 6.890625 40.9375 10.546875 
Q 45.796875 14.203125 45.796875 21.1875 
Q 45.796875 27.640625 41.28125 31.265625 
Q 36.765625 34.90625 28.71875 34.90625 
L 20.21875 34.90625 
L 20.21875 43.015625 
L 29.109375 43.015625 
Q 36.375 43.015625 40.234375 45.921875 
Q 44.09375 48.828125 44.09375 54.296875 
Q 44.09375 59.90625 40.109375 62.90625 
Q 36.140625 65.921875 28.71875 65.921875 
Q 24.65625 65.921875 20.015625 65.03125 
Q 15.375 64.15625 9.8125 62.3125 
L 9.8125 71.09375 
Q 15.4375 72.65625 20.34375 73.4375 
Q 25.25 74.21875 29.59375 74.21875 
Q 40.828125 74.21875 47.359375 69.109375 
Q 53.90625 64.015625 53.90625 55.328125 
Q 53.90625 49.265625 50.4375 45.09375 
Q 46.96875 40.921875 40.578125 39.3125 
z
" id="DejaVuSans-51"/>
       <path d="M 11.71875 12.40625 
L 22.015625 12.40625 
L 22.015625 0 
L 11.71875 0 
z
M 11.71875 51.703125 
L 22.015625 51.703125 
L 22.015625 39.3125 
L 11.71875 39.3125 
z
" id="DejaVuSans-58"/>
       <path d="M 10.796875 72.90625 
L 49.515625 72.90625 
L 49.515625 64.59375 
L 19.828125 64.59375 
L 19.828125 46.734375 
Q 21.96875 47.46875 24.109375 47.828125 
Q 26.265625 48.1875 28.421875 48.1875 
Q 40.625 48.1875 47.75 41.5 
Q 54.890625 34.8125 54.890625 23.390625 
Q 54.890625 11.625 47.5625 5.09375 
Q 40.234375 -1.421875 26.90625 -1.421875 
Q 22.3125 -1.421875 17.546875 -0.640625 
Q 12.796875 0.140625 7.71875 1.703125 
L 7.71875 11.625 
Q 12.109375 9.234375 16.796875 8.0625 
Q 21.484375 6.890625 26.703125 6.890625 
Q 35.15625 6.890625 40.078125 11.328125 
Q 45.015625 15.765625 45.015625 23.390625 
Q 45.015625 31 40.078125 35.4375 
Q 35.15625 39.890625 26.703125 39.890625 
Q 22.75 39.890625 18.8125 39.015625 
Q 14.890625 38.140625 10.796875 36.28125 
z
" id="DejaVuSans-53"/>
       <path d="M 10.984375 1.515625 
L 10.984375 10.5 
Q 14.703125 8.734375 18.5 7.8125 
Q 22.3125 6.890625 25.984375 6.890625 
Q 35.75 6.890625 40.890625 13.453125 
Q 46.046875 20.015625 46.78125 33.40625 
Q 43.953125 29.203125 39.59375 26.953125 
Q 35.25 24.703125 29.984375 24.703125 
Q 19.046875 24.703125 12.671875 31.3125 
Q 6.296875 37.9375 6.296875 49.421875 
Q 6.296875 60.640625 12.9375 67.421875 
Q 19.578125 74.21875 30.609375 74.21875 
Q 43.265625 74.21875 49.921875 64.515625 
Q 56.59375 54.828125 56.59375 36.375 
Q 56.59375 19.140625 48.40625 8.859375 
Q 40.234375 -1.421875 26.421875 -1.421875 
Q 22.703125 -1.421875 18.890625 -0.6875 
Q 15.09375 0.046875 10.984375 1.515625 
z
M 30.609375 32.421875 
Q 37.25 32.421875 41.125 36.953125 
Q 45.015625 41.5 45.015625 49.421875 
Q 45.015625 57.28125 41.125 61.84375 
Q 37.25 66.40625 30.609375 66.40625 
Q 23.96875 66.40625 20.09375 61.84375 
Q 16.21875 57.28125 16.21875 49.421875 
Q 16.21875 41.5 20.09375 36.953125 
Q 23.96875 32.421875 30.609375 32.421875 
z
" id="DejaVuSans-57"/>
      </defs>
      <g transform="translate(33.633594 318.238437)scale(0.1 -0.1)">
       <use xlink:href="#DejaVuSans-50"/>
       <use x="63.623047" xlink:href="#DejaVuSans-51"/>
       <use x="127.246094" xlink:href="#DejaVuSans-58"/>
       <use x="160.9375" xlink:href="#DejaVuSans-53"/>
       <use x="224.560547" xlink:href="#DejaVuSans-57"/>
       <use x="288.183594" xlink:href="#DejaVuSans-58"/>
       <use x="321.875" xlink:href="#DejaVuSans-53"/>
       <use x="385.498047" xlink:href="#DejaVuSans-57"/>
      </g>
     </g>
    </g>
    <g id="xtick_2">
     <g id="line2d_2">
      <g>
       <use style="stroke:#000000;stroke-width:0.8;" x="174.725586" xlink:href="#m8686b8f77b" y="303.64"/>
      </g>
     </g>
     <g id="text_2">
      <!-- 00:00:00 -->
      <defs>
       <path d="M 31.78125 66.40625 
Q 24.171875 66.40625 20.328125 58.90625 
Q 16.5 51.421875 16.5 36.375 
Q 16.5 21.390625 20.328125 13.890625 
Q 24.171875 6.390625 31.78125 6.390625 
Q 39.453125 6.390625 43.28125 13.890625 
Q 47.125 21.390625 47.125 36.375 
Q 47.125 51.421875 43.28125 58.90625 
Q 39.453125 66.40625 31.78125 66.40625 
z
M 31.78125 74.21875 
Q 44.046875 74.21875 50.515625 64.515625 
Q 56.984375 54.828125 56.984375 36.375 
Q 56.984375 17.96875 50.515625 8.265625 
Q 44.046875 -1.421875 31.78125 -1.421875 
Q 19.53125 -1.421875 13.0625 8.265625 
Q 6.59375 17.96875 6.59375 36.375 
Q 6.59375 54.828125 13.0625 64.515625 
Q 19.53125 74.21875 31.78125 74.21875 
z
" id="DejaVuSans-48"/>
      </defs>
      <g transform="translate(152.269336 318.238437)scale(0.1 -0.1)">
       <use xlink:href="#DejaVuSans-48"/>
       <use x="63.623047" xlink:href="#DejaVuSans-48"/>
       <use x="127.246094" xlink:href="#DejaVuSans-58"/>
       <use x="160.9375" xlink:href="#DejaVuSans-48"/>
       <use x="224.560547" xlink:href="#DejaVuSans-48"/>
       <use x="288.183594" xlink:href="#DejaVuSans-58"/>
       <use x="321.875" xlink:href="#DejaVuSans-48"/>
       <use x="385.498047" xlink:href="#DejaVuSans-48"/>
      </g>
     </g>
    </g>
    <g id="xtick_3">
     <g id="line2d_3">
      <g>
       <use style="stroke:#000000;stroke-width:0.8;" x="293.363281" xlink:href="#m8686b8f77b" y="303.64"/>
      </g>
     </g>
     <g id="text_3">
      <!-- 00:00:01 -->
      <defs>
       <path d="M 12.40625 8.296875 
L 28.515625 8.296875 
L 28.515625 63.921875 
L 10.984375 60.40625 
L 10.984375 69.390625 
L 28.421875 72.90625 
L 38.28125 72.90625 
L 38.28125 8.296875 
L 54.390625 8.296875 
L 54.390625 0 
L 12.40625 0 
z
" id="DejaVuSans-49"/>
      </defs>
      <g transform="translate(270.907031 318.238437)scale(0.1 -0.1)">
       <use xlink:href="#DejaVuSans-48"/>
       <use x="63.623047" xlink:href="#DejaVuSans-48"/>
       <use x="127.246094" xlink:href="#DejaVuSans-58"/>
       <use x="160.9375" xlink:href="#DejaVuSans-48"/>
       <use x="224.560547" xlink:href="#DejaVuSans-48"/>
       <use x="288.183594" xlink:href="#DejaVuSans-58"/>
       <use x="321.875" xlink:href="#DejaVuSans-48"/>
       <use x="385.498047" xlink:href="#DejaVuSans-49"/>
      </g>
     </g>
    </g>
    <g id="xtick_4">
     <g id="line2d_4">
      <g>
       <use style="stroke:#000000;stroke-width:0.8;" x="412.000977" xlink:href="#m8686b8f77b" y="303.64"/>
      </g>
     </g>
     <g id="text_4">
      <!-- 00:00:02 -->
      <g transform="translate(389.544727 318.238437)scale(0.1 -0.1)">
       <use xlink:href="#DejaVuSans-48"/>
       <use x="63.623047" xlink:href="#DejaVuSans-48"/>
       <use x="127.246094" xlink:href="#DejaVuSans-58"/>
       <use x="160.9375" xlink:href="#DejaVuSans-48"/>
       <use x="224.560547" xlink:href="#DejaVuSans-48"/>
       <use x="288.183594" xlink:href="#DejaVuSans-58"/>
       <use x="321.875" xlink:href="#DejaVuSans-48"/>
       <use x="385.498047" xlink:href="#DejaVuSans-50"/>
      </g>
     </g>
    </g>
    <g id="text_5">
     <!-- time -->
     <defs>
      <path d="M 18.3125 70.21875 
L 18.3125 54.6875 
L 36.8125 54.6875 
L 36.8125 47.703125 
L 18.3125 47.703125 
L 18.3125 18.015625 
Q 18.3125 11.328125 20.140625 9.421875 
Q 21.96875 7.515625 27.59375 7.515625 
L 36.8125 7.515625 
L 36.8125 0 
L 27.59375 0 
Q 17.1875 0 13.234375 3.875 
Q 9.28125 7.765625 9.28125 18.015625 
L 9.28125 47.703125 
L 2.6875 47.703125 
L 2.6875 54.6875 
L 9.28125 54.6875 
L 9.28125 70.21875 
z
" id="DejaVuSans-116"/>
      <path d="M 9.421875 54.6875 
L 18.40625 54.6875 
L 18.40625 0 
L 9.421875 0 
z
M 9.421875 75.984375 
L 18.40625 75.984375 
L 18.40625 64.59375 
L 9.421875 64.59375 
z
" id="DejaVuSans-105"/>
      <path d="M 52 44.1875 
Q 55.375 50.25 60.0625 53.125 
Q 64.75 56 71.09375 56 
Q 79.640625 56 84.28125 50.015625 
Q 88.921875 44.046875 88.921875 33.015625 
L 88.921875 0 
L 79.890625 0 
L 79.890625 32.71875 
Q 79.890625 40.578125 77.09375 44.375 
Q 74.3125 48.1875 68.609375 48.1875 
Q 61.625 48.1875 57.5625 43.546875 
Q 53.515625 38.921875 53.515625 30.90625 
L 53.515625 0 
L 44.484375 0 
L 44.484375 32.71875 
Q 44.484375 40.625 41.703125 44.40625 
Q 38.921875 48.1875 33.109375 48.1875 
Q 26.21875 48.1875 22.15625 43.53125 
Q 18.109375 38.875 18.109375 30.90625 
L 18.109375 0 
L 9.078125 0 
L 9.078125 54.6875 
L 18.109375 54.6875 
L 18.109375 46.1875 
Q 21.1875 51.21875 25.484375 53.609375 
Q 29.78125 56 35.6875 56 
Q 41.65625 56 45.828125 52.96875 
Q 50 49.953125 52 44.1875 
z
" id="DejaVuSans-109"/>
      <path d="M 56.203125 29.59375 
L 56.203125 25.203125 
L 14.890625 25.203125 
Q 15.484375 15.921875 20.484375 11.0625 
Q 25.484375 6.203125 34.421875 6.203125 
Q 39.59375 6.203125 44.453125 7.46875 
Q 49.3125 8.734375 54.109375 11.28125 
L 54.109375 2.78125 
Q 49.265625 0.734375 44.1875 -0.34375 
Q 39.109375 -1.421875 33.890625 -1.421875 
Q 20.796875 -1.421875 13.15625 6.1875 
Q 5.515625 13.8125 5.515625 26.8125 
Q 5.515625 40.234375 12.765625 48.109375 
Q 20.015625 56 32.328125 56 
Q 43.359375 56 49.78125 48.890625 
Q 56.203125 41.796875 56.203125 29.59375 
z
M 47.21875 32.234375 
Q 47.125 39.59375 43.09375 43.984375 
Q 39.0625 48.390625 32.421875 48.390625 
Q 24.90625 48.390625 20.390625 44.140625 
Q 15.875 39.890625 15.1875 32.171875 
z
" id="DejaVuSans-101"/>
     </defs>
     <g transform="translate(233.806406 331.916562)scale(0.1 -0.1)">
      <use xlink:href="#DejaVuSans-116"/>
      <use x="39.208984" xlink:href="#DejaVuSans-105"/>
      <use x="66.992188" xlink:href="#DejaVuSans-109"/>
      <use x="164.404297" xlink:href="#DejaVuSans-101"/>
     </g>
    </g>
   </g>
   <g id="matplotlib.axis_2">
    <g id="ytick_1">
     <g id="line2d_5">
      <defs>
       <path d="M 0 0 
L -3.5 0 
" id="mc5f5d0e356" style="stroke:#000000;stroke-width:0.8;"/>
      </defs>
      <g>
       <use style="stroke:#000000;stroke-width:0.8;" x="56.09" xlink:href="#mc5f5d0e356" y="295.926351"/>
      </g>
     </g>
     <g id="text_6">
      <!-- −2.5 -->
      <defs>
       <path d="M 10.59375 35.5 
L 73.1875 35.5 
L 73.1875 27.203125 
L 10.59375 27.203125 
z
" id="DejaVuSans-8722"/>
       <path d="M 10.6875 12.40625 
L 21 12.40625 
L 21 0 
L 10.6875 0 
z
" id="DejaVuSans-46"/>
      </defs>
      <g transform="translate(24.807188 299.72557)scale(0.1 -0.1)">
       <use xlink:href="#DejaVuSans-8722"/>
       <use x="83.789062" xlink:href="#DejaVuSans-50"/>
       <use x="147.412109" xlink:href="#DejaVuSans-46"/>
       <use x="179.199219" xlink:href="#DejaVuSans-53"/>
      </g>
     </g>
    </g>
    <g id="ytick_2">
     <g id="line2d_6">
      <g>
       <use style="stroke:#000000;stroke-width:0.8;" x="56.09" xlink:href="#mc5f5d0e356" y="263.809352"/>
      </g>
     </g>
     <g id="text_7">
      <!-- −2.0 -->
      <g transform="translate(24.807188 267.608571)scale(0.1 -0.1)">
       <use xlink:href="#DejaVuSans-8722"/>
       <use x="83.789062" xlink:href="#DejaVuSans-50"/>
       <use x="147.412109" xlink:href="#DejaVuSans-46"/>
       <use x="179.199219" xlink:href="#DejaVuSans-48"/>
      </g>
     </g>
    </g>
    <g id="ytick_3">
     <g id="line2d_7">
      <g>
       <use style="stroke:#000000;stroke-width:0.8;" x="56.09" xlink:href="#mc5f5d0e356" y="231.692353"/>
      </g>
     </g>
     <g id="text_8">
      <!-- −1.5 -->
      <g transform="translate(24.807188 235.491571)scale(0.1 -0.1)">
       <use xlink:href="#DejaVuSans-8722"/>
       <use x="83.789062" xlink:href="#DejaVuSans-49"/>
       <use x="147.412109" xlink:href="#DejaVuSans-46"/>
       <use x="179.199219" xlink:href="#DejaVuSans-53"/>
      </g>
     </g>
    </g>
    <g id="ytick_4">
     <g id="line2d_8">
      <g>
       <use style="stroke:#000000;stroke-width:0.8;" x="56.09" xlink:href="#mc5f5d0e356" y="199.575353"/>
      </g>
     </g>
     <g id="text_9">
      <!-- −1.0 -->
      <g transform="translate(24.807188 203.374572)scale(0.1 -0.1)">
       <use xlink:href="#DejaVuSans-8722"/>
       <use x="83.789062" xlink:href="#DejaVuSans-49"/>
       <use x="147.412109" xlink:href="#DejaVuSans-46"/>
       <use x="179.199219" xlink:href="#DejaVuSans-48"/>
      </g>
     </g>
    </g>
    <g id="ytick_5">
     <g id="line2d_9">
      <g>
       <use style="stroke:#000000;stroke-width:0.8;" x="56.09" xlink:href="#mc5f5d0e356" y="167.458354"/>
      </g>
     </g>
     <g id="text_10">
      <!-- −0.5 -->
      <g transform="translate(24.807188 171.257573)scale(0.1 -0.1)">
       <use xlink:href="#DejaVuSans-8722"/>
       <use x="83.789062" xlink:href="#DejaVuSans-48"/>
       <use x="147.412109" xlink:href="#DejaVuSans-46"/>
       <use x="179.199219" xlink:href="#DejaVuSans-53"/>
      </g>
     </g>
    </g>
    <g id="ytick_6">
     <g id="line2d_10">
      <g>
       <use style="stroke:#000000;stroke-width:0.8;" x="56.09" xlink:href="#mc5f5d0e356" y="135.341355"/>
      </g>
     </g>
     <g id="text_11">
      <!-- 0.0 -->
      <g transform="translate(33.186875 139.140574)scale(0.1 -0.1)">
       <use xlink:href="#DejaVuSans-48"/>
       <use x="63.623047" xlink:href="#DejaVuSans-46"/>
       <use x="95.410156" xlink:href="#DejaVuSans-48"/>
      </g>
     </g>
    </g>
    <g id="ytick_7">
     <g id="line2d_11">
      <g>
       <use style="stroke:#000000;stroke-width:0.8;" x="56.09" xlink:href="#mc5f5d0e356" y="103.224356"/>
      </g>
     </g>
     <g id="text_12">
      <!-- 0.5 -->
      <g transform="translate(33.186875 107.023575)scale(0.1 -0.1)">
       <use xlink:href="#DejaVuSans-48"/>
       <use x="63.623047" xlink:href="#DejaVuSans-46"/>
       <use x="95.410156" xlink:href="#DejaVuSans-53"/>
      </g>
     </g>
    </g>
    <g id="ytick_8">
     <g id="line2d_12">
      <g>
       <use style="stroke:#000000;stroke-width:0.8;" x="56.09" xlink:href="#mc5f5d0e356" y="71.107357"/>
      </g>
     </g>
     <g id="text_13">
      <!-- 1.0 -->
      <g transform="translate(33.186875 74.906575)scale(0.1 -0.1)">
       <use xlink:href="#DejaVuSans-49"/>
       <use x="63.623047" xlink:href="#DejaVuSans-46"/>
       <use x="95.410156" xlink:href="#DejaVuSans-48"/>
      </g>
     </g>
    </g>
    <g id="ytick_9">
     <g id="line2d_13">
      <g>
       <use style="stroke:#000000;stroke-width:0.8;" x="56.09" xlink:href="#mc5f5d0e356" y="38.990358"/>
      </g>
     </g>
     <g id="text_14">
      <!-- 1.5 -->
      <g transform="translate(33.186875 42.789576)scale(0.1 -0.1)">
       <use xlink:href="#DejaVuSans-49"/>
       <use x="63.623047" xlink:href="#DejaVuSans-46"/>
       <use x="95.410156" xlink:href="#DejaVuSans-53"/>
      </g>
     </g>
    </g>
    <g id="text_15">
     <!-- signal -->
     <defs>
      <path d="M 44.28125 53.078125 
L 44.28125 44.578125 
Q 40.484375 46.53125 36.375 47.5 
Q 32.28125 48.484375 27.875 48.484375 
Q 21.1875 48.484375 17.84375 46.4375 
Q 14.5 44.390625 14.5 40.28125 
Q 14.5 37.15625 16.890625 35.375 
Q 19.28125 33.59375 26.515625 31.984375 
L 29.59375 31.296875 
Q 39.15625 29.25 43.1875 25.515625 
Q 47.21875 21.78125 47.21875 15.09375 
Q 47.21875 7.46875 41.1875 3.015625 
Q 35.15625 -1.421875 24.609375 -1.421875 
Q 20.21875 -1.421875 15.453125 -0.5625 
Q 10.6875 0.296875 5.421875 2 
L 5.421875 11.28125 
Q 10.40625 8.6875 15.234375 7.390625 
Q 20.0625 6.109375 24.8125 6.109375 
Q 31.15625 6.109375 34.5625 8.28125 
Q 37.984375 10.453125 37.984375 14.40625 
Q 37.984375 18.0625 35.515625 20.015625 
Q 33.0625 21.96875 24.703125 23.78125 
L 21.578125 24.515625 
Q 13.234375 26.265625 9.515625 29.90625 
Q 5.8125 33.546875 5.8125 39.890625 
Q 5.8125 47.609375 11.28125 51.796875 
Q 16.75 56 26.8125 56 
Q 31.78125 56 36.171875 55.265625 
Q 40.578125 54.546875 44.28125 53.078125 
z
" id="DejaVuSans-115"/>
      <path d="M 45.40625 27.984375 
Q 45.40625 37.75 41.375 43.109375 
Q 37.359375 48.484375 30.078125 48.484375 
Q 22.859375 48.484375 18.828125 43.109375 
Q 14.796875 37.75 14.796875 27.984375 
Q 14.796875 18.265625 18.828125 12.890625 
Q 22.859375 7.515625 30.078125 7.515625 
Q 37.359375 7.515625 41.375 12.890625 
Q 45.40625 18.265625 45.40625 27.984375 
z
M 54.390625 6.78125 
Q 54.390625 -7.171875 48.1875 -13.984375 
Q 42 -20.796875 29.203125 -20.796875 
Q 24.46875 -20.796875 20.265625 -20.09375 
Q 16.0625 -19.390625 12.109375 -17.921875 
L 12.109375 -9.1875 
Q 16.0625 -11.328125 19.921875 -12.34375 
Q 23.78125 -13.375 27.78125 -13.375 
Q 36.625 -13.375 41.015625 -8.765625 
Q 45.40625 -4.15625 45.40625 5.171875 
L 45.40625 9.625 
Q 42.625 4.78125 38.28125 2.390625 
Q 33.9375 0 27.875 0 
Q 17.828125 0 11.671875 7.65625 
Q 5.515625 15.328125 5.515625 27.984375 
Q 5.515625 40.671875 11.671875 48.328125 
Q 17.828125 56 27.875 56 
Q 33.9375 56 38.28125 53.609375 
Q 42.625 51.21875 45.40625 46.390625 
L 45.40625 54.6875 
L 54.390625 54.6875 
z
" id="DejaVuSans-103"/>
      <path d="M 54.890625 33.015625 
L 54.890625 0 
L 45.90625 0 
L 45.90625 32.71875 
Q 45.90625 40.484375 42.875 44.328125 
Q 39.84375 48.1875 33.796875 48.1875 
Q 26.515625 48.1875 22.3125 43.546875 
Q 18.109375 38.921875 18.109375 30.90625 
L 18.109375 0 
L 9.078125 0 
L 9.078125 54.6875 
L 18.109375 54.6875 
L 18.109375 46.1875 
Q 21.34375 51.125 25.703125 53.5625 
Q 30.078125 56 35.796875 56 
Q 45.21875 56 50.046875 50.171875 
Q 54.890625 44.34375 54.890625 33.015625 
z
" id="DejaVuSans-110"/>
      <path d="M 34.28125 27.484375 
Q 23.390625 27.484375 19.1875 25 
Q 14.984375 22.515625 14.984375 16.5 
Q 14.984375 11.71875 18.140625 8.90625 
Q 21.296875 6.109375 26.703125 6.109375 
Q 34.1875 6.109375 38.703125 11.40625 
Q 43.21875 16.703125 43.21875 25.484375 
L 43.21875 27.484375 
z
M 52.203125 31.203125 
L 52.203125 0 
L 43.21875 0 
L 43.21875 8.296875 
Q 40.140625 3.328125 35.546875 0.953125 
Q 30.953125 -1.421875 24.3125 -1.421875 
Q 15.921875 -1.421875 10.953125 3.296875 
Q 6 8.015625 6 15.921875 
Q 6 25.140625 12.171875 29.828125 
Q 18.359375 34.515625 30.609375 34.515625 
L 43.21875 34.515625 
L 43.21875 35.40625 
Q 43.21875 41.609375 39.140625 45 
Q 35.0625 48.390625 27.6875 48.390625 
Q 23 48.390625 18.546875 47.265625 
Q 14.109375 46.140625 10.015625 43.890625 
L 10.015625 52.203125 
Q 14.9375 54.109375 19.578125 55.046875 
Q 24.21875 56 28.609375 56 
Q 40.484375 56 46.34375 49.84375 
Q 52.203125 43.703125 52.203125 31.203125 
z
" id="DejaVuSans-97"/>
      <path d="M 9.421875 75.984375 
L 18.40625 75.984375 
L 18.40625 0 
L 9.421875 0 
z
" id="DejaVuSans-108"/>
     </defs>
     <g transform="translate(18.7275 180.049844)rotate(-90)scale(0.1 -0.1)">
      <use xlink:href="#DejaVuSans-115"/>
      <use x="52.099609" xlink:href="#DejaVuSans-105"/>
      <use x="79.882812" xlink:href="#DejaVuSans-103"/>
      <use x="143.359375" xlink:href="#DejaVuSans-110"/>
      <use x="206.738281" xlink:href="#DejaVuSans-97"/>
      <use x="268.017578" xlink:href="#DejaVuSans-108"/>
     </g>
    </g>
   </g>
   <g id="line2d_14">
    <path clip-path="url(#p19d24b64cd)" d="M 73.273438 191.737687 
L 85.820312 188.455186 
L 97.424805 149.889 
L 109.129883 111.744 
L 120.46875 76.658162 
L 132.332031 186.93275 
L 144.080078 39.46 
L 156.901367 152.756708 
L 168.451172 136.713862 
L 180.441406 183.337749 
L 191.490234 291.06 
L 204.480469 78.555585 
L 216.180664 88.010925 
L 227.30957 153.412149 
L 239.135742 131.038273 
L 251.001953 102.200516 
L 263.008789 235.709923 
L 275.134766 169.324524 
L 286.887695 84.322559 
L 298.583984 215.90938 
L 310.828125 116.484955 
L 322.131836 222.480029 
L 334.176758 105.380692 
L 346.12793 137.63075 
L 358.098633 239.08773 
L 370.352539 60.525489 
L 381.521484 182.527109 
L 393.758789 187.387109 
L 405.714844 122.457994 
L 416.931641 61.559785 
" style="fill:none;stroke:#1f77b4;stroke-linecap:square;stroke-width:1.5;"/>
    <defs>
     <path d="M 0 4.75 
C 1.259715 4.75 2.468004 4.24951 3.358757 3.358757 
C 4.24951 2.468004 4.75 1.259715 4.75 0 
C 4.75 -1.259715 4.24951 -2.468004 3.358757 -3.358757 
C 2.468004 -4.24951 1.259715 -4.75 0 -4.75 
C -1.259715 -4.75 -2.468004 -4.24951 -3.358757 -3.358757 
C -4.24951 -2.468004 -4.75 -1.259715 -4.75 0 
C -4.75 1.259715 -4.24951 2.468004 -3.358757 3.358757 
C -2.468004 4.24951 -1.259715 4.75 0 4.75 
z
" id="m0d5bf06cfc" style="stroke:#1f77b4;"/>
    </defs>
    <g clip-path="url(#p19d24b64cd)">
     <use style="fill:#1f77b4;stroke:#1f77b4;" x="73.273438" xlink:href="#m0d5bf06cfc" y="191.737687"/>
     <use style="fill:#1f77b4;stroke:#1f77b4;" x="85.820312" xlink:href="#m0d5bf06cfc" y="188.455186"/>
     <use style="fill:#1f77b4;stroke:#1f77b4;" x="97.424805" xlink:href="#m0d5bf06cfc" y="149.889"/>
     <use style="fill:#1f77b4;stroke:#1f77b4;" x="109.129883" xlink:href="#m0d5bf06cfc" y="111.744"/>
     <use style="fill:#1f77b4;stroke:#1f77b4;" x="120.46875" xlink:href="#m0d5bf06cfc" y="76.658162"/>
     <use style="fill:#1f77b4;stroke:#1f77b4;" x="132.332031" xlink:href="#m0d5bf06cfc" y="186.93275"/>
     <use style="fill:#1f77b4;stroke:#1f77b4;" x="144.080078" xlink:href="#m0d5bf06cfc" y="39.46"/>
     <use style="fill:#1f77b4;stroke:#1f77b4;" x="156.901367" xlink:href="#m0d5bf06cfc" y="152.756708"/>
     <use style="fill:#1f77b4;stroke:#1f77b4;" x="168.451172" xlink:href="#m0d5bf06cfc" y="136.713862"/>
     <use style="fill:#1f77b4;stroke:#1f77b4;" x="180.441406" xlink:href="#m0d5bf06cfc" y="183.337749"/>
     <use style="fill:#1f77b4;stroke:#1f77b4;" x="191.490234" xlink:href="#m0d5bf06cfc" y="291.06"/>
     <use style="fill:#1f77b4;stroke:#1f77b4;" x="204.480469" xlink:href="#m0d5bf06cfc" y="78.555585"/>
     <use style="fill:#1f77b4;stroke:#1f77b4;" x="216.180664" xlink:href="#m0d5bf06cfc" y="88.010925"/>
     <use style="fill:#1f77b4;stroke:#1f77b4;" x="227.30957" xlink:href="#m0d5bf06cfc" y="153.412149"/>
     <use style="fill:#1f77b4;stroke:#1f77b4;" x="239.135742" xlink:href="#m0d5bf06cfc" y="131.038273"/>
     <use style="fill:#1f77b4;stroke:#1f77b4;" x="251.001953" xlink:href="#m0d5bf06cfc" y="102.200516"/>
     <use style="fill:#1f77b4;stroke:#1f77b4;" x="263.008789" xlink:href="#m0d5bf06cfc" y="235.709923"/>
     <use style="fill:#1f77b4;stroke:#1f77b4;" x="275.134766" xlink:href="#m0d5bf06cfc" y="169.324524"/>
     <use style="fill:#1f77b4;stroke:#1f77b4;" x="286.887695" xlink:href="#m0d5bf06cfc" y="84.322559"/>
     <use style="fill:#1f77b4;stroke:#1f77b4;" x="298.583984" xlink:href="#m0d5bf06cfc" y="215.90938"/>
     <use style="fill:#1f77b4;stroke:#1f77b4;" x="310.828125" xlink:href="#m0d5bf06cfc" y="116.484955"/>
     <use style="fill:#1f77b4;stroke:#1f77b4;" x="322.131836" xlink:href="#m0d5bf06cfc" y="222.480029"/>
     <use style="fill:#1f77b4;stroke:#1f77b4;" x="334.176758" xlink:href="#m0d5bf06cfc" y="105.380692"/>
     <use style="fill:#1f77b4;stroke:#1f77b4;" x="346.12793" xlink:href="#m0d5bf06cfc" y="137.63075"/>
     <use style="fill:#1f77b4;stroke:#1f77b4;" x="358.098633" xlink:href="#m0d5bf06cfc" y="239.08773"/>
     <use style="fill:#1f77b4;stroke:#1f77b4;" x="370.352539" xlink:href="#m0d5bf06cfc" y="60.525489"/>
     <use style="fill:#1f77b4;stroke:#1f77b4;" x="381.521484" xlink:href="#m0d5bf06cfc" y="182.527109"/>
     <use style="fill:#1f77b4;stroke:#1f77b4;" x="393.758789" xlink:href="#m0d5bf06cfc" y="187.387109"/>
     <use style="fill:#1f77b4;stroke:#1f77b4;" x="405.714844" xlink:href="#m0d5bf06cfc" y="122.457994"/>
     <use style="fill:#1f77b4;stroke:#1f77b4;" x="416.931641" xlink:href="#m0d5bf06cfc" y="61.559785"/>
    </g>
   </g>
   <g id="line2d_15">
    <path clip-path="url(#p19d24b64cd)" d="M 85.820312 188.455186 
L 109.129883 111.744 
L 132.332031 186.93275 
L 156.901367 152.756708 
L 180.441406 183.337749 
L 204.480469 78.555585 
L 227.30957 153.412149 
L 251.001953 102.200516 
L 275.134766 169.324524 
L 298.583984 215.90938 
L 322.131836 222.480029 
L 346.12793 137.63075 
L 370.352539 60.525489 
L 393.758789 187.387109 
L 416.931641 61.559785 
" style="fill:none;stroke:#ff7f0e;stroke-dasharray:5.55,2.4;stroke-dashoffset:0;stroke-width:1.5;"/>
    <defs>
     <path d="M 0 3.5 
C 0.928211 3.5 1.81853 3.131218 2.474874 2.474874 
C 3.131218 1.81853 3.5 0.928211 3.5 0 
C 3.5 -0.928211 3.131218 -1.81853 2.474874 -2.474874 
C 1.81853 -3.131218 0.928211 -3.5 0 -3.5 
C -0.928211 -3.5 -1.81853 -3.131218 -2.474874 -2.474874 
C -3.131218 -1.81853 -3.5 -0.928211 -3.5 0 
C -3.5 0.928211 -3.131218 1.81853 -2.474874 2.474874 
C -1.81853 3.131218 -0.928211 3.5 0 3.5 
z
" id="md2a90ddd95" style="stroke:#ff7f0e;"/>
    </defs>
    <g clip-path="url(#p19d24b64cd)">
     <use style="fill:#ff7f0e;stroke:#ff7f0e;" x="85.820312" xlink:href="#md2a90ddd95" y="188.455186"/>
     <use style="fill:#ff7f0e;stroke:#ff7f0e;" x="109.129883" xlink:href="#md2a90ddd95" y="111.744"/>
     <use style="fill:#ff7f0e;stroke:#ff7f0e;" x="132.332031" xlink:href="#md2a90ddd95" y="186.93275"/>
     <use style="fill:#ff7f0e;stroke:#ff7f0e;" x="156.901367" xlink:href="#md2a90ddd95" y="152.756708"/>
     <use style="fill:#ff7f0e;stroke:#ff7f0e;" x="180.441406" xlink:href="#md2a90ddd95" y="183.337749"/>
     <use style="fill:#ff7f0e;stroke:#ff7f0e;" x="204.480469" xlink:href="#md2a90ddd95" y="78.555585"/>
     <use style="fill:#ff7f0e;stroke:#ff7f0e;" x="227.30957" xlink:href="#md2a90ddd95" y="153.412149"/>
     <use style="fill:#ff7f0e;stroke:#ff7f0e;" x="251.001953" xlink:href="#md2a90ddd95" y="102.200516"/>
     <use style="fill:#ff7f0e;stroke:#ff7f0e;" x="275.134766" xlink:href="#md2a90ddd95" y="169.324524"/>
     <use style="fill:#ff7f0e;stroke:#ff7f0e;" x="298.583984" xlink:href="#md2a90ddd95" y="215.90938"/>
     <use style="fill:#ff7f0e;stroke:#ff7f0e;" x="322.131836" xlink:href="#md2a90ddd95" y="222.480029"/>
     <use style="fill:#ff7f0e;stroke:#ff7f0e;" x="346.12793" xlink:href="#md2a90ddd95" y="137.63075"/>
     <use style="fill:#ff7f0e;stroke:#ff7f0e;" x="370.352539" xlink:href="#md2a90ddd95" y="60.525489"/>
     <use style="fill:#ff7f0e;stroke:#ff7f0e;" x="393.758789" xlink:href="#md2a90ddd95" y="187.387109"/>
     <use style="fill:#ff7f0e;stroke:#ff7f0e;" x="416.931641" xlink:href="#md2a90ddd95" y="61.559785"/>
    </g>
   </g>
   <g id="line2d_16">
    <path clip-path="url(#p19d24b64cd)" d="M 85.820312 190.096437 
L 109.129883 130.8165 
L 132.332031 131.795456 
L 156.901367 96.108354 
L 180.441406 160.025805 
L 204.480469 184.807792 
L 227.30957 120.711537 
L 251.001953 116.619395 
L 275.134766 202.517224 
L 298.583984 150.115969 
L 322.131836 169.482492 
L 346.12793 121.505721 
L 370.352539 149.806609 
L 393.758789 184.957109 
L 416.931641 92.00889 
" style="fill:none;stroke:#2ca02c;stroke-dasharray:5.55,2.4;stroke-dashoffset:0;stroke-width:1.5;"/>
    <defs>
     <path d="M 0 3.5 
C 0.928211 3.5 1.81853 3.131218 2.474874 2.474874 
C 3.131218 1.81853 3.5 0.928211 3.5 0 
C 3.5 -0.928211 3.131218 -1.81853 2.474874 -2.474874 
C 1.81853 -3.131218 0.928211 -3.5 0 -3.5 
C -0.928211 -3.5 -1.81853 -3.131218 -2.474874 -2.474874 
C -3.131218 -1.81853 -3.5 -0.928211 -3.5 0 
C -3.5 0.928211 -3.131218 1.81853 -2.474874 2.474874 
C -1.81853 3.131218 -0.928211 3.5 0 3.5 
z
" id="m182cd41dd3" style="stroke:#2ca02c;"/>
    </defs>
    <g clip-path="url(#p19d24b64cd)">
     <use style="fill:#2ca02c;stroke:#2ca02c;" x="85.820312" xlink:href="#m182cd41dd3" y="190.096437"/>
     <use style="fill:#2ca02c;stroke:#2ca02c;" x="109.129883" xlink:href="#m182cd41dd3" y="130.8165"/>
     <use style="fill:#2ca02c;stroke:#2ca02c;" x="132.332031" xlink:href="#m182cd41dd3" y="131.795456"/>
     <use style="fill:#2ca02c;stroke:#2ca02c;" x="156.901367" xlink:href="#m182cd41dd3" y="96.108354"/>
     <use style="fill:#2ca02c;stroke:#2ca02c;" x="180.441406" xlink:href="#m182cd41dd3" y="160.025805"/>
     <use style="fill:#2ca02c;stroke:#2ca02c;" x="204.480469" xlink:href="#m182cd41dd3" y="184.807792"/>
     <use style="fill:#2ca02c;stroke:#2ca02c;" x="227.30957" xlink:href="#m182cd41dd3" y="120.711537"/>
     <use style="fill:#2ca02c;stroke:#2ca02c;" x="251.001953" xlink:href="#m182cd41dd3" y="116.619395"/>
     <use style="fill:#2ca02c;stroke:#2ca02c;" x="275.134766" xlink:href="#m182cd41dd3" y="202.517224"/>
     <use style="fill:#2ca02c;stroke:#2ca02c;" x="298.583984" xlink:href="#m182cd41dd3" y="150.115969"/>
     <use style="fill:#2ca02c;stroke:#2ca02c;" x="322.131836" xlink:href="#m182cd41dd3" y="169.482492"/>
     <use style="fill:#2ca02c;stroke:#2ca02c;" x="346.12793" xlink:href="#m182cd41dd3" y="121.505721"/>
     <use style="fill:#2ca02c;stroke:#2ca02c;" x="370.352539" xlink:href="#m182cd41dd3" y="149.806609"/>
     <use style="fill:#2ca02c;stroke:#2ca02c;" x="393.758789" xlink:href="#m182cd41dd3" y="184.957109"/>
     <use style="fill:#2ca02c;stroke:#2ca02c;" x="416.931641" xlink:href="#m182cd41dd3" y="92.00889"/>
    </g>
   </g>
   <g id="patch_3">
    <path d="M 56.09 303.64 
L 56.09 26.88 
" style="fill:none;stroke:#000000;stroke-linecap:square;stroke-linejoin:miter;stroke-width:0.8;"/>
   </g>
   <g id="patch_4">
    <path d="M 434.115 303.64 
L 434.115 26.88 
" style="fill:none;stroke:#000000;stroke-linecap:square;stroke-linejoin:miter;stroke-width:0.8;"/>
   </g>
   <g id="patch_5">
    <path d="M 56.089844 303.64 
L 434.114258 303.64 
" style="fill:none;stroke:#000000;stroke-linecap:square;stroke-linejoin:miter;stroke-width:0.8;"/>
   </g>
   <g id="patch_6">
    <path d="M 56.089844 26.88 
L 434.114258 26.88 
" style="fill:none;stroke:#000000;stroke-linecap:square;stroke-linejoin:miter;stroke-width:0.8;"/>
   </g>
   <g id="text_16">
    <!-- [DropRows] Difference between signal filtered offline and online  -->
    <defs>
     <path d="M 8.59375 75.984375 
L 29.296875 75.984375 
L 29.296875 69 
L 17.578125 69 
L 17.578125 -6.203125 
L 29.296875 -6.203125 
L 29.296875 -13.1875 
L 8.59375 -13.1875 
z
" id="DejaVuSans-91"/>
     <path d="M 19.671875 64.796875 
L 19.671875 8.109375 
L 31.59375 8.109375 
Q 46.6875 8.109375 53.6875 14.9375 
Q 60.6875 21.78125 60.6875 36.53125 
Q 60.6875 51.171875 53.6875 57.984375 
Q 46.6875 64.796875 31.59375 64.796875 
z
M 9.8125 72.90625 
L 30.078125 72.90625 
Q 51.265625 72.90625 61.171875 64.09375 
Q 71.09375 55.28125 71.09375 36.53125 
Q 71.09375 17.671875 61.125 8.828125 
Q 51.171875 0 30.078125 0 
L 9.8125 0 
z
" id="DejaVuSans-68"/>
     <path d="M 41.109375 46.296875 
Q 39.59375 47.171875 37.8125 47.578125 
Q 36.03125 48 33.890625 48 
Q 26.265625 48 22.1875 43.046875 
Q 18.109375 38.09375 18.109375 28.8125 
L 18.109375 0 
L 9.078125 0 
L 9.078125 54.6875 
L 18.109375 54.6875 
L 18.109375 46.1875 
Q 20.953125 51.171875 25.484375 53.578125 
Q 30.03125 56 36.53125 56 
Q 37.453125 56 38.578125 55.875 
Q 39.703125 55.765625 41.0625 55.515625 
z
" id="DejaVuSans-114"/>
     <path d="M 30.609375 48.390625 
Q 23.390625 48.390625 19.1875 42.75 
Q 14.984375 37.109375 14.984375 27.296875 
Q 14.984375 17.484375 19.15625 11.84375 
Q 23.34375 6.203125 30.609375 6.203125 
Q 37.796875 6.203125 41.984375 11.859375 
Q 46.1875 17.53125 46.1875 27.296875 
Q 46.1875 37.015625 41.984375 42.703125 
Q 37.796875 48.390625 30.609375 48.390625 
z
M 30.609375 56 
Q 42.328125 56 49.015625 48.375 
Q 55.71875 40.765625 55.71875 27.296875 
Q 55.71875 13.875 49.015625 6.21875 
Q 42.328125 -1.421875 30.609375 -1.421875 
Q 18.84375 -1.421875 12.171875 6.21875 
Q 5.515625 13.875 5.515625 27.296875 
Q 5.515625 40.765625 12.171875 48.375 
Q 18.84375 56 30.609375 56 
z
" id="DejaVuSans-111"/>
     <path d="M 18.109375 8.203125 
L 18.109375 -20.796875 
L 9.078125 -20.796875 
L 9.078125 54.6875 
L 18.109375 54.6875 
L 18.109375 46.390625 
Q 20.953125 51.265625 25.265625 53.625 
Q 29.59375 56 35.59375 56 
Q 45.5625 56 51.78125 48.09375 
Q 58.015625 40.1875 58.015625 27.296875 
Q 58.015625 14.40625 51.78125 6.484375 
Q 45.5625 -1.421875 35.59375 -1.421875 
Q 29.59375 -1.421875 25.265625 0.953125 
Q 20.953125 3.328125 18.109375 8.203125 
z
M 48.6875 27.296875 
Q 48.6875 37.203125 44.609375 42.84375 
Q 40.53125 48.484375 33.40625 48.484375 
Q 26.265625 48.484375 22.1875 42.84375 
Q 18.109375 37.203125 18.109375 27.296875 
Q 18.109375 17.390625 22.1875 11.75 
Q 26.265625 6.109375 33.40625 6.109375 
Q 40.53125 6.109375 44.609375 11.75 
Q 48.6875 17.390625 48.6875 27.296875 
z
" id="DejaVuSans-112"/>
     <path d="M 44.390625 34.1875 
Q 47.5625 33.109375 50.5625 29.59375 
Q 53.5625 26.078125 56.59375 19.921875 
L 66.609375 0 
L 56 0 
L 46.6875 18.703125 
Q 43.0625 26.03125 39.671875 28.421875 
Q 36.28125 30.8125 30.421875 30.8125 
L 19.671875 30.8125 
L 19.671875 0 
L 9.8125 0 
L 9.8125 72.90625 
L 32.078125 72.90625 
Q 44.578125 72.90625 50.734375 67.671875 
Q 56.890625 62.453125 56.890625 51.90625 
Q 56.890625 45.015625 53.6875 40.46875 
Q 50.484375 35.9375 44.390625 34.1875 
z
M 19.671875 64.796875 
L 19.671875 38.921875 
L 32.078125 38.921875 
Q 39.203125 38.921875 42.84375 42.21875 
Q 46.484375 45.515625 46.484375 51.90625 
Q 46.484375 58.296875 42.84375 61.546875 
Q 39.203125 64.796875 32.078125 64.796875 
z
" id="DejaVuSans-82"/>
     <path d="M 4.203125 54.6875 
L 13.1875 54.6875 
L 24.421875 12.015625 
L 35.59375 54.6875 
L 46.1875 54.6875 
L 57.421875 12.015625 
L 68.609375 54.6875 
L 77.59375 54.6875 
L 63.28125 0 
L 52.6875 0 
L 40.921875 44.828125 
L 29.109375 0 
L 18.5 0 
z
" id="DejaVuSans-119"/>
     <path d="M 30.421875 75.984375 
L 30.421875 -13.1875 
L 9.71875 -13.1875 
L 9.71875 -6.203125 
L 21.390625 -6.203125 
L 21.390625 69 
L 9.71875 69 
L 9.71875 75.984375 
z
" id="DejaVuSans-93"/>
     <path id="DejaVuSans-32"/>
     <path d="M 37.109375 75.984375 
L 37.109375 68.5 
L 28.515625 68.5 
Q 23.6875 68.5 21.796875 66.546875 
Q 19.921875 64.59375 19.921875 59.515625 
L 19.921875 54.6875 
L 34.71875 54.6875 
L 34.71875 47.703125 
L 19.921875 47.703125 
L 19.921875 0 
L 10.890625 0 
L 10.890625 47.703125 
L 2.296875 47.703125 
L 2.296875 54.6875 
L 10.890625 54.6875 
L 10.890625 58.5 
Q 10.890625 67.625 15.140625 71.796875 
Q 19.390625 75.984375 28.609375 75.984375 
z
" id="DejaVuSans-102"/>
     <path d="M 48.78125 52.59375 
L 48.78125 44.1875 
Q 44.96875 46.296875 41.140625 47.34375 
Q 37.3125 48.390625 33.40625 48.390625 
Q 24.65625 48.390625 19.8125 42.84375 
Q 14.984375 37.3125 14.984375 27.296875 
Q 14.984375 17.28125 19.8125 11.734375 
Q 24.65625 6.203125 33.40625 6.203125 
Q 37.3125 6.203125 41.140625 7.25 
Q 44.96875 8.296875 48.78125 10.40625 
L 48.78125 2.09375 
Q 45.015625 0.34375 40.984375 -0.53125 
Q 36.96875 -1.421875 32.421875 -1.421875 
Q 20.0625 -1.421875 12.78125 6.34375 
Q 5.515625 14.109375 5.515625 27.296875 
Q 5.515625 40.671875 12.859375 48.328125 
Q 20.21875 56 33.015625 56 
Q 37.15625 56 41.109375 55.140625 
Q 45.0625 54.296875 48.78125 52.59375 
z
" id="DejaVuSans-99"/>
     <path d="M 48.6875 27.296875 
Q 48.6875 37.203125 44.609375 42.84375 
Q 40.53125 48.484375 33.40625 48.484375 
Q 26.265625 48.484375 22.1875 42.84375 
Q 18.109375 37.203125 18.109375 27.296875 
Q 18.109375 17.390625 22.1875 11.75 
Q 26.265625 6.109375 33.40625 6.109375 
Q 40.53125 6.109375 44.609375 11.75 
Q 48.6875 17.390625 48.6875 27.296875 
z
M 18.109375 46.390625 
Q 20.953125 51.265625 25.265625 53.625 
Q 29.59375 56 35.59375 56 
Q 45.5625 56 51.78125 48.09375 
Q 58.015625 40.1875 58.015625 27.296875 
Q 58.015625 14.40625 51.78125 6.484375 
Q 45.5625 -1.421875 35.59375 -1.421875 
Q 29.59375 -1.421875 25.265625 0.953125 
Q 20.953125 3.328125 18.109375 8.203125 
L 18.109375 0 
L 9.078125 0 
L 9.078125 75.984375 
L 18.109375 75.984375 
z
" id="DejaVuSans-98"/>
     <path d="M 45.40625 46.390625 
L 45.40625 75.984375 
L 54.390625 75.984375 
L 54.390625 0 
L 45.40625 0 
L 45.40625 8.203125 
Q 42.578125 3.328125 38.25 0.953125 
Q 33.9375 -1.421875 27.875 -1.421875 
Q 17.96875 -1.421875 11.734375 6.484375 
Q 5.515625 14.40625 5.515625 27.296875 
Q 5.515625 40.1875 11.734375 48.09375 
Q 17.96875 56 27.875 56 
Q 33.9375 56 38.25 53.625 
Q 42.578125 51.265625 45.40625 46.390625 
z
M 14.796875 27.296875 
Q 14.796875 17.390625 18.875 11.75 
Q 22.953125 6.109375 30.078125 6.109375 
Q 37.203125 6.109375 41.296875 11.75 
Q 45.40625 17.390625 45.40625 27.296875 
Q 45.40625 37.203125 41.296875 42.84375 
Q 37.203125 48.484375 30.078125 48.484375 
Q 22.953125 48.484375 18.875 42.84375 
Q 14.796875 37.203125 14.796875 27.296875 
z
" id="DejaVuSans-100"/>
    </defs>
    <g transform="translate(50.114687 20.88)scale(0.12 -0.12)">
     <use xlink:href="#DejaVuSans-91"/>
     <use x="39.013672" xlink:href="#DejaVuSans-68"/>
     <use x="116.015625" xlink:href="#DejaVuSans-114"/>
     <use x="157.097656" xlink:href="#DejaVuSans-111"/>
     <use x="218.279297" xlink:href="#DejaVuSans-112"/>
     <use x="281.755859" xlink:href="#DejaVuSans-82"/>
     <use x="351.175781" xlink:href="#DejaVuSans-111"/>
     <use x="412.357422" xlink:href="#DejaVuSans-119"/>
     <use x="494.144531" xlink:href="#DejaVuSans-115"/>
     <use x="546.244141" xlink:href="#DejaVuSans-93"/>
     <use x="585.257812" xlink:href="#DejaVuSans-32"/>
     <use x="617.044922" xlink:href="#DejaVuSans-68"/>
     <use x="694.046875" xlink:href="#DejaVuSans-105"/>
     <use x="721.830078" xlink:href="#DejaVuSans-102"/>
     <use x="757.035156" xlink:href="#DejaVuSans-102"/>
     <use x="792.240234" xlink:href="#DejaVuSans-101"/>
     <use x="853.763672" xlink:href="#DejaVuSans-114"/>
     <use x="894.845703" xlink:href="#DejaVuSans-101"/>
     <use x="956.369141" xlink:href="#DejaVuSans-110"/>
     <use x="1019.748047" xlink:href="#DejaVuSans-99"/>
     <use x="1074.728516" xlink:href="#DejaVuSans-101"/>
     <use x="1136.251953" xlink:href="#DejaVuSans-32"/>
     <use x="1168.039062" xlink:href="#DejaVuSans-98"/>
     <use x="1231.515625" xlink:href="#DejaVuSans-101"/>
     <use x="1293.039062" xlink:href="#DejaVuSans-116"/>
     <use x="1332.248047" xlink:href="#DejaVuSans-119"/>
     <use x="1414.035156" xlink:href="#DejaVuSans-101"/>
     <use x="1475.558594" xlink:href="#DejaVuSans-101"/>
     <use x="1537.082031" xlink:href="#DejaVuSans-110"/>
     <use x="1600.460938" xlink:href="#DejaVuSans-32"/>
     <use x="1632.248047" xlink:href="#DejaVuSans-115"/>
     <use x="1684.347656" xlink:href="#DejaVuSans-105"/>
     <use x="1712.130859" xlink:href="#DejaVuSans-103"/>
     <use x="1775.607422" xlink:href="#DejaVuSans-110"/>
     <use x="1838.986328" xlink:href="#DejaVuSans-97"/>
     <use x="1900.265625" xlink:href="#DejaVuSans-108"/>
     <use x="1928.048828" xlink:href="#DejaVuSans-32"/>
     <use x="1959.835938" xlink:href="#DejaVuSans-102"/>
     <use x="1995.041016" xlink:href="#DejaVuSans-105"/>
     <use x="2022.824219" xlink:href="#DejaVuSans-108"/>
     <use x="2050.607422" xlink:href="#DejaVuSans-116"/>
     <use x="2089.816406" xlink:href="#DejaVuSans-101"/>
     <use x="2151.339844" xlink:href="#DejaVuSans-114"/>
     <use x="2192.421875" xlink:href="#DejaVuSans-101"/>
     <use x="2253.945312" xlink:href="#DejaVuSans-100"/>
     <use x="2317.421875" xlink:href="#DejaVuSans-32"/>
     <use x="2349.208984" xlink:href="#DejaVuSans-111"/>
     <use x="2410.390625" xlink:href="#DejaVuSans-102"/>
     <use x="2445.595703" xlink:href="#DejaVuSans-102"/>
     <use x="2480.800781" xlink:href="#DejaVuSans-108"/>
     <use x="2508.583984" xlink:href="#DejaVuSans-105"/>
     <use x="2536.367188" xlink:href="#DejaVuSans-110"/>
     <use x="2599.746094" xlink:href="#DejaVuSans-101"/>
     <use x="2661.269531" xlink:href="#DejaVuSans-32"/>
     <use x="2693.056641" xlink:href="#DejaVuSans-97"/>
     <use x="2754.335938" xlink:href="#DejaVuSans-110"/>
     <use x="2817.714844" xlink:href="#DejaVuSans-100"/>
     <use x="2881.191406" xlink:href="#DejaVuSans-32"/>
     <use x="2912.978516" xlink:href="#DejaVuSans-111"/>
     <use x="2974.160156" xlink:href="#DejaVuSans-110"/>
     <use x="3037.539062" xlink:href="#DejaVuSans-108"/>
     <use x="3065.322266" xlink:href="#DejaVuSans-105"/>
     <use x="3093.105469" xlink:href="#DejaVuSans-110"/>
     <use x="3156.484375" xlink:href="#DejaVuSans-101"/>
     <use x="3218.007812" xlink:href="#DejaVuSans-32"/>
    </g>
   </g>
   <g id="legend_1">
    <g id="patch_7">
     <path d="M 262.332187 298.64 
L 427.115 298.64 
Q 429.115 298.64 429.115 296.64 
L 429.115 253.605625 
Q 429.115 251.605625 427.115 251.605625 
L 262.332187 251.605625 
Q 260.332187 251.605625 260.332187 253.605625 
L 260.332187 296.64 
Q 260.332187 298.64 262.332187 298.64 
z
" style="fill:#ffffff;opacity:0.8;stroke:#cccccc;stroke-linejoin:miter;"/>
    </g>
    <g id="line2d_17">
     <path d="M 264.332187 259.704062 
L 284.332187 259.704062 
" style="fill:none;stroke:#1f77b4;stroke-linecap:square;stroke-width:1.5;"/>
    </g>
    <g id="line2d_18">
     <g>
      <use style="fill:#1f77b4;stroke:#1f77b4;" x="274.332187" xlink:href="#m0d5bf06cfc" y="259.704062"/>
     </g>
    </g>
    <g id="text_17">
     <!-- i.data -->
     <g transform="translate(292.332187 263.204062)scale(0.1 -0.1)">
      <use xlink:href="#DejaVuSans-105"/>
      <use x="27.783203" xlink:href="#DejaVuSans-46"/>
      <use x="59.570312" xlink:href="#DejaVuSans-100"/>
      <use x="123.046875" xlink:href="#DejaVuSans-97"/>
      <use x="184.326172" xlink:href="#DejaVuSans-116"/>
      <use x="223.535156" xlink:href="#DejaVuSans-97"/>
     </g>
    </g>
    <g id="line2d_19">
     <path d="M 264.332187 274.382187 
L 284.332187 274.382187 
" style="fill:none;stroke:#ff7f0e;stroke-dasharray:5.55,2.4;stroke-dashoffset:0;stroke-width:1.5;"/>
    </g>
    <g id="line2d_20">
     <g>
      <use style="fill:#ff7f0e;stroke:#ff7f0e;" x="274.332187" xlink:href="#md2a90ddd95" y="274.382187"/>
     </g>
    </g>
    <g id="text_18">
     <!-- o.data (method=None) -->
     <defs>
      <path d="M 31 75.875 
Q 24.46875 64.65625 21.28125 53.65625 
Q 18.109375 42.671875 18.109375 31.390625 
Q 18.109375 20.125 21.3125 9.0625 
Q 24.515625 -2 31 -13.1875 
L 23.1875 -13.1875 
Q 15.875 -1.703125 12.234375 9.375 
Q 8.59375 20.453125 8.59375 31.390625 
Q 8.59375 42.28125 12.203125 53.3125 
Q 15.828125 64.359375 23.1875 75.875 
z
" id="DejaVuSans-40"/>
      <path d="M 54.890625 33.015625 
L 54.890625 0 
L 45.90625 0 
L 45.90625 32.71875 
Q 45.90625 40.484375 42.875 44.328125 
Q 39.84375 48.1875 33.796875 48.1875 
Q 26.515625 48.1875 22.3125 43.546875 
Q 18.109375 38.921875 18.109375 30.90625 
L 18.109375 0 
L 9.078125 0 
L 9.078125 75.984375 
L 18.109375 75.984375 
L 18.109375 46.1875 
Q 21.34375 51.125 25.703125 53.5625 
Q 30.078125 56 35.796875 56 
Q 45.21875 56 50.046875 50.171875 
Q 54.890625 44.34375 54.890625 33.015625 
z
" id="DejaVuSans-104"/>
      <path d="M 10.59375 45.40625 
L 73.1875 45.40625 
L 73.1875 37.203125 
L 10.59375 37.203125 
z
M 10.59375 25.484375 
L 73.1875 25.484375 
L 73.1875 17.1875 
L 10.59375 17.1875 
z
" id="DejaVuSans-61"/>
      <path d="M 9.8125 72.90625 
L 23.09375 72.90625 
L 55.421875 11.921875 
L 55.421875 72.90625 
L 64.984375 72.90625 
L 64.984375 0 
L 51.703125 0 
L 19.390625 60.984375 
L 19.390625 0 
L 9.8125 0 
z
" id="DejaVuSans-78"/>
      <path d="M 8.015625 75.875 
L 15.828125 75.875 
Q 23.140625 64.359375 26.78125 53.3125 
Q 30.421875 42.28125 30.421875 31.390625 
Q 30.421875 20.453125 26.78125 9.375 
Q 23.140625 -1.703125 15.828125 -13.1875 
L 8.015625 -13.1875 
Q 14.5 -2 17.703125 9.0625 
Q 20.90625 20.125 20.90625 31.390625 
Q 20.90625 42.671875 17.703125 53.65625 
Q 14.5 64.65625 8.015625 75.875 
z
" id="DejaVuSans-41"/>
     </defs>
     <g transform="translate(292.332187 277.882187)scale(0.1 -0.1)">
      <use xlink:href="#DejaVuSans-111"/>
      <use x="61.166016" xlink:href="#DejaVuSans-46"/>
      <use x="92.953125" xlink:href="#DejaVuSans-100"/>
      <use x="156.429688" xlink:href="#DejaVuSans-97"/>
      <use x="217.708984" xlink:href="#DejaVuSans-116"/>
      <use x="256.917969" xlink:href="#DejaVuSans-97"/>
      <use x="318.197266" xlink:href="#DejaVuSans-32"/>
      <use x="349.984375" xlink:href="#DejaVuSans-40"/>
      <use x="388.998047" xlink:href="#DejaVuSans-109"/>
      <use x="486.410156" xlink:href="#DejaVuSans-101"/>
      <use x="547.933594" xlink:href="#DejaVuSans-116"/>
      <use x="587.142578" xlink:href="#DejaVuSans-104"/>
      <use x="650.521484" xlink:href="#DejaVuSans-111"/>
      <use x="711.703125" xlink:href="#DejaVuSans-100"/>
      <use x="775.179688" xlink:href="#DejaVuSans-61"/>
      <use x="858.96875" xlink:href="#DejaVuSans-78"/>
      <use x="933.773438" xlink:href="#DejaVuSans-111"/>
      <use x="994.955078" xlink:href="#DejaVuSans-110"/>
      <use x="1058.333984" xlink:href="#DejaVuSans-101"/>
      <use x="1119.857422" xlink:href="#DejaVuSans-41"/>
     </g>
    </g>
    <g id="line2d_21">
     <path d="M 264.332187 289.060312 
L 284.332187 289.060312 
" style="fill:none;stroke:#2ca02c;stroke-dasharray:5.55,2.4;stroke-dashoffset:0;stroke-width:1.5;"/>
    </g>
    <g id="line2d_22">
     <g>
      <use style="fill:#2ca02c;stroke:#2ca02c;" x="274.332187" xlink:href="#m182cd41dd3" y="289.060312"/>
     </g>
    </g>
    <g id="text_19">
     <!-- o.data (method='median') -->
     <defs>
      <path d="M 17.921875 72.90625 
L 17.921875 45.796875 
L 9.625 45.796875 
L 9.625 72.90625 
z
" id="DejaVuSans-39"/>
     </defs>
     <g transform="translate(292.332187 292.560312)scale(0.1 -0.1)">
      <use xlink:href="#DejaVuSans-111"/>
      <use x="61.166016" xlink:href="#DejaVuSans-46"/>
      <use x="92.953125" xlink:href="#DejaVuSans-100"/>
      <use x="156.429688" xlink:href="#DejaVuSans-97"/>
      <use x="217.708984" xlink:href="#DejaVuSans-116"/>
      <use x="256.917969" xlink:href="#DejaVuSans-97"/>
      <use x="318.197266" xlink:href="#DejaVuSans-32"/>
      <use x="349.984375" xlink:href="#DejaVuSans-40"/>
      <use x="388.998047" xlink:href="#DejaVuSans-109"/>
      <use x="486.410156" xlink:href="#DejaVuSans-101"/>
      <use x="547.933594" xlink:href="#DejaVuSans-116"/>
      <use x="587.142578" xlink:href="#DejaVuSans-104"/>
      <use x="650.521484" xlink:href="#DejaVuSans-111"/>
      <use x="711.703125" xlink:href="#DejaVuSans-100"/>
      <use x="775.179688" xlink:href="#DejaVuSans-61"/>
      <use x="858.96875" xlink:href="#DejaVuSans-39"/>
      <use x="886.458984" xlink:href="#DejaVuSans-109"/>
      <use x="983.871094" xlink:href="#DejaVuSans-101"/>
      <use x="1045.394531" xlink:href="#DejaVuSans-100"/>
      <use x="1108.871094" xlink:href="#DejaVuSans-105"/>
      <use x="1136.654297" xlink:href="#DejaVuSans-97"/>
      <use x="1197.933594" xlink:href="#DejaVuSans-110"/>
      <use x="1261.3125" xlink:href="#DejaVuSans-39"/>
      <use x="1288.802734" xlink:href="#DejaVuSans-41"/>
     </g>
    </g>
   </g>
  </g>
 </g>
 <defs>
  <clipPath id="p19d24b64cd">
   <rect height="276.76" width="378.025" x="56.09" y="26.88"/>
  </clipPath>
 </defs>
</svg>
