<svg version="1.1" viewBox="0.0 0.0 377.9527559055118 151.1811023622047" fill="none" stroke="none" stroke-linecap="square" stroke-miterlimit="10" xmlns:xlink="http://www.w3.org/1999/xlink" xmlns="http://www.w3.org/2000/svg"><clipPath id="p.0"><path d="m0 0l377.95276 0l0 151.1811l-377.95276 0l0 -151.1811z" clip-rule="nonzero"/></clipPath><g clip-path="url(#p.0)"><path fill="#000000" fill-opacity="0.0" d="m0 0l377.95276 0l0 151.1811l-377.95276 0z" fill-rule="evenodd"/><path fill="#000000" fill-opacity="0.0" d="m57.913387 12.12336l0.062992096 112.50394" fill-rule="evenodd"/><path stroke="#666666" stroke-width="1.0" stroke-linejoin="round" stroke-linecap="butt" d="m57.913387 12.12336l0.062992096 112.50394" fill-rule="evenodd"/><path fill="#000000" fill-opacity="0.0" d="m28.307087 102.30708l96.06299 0" fill-rule="evenodd"/><path stroke="#4a86e8" stroke-width="2.0" stroke-linejoin="round" stroke-linecap="butt" d="m28.307087 102.30708l96.06299 0" fill-rule="evenodd"/><path fill="#000000" fill-opacity="0.0" d="m248.33595 102.30708l96.063 0" fill-rule="evenodd"/><path stroke="#4a86e8" stroke-width="2.0" stroke-linejoin="round" stroke-linecap="butt" d="m248.33595 102.30708l96.063 0" fill-rule="evenodd"/><path fill="#000000" fill-opacity="0.0" d="m159.77165 22.215223l61.51181 -0.75590515" fill-rule="evenodd"/><path stroke="#4a86e8" stroke-width="2.0" stroke-linejoin="round" stroke-linecap="butt" d="m159.77165 22.215223l61.51181 -0.75590515" fill-rule="evenodd"/><path fill="#000000" fill-opacity="0.0" d="m123.362206 103.31759l36.409447 -81.921265" fill-rule="evenodd"/><path stroke="#4a86e8" stroke-width="2.0" stroke-linejoin="round" stroke-linecap="butt" d="m123.362206 103.31759l36.409447 -81.921265" fill-rule="evenodd"/><path fill="#000000" fill-opacity="0.0" d="m220.96588 21.15748l27.370071 82.14173" fill-rule="evenodd"/><path stroke="#4a86e8" stroke-width="2.0" stroke-linejoin="round" stroke-linecap="butt" d="m220.96588 21.15748l27.370071 82.14173" fill-rule="evenodd"/><path fill="#000000" fill-opacity="0.0" d="m124.068245 103.31233l-0.3149643 21.984253" fill-rule="evenodd"/><path stroke="#666666" stroke-width="1.0" stroke-linejoin="round" stroke-linecap="butt" stroke-dasharray="4.0,3.0" d="m124.068245 103.31233l-0.3149643 21.984253" fill-rule="evenodd"/><path fill="#000000" fill-opacity="0.0" d="m160.08661 22.215223l-2.3307037 104.88189" fill-rule="evenodd"/><path stroke="#666666" stroke-width="1.0" stroke-linejoin="round" stroke-linecap="butt" stroke-dasharray="4.0,3.0" d="m160.08661 22.215223l-2.3307037 104.88189" fill-rule="evenodd"/><path fill="#000000" fill-opacity="0.0" d="m220.96588 22.215223l-0.9133911 105.16535" fill-rule="evenodd"/><path stroke="#666666" stroke-width="1.0" stroke-linejoin="round" stroke-linecap="butt" stroke-dasharray="4.0,3.0" d="m220.96588 22.215223l-0.9133911 105.16535" fill-rule="evenodd"/><path fill="#000000" fill-opacity="0.0" d="m248.65092 103.31233l-0.31497192 21.984253" fill-rule="evenodd"/><path stroke="#666666" stroke-width="1.0" stroke-linejoin="round" stroke-linecap="butt" stroke-dasharray="4.0,3.0" d="m248.65092 103.31233l-0.31497192 21.984253" fill-rule="evenodd"/><path fill="#000000" fill-opacity="0.0" d="m103.75328 113.41732l51.496063 0l0 18.645668l-51.496063 0z" fill-rule="evenodd"/><path fill="#666666" d="m113.62828 132.65732l0 -7.6249924l5.140625 0l0 0.890625l-4.125 0l0 2.3749924l3.578125 0l0 0.890625l-3.578125 0l0 3.46875l-1.015625 0zm5.962387 -1.65625l0.921875 -0.140625q0.078125 0.5625 0.4375 0.859375q0.359375 0.296875 1.0 0.296875q0.640625 0 0.953125 -0.265625q0.3125 -0.265625 0.3125 -0.625q0 -0.3125 -0.28125 -0.5q-0.1875 -0.125 -0.953125 -0.3125q-1.03125 -0.265625 -1.4375 -0.453125q-0.390625 -0.1875 -0.59375 -0.515625q-0.203125 -0.34375 -0.203125 -0.75q0 -0.359375 0.171875 -0.6718674q0.171875 -0.328125 0.453125 -0.53125q0.21875 -0.15625 0.59375 -0.265625q0.390625 -0.125 0.8125 -0.125q0.65625 0 1.140625 0.1875q0.5 0.1875 0.734375 0.515625q0.234375 0.31249237 0.3125 0.8593674l-0.90625 0.125q-0.0625 -0.4375 -0.375 -0.671875q-0.296875 -0.23436737 -0.828125 -0.23436737q-0.65625 0 -0.9375 0.21874237q-0.265625 0.203125 -0.265625 0.484375q0 0.1875 0.109375 0.328125q0.125 0.15625 0.359375 0.25q0.140625 0.0625 0.828125 0.25q1.0 0.265625 1.390625 0.4375q0.390625 0.15625 0.609375 0.484375q0.234375 0.3125 0.234375 0.796875q0 0.46875 -0.28125 0.890625q-0.265625 0.40625 -0.78125 0.640625q-0.515625 0.21875 -1.171875 0.21875q-1.078125 0 -1.640625 -0.4375q-0.5625 -0.453125 -0.71875 -1.34375zm8.96875 1.65625l-0.9375 0l0 -5.9687424q-0.34375 0.328125 -0.890625 0.65625q-0.546875 0.3125 -0.984375 0.46875l0 -0.90625q0.796875 -0.359375 1.375 -0.890625q0.59375 -0.53125 0.828125 -1.015625l0.609375 0l0 7.6562424z" fill-rule="nonzero"/><path fill="#000000" fill-opacity="0.0" d="m141.17323 113.41732l51.496063 0l0 18.645668l-51.496063 0z" fill-rule="evenodd"/><path fill="#666666" d="m151.04823 132.65732l0 -7.6249924l5.140625 0l0 0.890625l-4.125 0l0 2.3749924l3.578125 0l0 0.890625l-3.578125 0l0 3.46875l-1.015625 0zm6.337387 2.125l0 -7.6562424l0.859375 0l0 0.71875q0.296875 -0.421875 0.671875 -0.625q0.390625 -0.21875 0.921875 -0.21875q0.703125 0 1.25 0.375q0.546875 0.359375 0.8125 1.0312424q0.28125 0.65625 0.28125 1.453125q0 0.84375 -0.3125 1.53125q-0.296875 0.671875 -0.875 1.03125q-0.578125 0.359375 -1.21875 0.359375q-0.46875 0 -0.84375 -0.1875q-0.375 -0.203125 -0.609375 -0.515625l0 2.703125l-0.9375 0zm0.84375 -4.859375q0 1.0625 0.4375 1.578125q0.4375 0.515625 1.046875 0.515625q0.625 0 1.0625 -0.53125q0.453125 -0.53125 0.453125 -1.640625q0 -1.046875 -0.4375 -1.578125q-0.4375 -0.5312424 -1.046875 -0.5312424q-0.59375 0 -1.0625 0.5624924q-0.453125 0.5625 -0.453125 1.625zm8.348373 2.734375l-0.9375 0l0 -5.9687424q-0.34375 0.328125 -0.890625 0.65625q-0.546875 0.3125 -0.984375 0.46875l0 -0.90625q0.796875 -0.359375 1.375 -0.890625q0.59375 -0.53125 0.828125 -1.015625l0.609375 0l0 7.6562424z" fill-rule="nonzero"/><path fill="#000000" fill-opacity="0.0" d="m201.37007 113.41732l51.496063 0l0 18.645668l-51.496063 0z" fill-rule="evenodd"/><path fill="#666666" d="m211.24507 132.65732l0 -7.6249924l5.140625 0l0 0.890625l-4.125 0l0 2.3749924l3.578125 0l0 0.890625l-3.578125 0l0 3.46875l-1.015625 0zm6.337387 2.125l0 -7.6562424l0.859375 0l0 0.71875q0.296875 -0.421875 0.671875 -0.625q0.390625 -0.21875 0.921875 -0.21875q0.703125 0 1.25 0.375q0.546875 0.359375 0.8125 1.0312424q0.28125 0.65625 0.28125 1.453125q0 0.84375 -0.3125 1.53125q-0.296875 0.671875 -0.875 1.03125q-0.578125 0.359375 -1.21875 0.359375q-0.46875 0 -0.84375 -0.1875q-0.375 -0.203125 -0.609375 -0.515625l0 2.703125l-0.9375 0zm0.84375 -4.859375q0 1.0625 0.4375 1.578125q0.4375 0.515625 1.046875 0.515625q0.625 0 1.0625 -0.53125q0.453125 -0.53125 0.453125 -1.640625q0 -1.046875 -0.4375 -1.578125q-0.4375 -0.5312424 -1.046875 -0.5312424q-0.59375 0 -1.0625 0.5624924q-0.453125 0.5625 -0.453125 1.625zm9.738998 1.828125l0 0.90625l-5.03125 0q-0.015625 -0.34375 0.109375 -0.65625q0.1875 -0.515625 0.609375 -1.015625q0.421875 -0.5 1.234375 -1.140625q1.234375 -1.03125 1.671875 -1.625q0.4375 -0.5937424 0.4375 -1.1249924q0 -0.5625 -0.40625 -0.9375q-0.390625 -0.390625 -1.03125 -0.390625q-0.671875 0 -1.078125 0.40625q-0.40625 0.40625 -0.40625 1.125l-0.96875 -0.09375q0.09375 -1.078125 0.734375 -1.640625q0.65625 -0.5625 1.734375 -0.5625q1.109375 0 1.75 0.609375q0.640625 0.609375 0.640625 1.5q0 0.46875 -0.1875 0.9062424q-0.1875 0.4375 -0.625 0.9375q-0.4375 0.484375 -1.453125 1.328125q-0.828125 0.71875 -1.078125 0.96875q-0.234375 0.25 -0.390625 0.5l3.734375 0z" fill-rule="nonzero"/><path fill="#000000" fill-opacity="0.0" d="m234.82152 113.41732l51.49608 0l0 18.645668l-51.49608 0z" fill-rule="evenodd"/><path fill="#666666" d="m244.69652 132.65732l0 -7.6249924l5.140625 0l0 0.890625l-4.125 0l0 2.3749924l3.578125 0l0 0.890625l-3.578125 0l0 3.46875l-1.015625 0zm5.962387 -1.65625l0.921875 -0.140625q0.078125 0.5625 0.4375 0.859375q0.359375 0.296875 1.0 0.296875q0.640625 0 0.953125 -0.265625q0.3125 -0.265625 0.3125 -0.625q0 -0.3125 -0.28125 -0.5q-0.1875 -0.125 -0.953125 -0.3125q-1.03125 -0.265625 -1.4375 -0.453125q-0.390625 -0.1875 -0.59375 -0.515625q-0.203125 -0.34375 -0.203125 -0.75q0 -0.359375 0.171875 -0.6718674q0.171875 -0.328125 0.453125 -0.53125q0.21875 -0.15625 0.59375 -0.265625q0.390625 -0.125 0.8125 -0.125q0.65625 0 1.140625 0.1875q0.5 0.1875 0.734375 0.515625q0.234375 0.31249237 0.3125 0.8593674l-0.90625 0.125q-0.0625 -0.4375 -0.375 -0.671875q-0.296875 -0.23436737 -0.828125 -0.23436737q-0.65625 0 -0.9375 0.21874237q-0.265625 0.203125 -0.265625 0.484375q0 0.1875 0.109375 0.328125q0.125 0.15625 0.359375 0.25q0.140625 0.0625 0.828125 0.25q1.0 0.265625 1.390625 0.4375q0.390625 0.15625 0.609375 0.484375q0.234375 0.3125 0.234375 0.796875q0 0.46875 -0.28125 0.890625q-0.265625 0.40625 -0.78125 0.640625q-0.515625 0.21875 -1.171875 0.21875q-1.078125 0 -1.640625 -0.4375q-0.5625 -0.453125 -0.71875 -1.34375zm10.359375 0.75l0 0.90625l-5.03125 0q-0.015625 -0.34375 0.109375 -0.65625q0.1875 -0.515625 0.609375 -1.015625q0.421875 -0.5 1.234375 -1.140625q1.234375 -1.03125 1.671875 -1.625q0.4375 -0.5937424 0.4375 -1.1249924q0 -0.5625 -0.40625 -0.9375q-0.390625 -0.390625 -1.03125 -0.390625q-0.671875 0 -1.078125 0.40625q-0.40625 0.40625 -0.40625 1.125l-0.96875 -0.09375q0.09375 -1.078125 0.734375 -1.640625q0.65625 -0.5625 1.734375 -0.5625q1.109375 0 1.75 0.609375q0.640625 0.609375 0.640625 1.5q0 0.46875 -0.1875 0.9062424q-0.1875 0.4375 -0.625 0.9375q-0.4375 0.484375 -1.453125 1.328125q-0.828125 0.71875 -1.078125 0.96875q-0.234375 0.25 -0.390625 0.5l3.734375 0z" fill-rule="nonzero"/><path fill="#000000" fill-opacity="0.0" d="m45.391075 116.38845l51.496063 0l0 18.645668l-51.496063 0z" fill-rule="evenodd"/><path fill="#666666" d="m54.828575 131.86282q0 -1.34375 0.28125 -2.171875q0.28125 -0.828125 0.828125 -1.265625q0.546875 -0.453125 1.375 -0.453125q0.625 0 1.078125 0.25q0.46875 0.234375 0.765625 0.703125q0.3125 0.46875 0.484375 1.140625q0.171875 0.671875 0.171875 1.796875q0 1.34375 -0.28125 2.171875q-0.28125 0.828125 -0.828125 1.28125q-0.546875 0.4375 -1.390625 0.4375q-1.09375 0 -1.71875 -0.78125q-0.765625 -0.953125 -0.765625 -3.109375zm0.96875 0q0 1.875 0.4375 2.5q0.4375 0.625 1.078125 0.625q0.65625 0 1.09375 -0.625q0.4375 -0.625 0.4375 -2.5q0 -1.875 -0.4375 -2.5q-0.4375 -0.625 -1.09375 -0.625q-0.640625 0 -1.03125 0.546875q-0.484375 0.703125 -0.484375 2.578125z" fill-rule="nonzero"/><path fill="#000000" fill-opacity="0.0" d="m6.1364827 84.67191l51.496063 0l0 18.645676l-51.496063 0z" fill-rule="evenodd"/><path fill="#666666" d="m15.573983 100.14629q0 -1.34375 0.28125 -2.171875q0.28124905 -0.828125 0.82812405 -1.265625q0.546875 -0.453125 1.375 -0.453125q0.625 0 1.078125 0.25q0.46875 0.234375 0.765625 0.703125q0.3125 0.46875 0.484375 1.140625q0.171875 0.671875 0.171875 1.796875q0 1.34375 -0.28125 2.171875q-0.28125 0.828125 -0.828125 1.28125q-0.546875 0.4375 -1.390625 0.4375q-1.09375 0 -1.71875 -0.78125q-0.76562405 -0.953125 -0.76562405 -3.109375zm0.96874905 0q0 1.875 0.4375 2.5q0.4375 0.625 1.078125 0.625q0.65625 0 1.09375 -0.625q0.4375 -0.625 0.4375 -2.5q0 -1.875 -0.4375 -2.5q-0.4375 -0.625 -1.09375 -0.625q-0.640625 0 -1.03125 0.546875q-0.484375 0.703125 -0.484375 2.578125z" fill-rule="nonzero"/><path fill="#000000" fill-opacity="0.0" d="m24.75853 5.9790025l43.527557 0l0 18.64567l-43.527557 0z" fill-rule="evenodd"/><path fill="#666666" d="m37.72728 25.219002l-0.9375 0l0 -5.96875q-0.34375 0.328125 -0.890625 0.65625q-0.546875 0.3125 -0.984375 0.46875l0 -0.90625q0.796875 -0.359375 1.375 -0.890625q0.59375 -0.53125 0.828125 -1.015625l0.609375 0l0 7.65625z" fill-rule="nonzero"/><path fill="#000000" fill-opacity="0.0" d="m46.52231 24.624672l0 0" fill-rule="evenodd"/><path stroke="#000000" stroke-width="1.0" stroke-linejoin="round" stroke-linecap="butt" d="m46.52231 24.624672l0 0" fill-rule="evenodd"/><path fill="#000000" fill-opacity="0.0" d="m44.404198 21.83727l13.228348 0" fill-rule="evenodd"/><path stroke="#434343" stroke-width="1.0" stroke-linejoin="round" stroke-linecap="butt" d="m44.404198 21.83727l13.228348 0" fill-rule="evenodd"/><path fill="#000000" fill-opacity="0.0" d="m320.32022 113.41732l51.496063 0l0 18.645668l-51.496063 0z" fill-rule="evenodd"/><path fill="#666666" d="m330.13272 132.65732l0 -7.6249924l1.03125 0l4.015625 5.9843674l0 -5.9843674l0.96875 0l0 7.6249924l-1.046875 0l-4.0 -5.9999924l0 5.9999924l-0.96875 0zm7.539337 2.125l-0.09375 -0.875q0.296875 0.078125 0.53125 0.078125q0.3125 0 0.5 -0.109375q0.1875 -0.09375 0.3125 -0.28125q0.078125 -0.140625 0.28125 -0.703125q0.03125 -0.078125 0.078125 -0.21875l-2.09375 -5.5468674l1.015625 0l1.140625 3.2031174q0.234375 0.609375 0.40625 1.28125q0.15625 -0.640625 0.375 -1.265625l1.1875 -3.2187424l0.9375 0l-2.109375 5.6249924q-0.328125 0.90625 -0.515625 1.25q-0.25 0.46875 -0.578125 0.6875q-0.3125 0.21875 -0.765625 0.21875q-0.265625 0 -0.609375 -0.125zm8.890625 0l0 -2.71875q-0.21875 0.3125 -0.609375 0.515625q-0.390625 0.203125 -0.828125 0.203125q-0.984375 0 -1.703125 -0.78125q-0.703125 -0.796875 -0.703125 -2.15625q0 -0.828125 0.28125 -1.484375q0.296875 -0.6718674 0.84375 -1.0156174q0.546875 -0.34375 1.203125 -0.34375q1.03125 0 1.609375 0.875l0 -0.75l0.84375 0l0 7.6562424l-0.9375 0zm-2.875 -4.90625q0 1.0625 0.4375 1.609375q0.453125 0.53125 1.078125 0.53125q0.59375 0 1.015625 -0.5q0.4375 -0.515625 0.4375 -1.546875q0 -1.109375 -0.453125 -1.65625q-0.453125 -0.5624924 -1.0625 -0.5624924q-0.609375 0 -1.03125 0.5156174q-0.421875 0.515625 -0.421875 1.609375z" fill-rule="nonzero"/><path fill="#000000" fill-opacity="0.0" d="m342.0525 103.31233l-0.31497192 21.984253" fill-rule="evenodd"/><path stroke="#666666" stroke-width="1.0" stroke-linejoin="round" stroke-linecap="butt" stroke-dasharray="4.0,3.0" d="m342.0525 103.31233l-0.31497192 21.984253" fill-rule="evenodd"/></g></svg>