<svg version="1.1" viewBox="0.0 0.0 377.9527559055118 151.1811023622047" fill="none" stroke="none" stroke-linecap="square" stroke-miterlimit="10" xmlns:xlink="http://www.w3.org/1999/xlink" xmlns="http://www.w3.org/2000/svg"><clipPath id="p.0"><path d="m0 0l377.95276 0l0 151.1811l-377.95276 0l0 -151.1811z" clip-rule="nonzero"/></clipPath><g clip-path="url(#p.0)"><path fill="#000000" fill-opacity="0.0" d="m0 0l377.95276 0l0 151.1811l-377.95276 0z" fill-rule="evenodd"/><path fill="#000000" fill-opacity="0.0" d="m45.51181 10.154856l0.062992096 112.50394" fill-rule="evenodd"/><path stroke="#666666" stroke-width="1.0" stroke-linejoin="round" stroke-linecap="butt" d="m45.51181 10.154856l0.062992096 112.50394" fill-rule="evenodd"/><path fill="#000000" fill-opacity="0.0" d="m233.27296 20.839895l96.063 0" fill-rule="evenodd"/><path stroke="#4a86e8" stroke-width="2.0" stroke-linejoin="round" stroke-linecap="butt" d="m233.27296 20.839895l96.063 0" fill-rule="evenodd"/><path fill="#000000" fill-opacity="0.0" d="m46.076115 103.296585l162.48819 -1.9527512" fill-rule="evenodd"/><path stroke="#4a86e8" stroke-width="2.0" stroke-linejoin="round" stroke-linecap="butt" d="m46.076115 103.296585l162.48819 -1.9527512" fill-rule="evenodd"/><path fill="#000000" fill-opacity="0.0" d="m233.79002 21.419947l-25.763779 79.77953" fill-rule="evenodd"/><path stroke="#4a86e8" stroke-width="2.0" stroke-linejoin="round" stroke-linecap="butt" d="m233.79002 21.419947l-25.763779 79.77953" fill-rule="evenodd"/><path fill="#000000" fill-opacity="0.0" d="m329.33597 19.677166l-2.330719 104.88188" fill-rule="evenodd"/><path stroke="#666666" stroke-width="1.0" stroke-linejoin="round" stroke-linecap="butt" stroke-dasharray="4.0,3.0" d="m329.33597 19.677166l-2.330719 104.88188" fill-rule="evenodd"/><path fill="#000000" fill-opacity="0.0" d="m234.18636 19.535433l-0.9133911 105.16536" fill-rule="evenodd"/><path stroke="#666666" stroke-width="1.0" stroke-linejoin="round" stroke-linecap="butt" stroke-dasharray="4.0,3.0" d="m234.18636 19.535433l-0.9133911 105.16536" fill-rule="evenodd"/><path fill="#000000" fill-opacity="0.0" d="m208.87927 101.343834l-0.31497192 21.984253" fill-rule="evenodd"/><path stroke="#666666" stroke-width="1.0" stroke-linejoin="round" stroke-linecap="butt" stroke-dasharray="4.0,3.0" d="m208.87927 101.343834l-0.31497192 21.984253" fill-rule="evenodd"/><path fill="#000000" fill-opacity="0.0" d="m188.9685 111.44882l51.496063 0l0 18.64566l-51.496063 0z" fill-rule="evenodd"/><path fill="#666666" d="m198.8435 130.68881l0 -7.6249924l5.140625 0l0 0.890625l-4.125 0l0 2.375l3.578125 0l0 0.890625l-3.578125 0l0 3.4687424l-1.015625 0zm5.962387 -1.65625l0.921875 -0.140625q0.078125 0.5625 0.4375 0.859375q0.359375 0.296875 1.0 0.296875q0.640625 0 0.953125 -0.265625q0.3125 -0.265625 0.3125 -0.625q0 -0.3125 -0.28125 -0.5q-0.1875 -0.125 -0.953125 -0.3125q-1.03125 -0.265625 -1.4375 -0.45311737q-0.390625 -0.1875 -0.59375 -0.515625q-0.203125 -0.34375 -0.203125 -0.75q0 -0.359375 0.171875 -0.671875q0.171875 -0.328125 0.453125 -0.53125q0.21875 -0.15625 0.59375 -0.265625q0.390625 -0.125 0.8125 -0.125q0.65625 0 1.140625 0.1875q0.5 0.1875 0.734375 0.515625q0.234375 0.3125 0.3125 0.859375l-0.90625 0.125q-0.0625 -0.4375 -0.375 -0.671875q-0.296875 -0.234375 -0.828125 -0.234375q-0.65625 0 -0.9375 0.21875q-0.265625 0.203125 -0.265625 0.484375q0 0.1875 0.109375 0.328125q0.125 0.15625 0.359375 0.25q0.140625 0.0625 0.828125 0.25q1.0 0.265625 1.390625 0.4375q0.390625 0.15625 0.609375 0.48436737q0.234375 0.3125 0.234375 0.796875q0 0.46875 -0.28125 0.890625q-0.265625 0.40625 -0.78125 0.640625q-0.515625 0.21875 -1.171875 0.21875q-1.078125 0 -1.640625 -0.4375q-0.5625 -0.453125 -0.71875 -1.34375zm7.75 0.8125l0.125 0.828125q-0.390625 0.09375 -0.703125 0.09375q-0.5 0 -0.78125 -0.15625q-0.28125 -0.171875 -0.40625 -0.4375q-0.109375 -0.265625 -0.109375 -1.109375l0 -3.1718674l-0.6875 0l0 -0.734375l0.6875 0l0 -1.359375l0.9375 -0.5625l0 1.921875l0.9375 0l0 0.734375l-0.9375 0l0 3.2343674q0 0.390625 0.046875 0.515625q0.046875 0.109375 0.15625 0.1875q0.109375 0.0625 0.328125 0.0625q0.15625 0 0.40625 -0.046875zm0.5700226 -1.9218674q0 -1.53125 0.84375 -2.265625q0.71875 -0.625 1.734375 -0.625q1.140625 0 1.859375 0.75q0.734375 0.75 0.734375 2.0625q0 1.0624924 -0.328125 1.6874924q-0.3125 0.609375 -0.921875 0.953125q-0.609375 0.328125 -1.34375 0.328125q-1.15625 0 -1.875 -0.734375q-0.703125 -0.75 -0.703125 -2.1562424zm0.953125 0q0 1.0624924 0.46875 1.5937424q0.46875 0.53125 1.15625 0.53125q0.703125 0 1.15625 -0.53125q0.46875 -0.53125 0.46875 -1.6249924q0 -1.015625 -0.46875 -1.546875q-0.453125 -0.53125 -1.15625 -0.53125q-0.6875 0 -1.15625 0.53125q-0.46875 0.515625 -0.46875 1.578125zm5.3171234 4.8906174l0 -7.6562424l0.859375 0l0 0.71875q0.296875 -0.421875 0.671875 -0.625q0.390625 -0.21875 0.921875 -0.21875q0.703125 0 1.25 0.375q0.546875 0.359375 0.8125 1.03125q0.28125 0.65625 0.28125 1.453125q0 0.8437424 -0.3125 1.5312424q-0.296875 0.671875 -0.875 1.03125q-0.578125 0.359375 -1.21875 0.359375q-0.46875 0 -0.84375 -0.1875q-0.375 -0.203125 -0.609375 -0.515625l0 2.703125l-0.9375 0zm0.84375 -4.8593674q0 1.0624924 0.4375 1.5781174q0.4375 0.515625 1.046875 0.515625q0.625 0 1.0625 -0.53125q0.453125 -0.53125 0.453125 -1.6406174q0 -1.046875 -0.4375 -1.578125q-0.4375 -0.53125 -1.046875 -0.53125q-0.59375 0 -1.0625 0.5625q-0.453125 0.5625 -0.453125 1.625z" fill-rule="nonzero"/><path fill="#000000" fill-opacity="0.0" d="m222.41995 111.44882l51.496063 0l0 18.64566l-51.496063 0z" fill-rule="evenodd"/><path fill="#666666" d="m232.29495 130.68881l0 -7.6249924l5.140625 0l0 0.890625l-4.125 0l0 2.375l3.578125 0l0 0.890625l-3.578125 0l0 3.4687424l-1.015625 0zm6.337387 2.125l0 -7.6562424l0.859375 0l0 0.71875q0.296875 -0.421875 0.671875 -0.625q0.390625 -0.21875 0.921875 -0.21875q0.703125 0 1.25 0.375q0.546875 0.359375 0.8125 1.03125q0.28125 0.65625 0.28125 1.453125q0 0.8437424 -0.3125 1.5312424q-0.296875 0.671875 -0.875 1.03125q-0.578125 0.359375 -1.21875 0.359375q-0.46875 0 -0.84375 -0.1875q-0.375 -0.203125 -0.609375 -0.515625l0 2.703125l-0.9375 0zm0.84375 -4.8593674q0 1.0624924 0.4375 1.5781174q0.4375 0.515625 1.046875 0.515625q0.625 0 1.0625 -0.53125q0.453125 -0.53125 0.453125 -1.6406174q0 -1.046875 -0.4375 -1.578125q-0.4375 -0.53125 -1.046875 -0.53125q-0.59375 0 -1.0625 0.5625q-0.453125 0.5625 -0.453125 1.625z" fill-rule="nonzero"/><path fill="#000000" fill-opacity="0.0" d="m32.923885 112.99213l51.49606 0l0 17.102356l-51.49606 0z" fill-rule="evenodd"/><path fill="#666666" d="m42.361385 127.56886q0 -1.34375 0.28125 -2.171875q0.28125 -0.828125 0.828125 -1.265625q0.546875 -0.453125 1.375 -0.453125q0.625 0 1.078125 0.25q0.46875 0.234375 0.765625 0.703125q0.3125 0.46875 0.484375 1.140625q0.171875 0.671875 0.171875 1.796875q0 1.34375 -0.28125 2.171875q-0.28125 0.828125 -0.828125 1.28125q-0.546875 0.4375 -1.390625 0.4375q-1.09375 0 -1.71875 -0.78125q-0.765625 -0.953125 -0.765625 -3.109375zm0.96875 0q0 1.875 0.4375 2.5q0.4375 0.625 1.078125 0.625q0.65625 0 1.09375 -0.625q0.4375 -0.625 0.4375 -2.5q0 -1.875 -0.4375 -2.5q-0.4375 -0.625 -1.09375 -0.625q-0.640625 0 -1.03125 0.546875q-0.484375 0.703125 -0.484375 2.578125z" fill-rule="nonzero"/><path fill="#000000" fill-opacity="0.0" d="m13.380577 86.2021l51.496063 0l0 18.645668l-51.496063 0z" fill-rule="evenodd"/><path fill="#666666" d="m22.818077 101.676476q0 -1.34375 0.28125 -2.171875q0.28125 -0.828125 0.828125 -1.265625q0.546875 -0.453125 1.375 -0.453125q0.625 0 1.078125 0.25q0.46875 0.234375 0.765625 0.703125q0.3125 0.46875 0.484375 1.140625q0.171875 0.671875 0.171875 1.796875q0 1.34375 -0.28125 2.171875q-0.28125 0.828125 -0.828125 1.28125q-0.546875 0.4375 -1.390625 0.4375q-1.09375 0 -1.71875 -0.78125q-0.765625 -0.953125 -0.765625 -3.109375zm0.96875 0q0 1.875 0.4375 2.5q0.4375 0.625 1.078125 0.625q0.65625 0 1.09375 -0.625q0.4375 -0.625 0.4375 -2.5q0 -1.875 -0.4375 -2.5q-0.4375 -0.625 -1.09375 -0.625q-0.640625 0 -1.03125 0.546875q-0.484375 0.703125 -0.484375 2.578125z" fill-rule="nonzero"/><path fill="#000000" fill-opacity="0.0" d="m12.356956 4.0104985l43.527557 0l0 18.64567l-43.527557 0z" fill-rule="evenodd"/><path fill="#666666" d="m25.325705 23.250498l-0.9375 0l0 -5.96875q-0.34375 0.328125 -0.890625 0.65625q-0.546875 0.3125 -0.984375 0.46875l0 -0.90625q0.796875 -0.359375 1.375 -0.890625q0.59375 -0.53125 0.828125 -1.015624l0.609375 0l0 7.656249z" fill-rule="nonzero"/><path fill="#000000" fill-opacity="0.0" d="m34.120735 22.656168l0 0" fill-rule="evenodd"/><path stroke="#000000" stroke-width="1.0" stroke-linejoin="round" stroke-linecap="butt" d="m34.120735 22.656168l0 0" fill-rule="evenodd"/><path fill="#000000" fill-opacity="0.0" d="m32.002625 19.868767l13.228348 0" fill-rule="evenodd"/><path stroke="#666666" stroke-width="1.0" stroke-linejoin="round" stroke-linecap="butt" d="m32.002625 19.868767l13.228348 0" fill-rule="evenodd"/><path fill="#000000" fill-opacity="0.0" d="m307.91864 111.44882l51.496063 0l0 18.64566l-51.496063 0z" fill-rule="evenodd"/><path fill="#666666" d="m317.73114 130.68881l0 -7.6249924l1.03125 0l4.015625 5.9843674l0 -5.9843674l0.96875 0l0 7.6249924l-1.046875 0l-4.0 -5.9999924l0 5.9999924l-0.96875 0zm7.539337 2.125l-0.09375 -0.875q0.296875 0.078125 0.53125 0.078125q0.3125 0 0.5 -0.109375q0.1875 -0.09375 0.3125 -0.28125q0.078125 -0.140625 0.28125 -0.703125q0.03125 -0.078125 0.078125 -0.21875l-2.09375 -5.5468674l1.015625 0l1.140625 3.2031174q0.234375 0.609375 0.40625 1.28125q0.15625 -0.640625 0.375 -1.265625l1.1875 -3.2187424l0.9375 0l-2.109375 5.6249924q-0.328125 0.90625 -0.515625 1.25q-0.25 0.46875 -0.578125 0.6875q-0.3125 0.21875 -0.765625 0.21875q-0.265625 0 -0.609375 -0.125zm8.890625 0l0 -2.71875q-0.21875 0.3125 -0.609375 0.515625q-0.390625 0.203125 -0.828125 0.203125q-0.984375 0 -1.703125 -0.78125q-0.703125 -0.796875 -0.703125 -2.1562424q0 -0.828125 0.28125 -1.484375q0.296875 -0.671875 0.84375 -1.015625q0.546875 -0.34375 1.203125 -0.34375q1.03125 0 1.609375 0.875l0 -0.75l0.84375 0l0 7.6562424l-0.9375 0zm-2.875 -4.9062424q0 1.0624924 0.4375 1.6093674q0.453125 0.53125 1.078125 0.53125q0.59375 0 1.015625 -0.5q0.4375 -0.515625 0.4375 -1.546875q0 -1.1093674 -0.453125 -1.6562424q-0.453125 -0.5625 -1.0625 -0.5625q-0.609375 0 -1.03125 0.515625q-0.421875 0.515625 -0.421875 1.609375z" fill-rule="nonzero"/><path fill="#000000" fill-opacity="0.0" d="m32.020996 102.92126l13.228348 0" fill-rule="evenodd"/><path stroke="#666666" stroke-width="1.0" stroke-linejoin="round" stroke-linecap="butt" d="m32.020996 102.92126l13.228348 0" fill-rule="evenodd"/></g></svg>