<?xml version="1.0" encoding="utf-8" standalone="no"?>
<!DOCTYPE svg PUBLIC "-//W3C//DTD SVG 1.1//EN"
  "http://www.w3.org/Graphics/SVG/1.1/DTD/svg11.dtd">
<!-- Created with matplotlib (https://matplotlib.org/) -->
<svg height="345.6pt" version="1.1" viewBox="0 0 460.8 345.6" width="460.8pt" xmlns="http://www.w3.org/2000/svg" xmlns:xlink="http://www.w3.org/1999/xlink">
 <defs>
  <style type="text/css">
*{stroke-linecap:butt;stroke-linejoin:round;}
  </style>
 </defs>
 <g id="figure_1">
  <g id="patch_1">
   <path d="M 0 345.6 
L 460.8 345.6 
L 460.8 0 
L 0 0 
z
" style="fill:#ffffff;"/>
  </g>
  <g id="axes_1">
   <g id="patch_2">
    <path d="M 57.6 307.584 
L 414.72 307.584 
L 414.72 41.472 
L 57.6 41.472 
z
" style="fill:#ffffff;"/>
   </g>
   <g id="matplotlib.axis_1">
    <g id="xtick_1">
     <g id="line2d_1">
      <defs>
       <path d="M 0 0 
L 0 3.5 
" id="m053135a318" style="stroke:#000000;stroke-width:0.8;"/>
      </defs>
      <g>
       <use style="stroke:#000000;stroke-width:0.8;" x="93.291517" xlink:href="#m053135a318" y="307.584"/>
      </g>
     </g>
     <g id="text_1">
      <!-- 0.0000 -->
      <defs>
       <path d="M 31.78125 66.40625 
Q 24.171875 66.40625 20.328125 58.90625 
Q 16.5 51.421875 16.5 36.375 
Q 16.5 21.390625 20.328125 13.890625 
Q 24.171875 6.390625 31.78125 6.390625 
Q 39.453125 6.390625 43.28125 13.890625 
Q 47.125 21.390625 47.125 36.375 
Q 47.125 51.421875 43.28125 58.90625 
Q 39.453125 66.40625 31.78125 66.40625 
z
M 31.78125 74.21875 
Q 44.046875 74.21875 50.515625 64.515625 
Q 56.984375 54.828125 56.984375 36.375 
Q 56.984375 17.96875 50.515625 8.265625 
Q 44.046875 -1.421875 31.78125 -1.421875 
Q 19.53125 -1.421875 13.0625 8.265625 
Q 6.59375 17.96875 6.59375 36.375 
Q 6.59375 54.828125 13.0625 64.515625 
Q 19.53125 74.21875 31.78125 74.21875 
z
" id="DejaVuSans-48"/>
       <path d="M 10.6875 12.40625 
L 21 12.40625 
L 21 0 
L 10.6875 0 
z
" id="DejaVuSans-46"/>
      </defs>
      <g transform="translate(75.796205 322.182437)scale(0.1 -0.1)">
       <use xlink:href="#DejaVuSans-48"/>
       <use x="63.623047" xlink:href="#DejaVuSans-46"/>
       <use x="95.410156" xlink:href="#DejaVuSans-48"/>
       <use x="159.033203" xlink:href="#DejaVuSans-48"/>
       <use x="222.65625" xlink:href="#DejaVuSans-48"/>
       <use x="286.279297" xlink:href="#DejaVuSans-48"/>
      </g>
     </g>
    </g>
    <g id="xtick_2">
     <g id="line2d_2">
      <g>
       <use style="stroke:#000000;stroke-width:0.8;" x="142.450565" xlink:href="#m053135a318" y="307.584"/>
      </g>
     </g>
     <g id="text_2">
      <!-- 0.0005 -->
      <defs>
       <path d="M 10.796875 72.90625 
L 49.515625 72.90625 
L 49.515625 64.59375 
L 19.828125 64.59375 
L 19.828125 46.734375 
Q 21.96875 47.46875 24.109375 47.828125 
Q 26.265625 48.1875 28.421875 48.1875 
Q 40.625 48.1875 47.75 41.5 
Q 54.890625 34.8125 54.890625 23.390625 
Q 54.890625 11.625 47.5625 5.09375 
Q 40.234375 -1.421875 26.90625 -1.421875 
Q 22.3125 -1.421875 17.546875 -0.640625 
Q 12.796875 0.140625 7.71875 1.703125 
L 7.71875 11.625 
Q 12.109375 9.234375 16.796875 8.0625 
Q 21.484375 6.890625 26.703125 6.890625 
Q 35.15625 6.890625 40.078125 11.328125 
Q 45.015625 15.765625 45.015625 23.390625 
Q 45.015625 31 40.078125 35.4375 
Q 35.15625 39.890625 26.703125 39.890625 
Q 22.75 39.890625 18.8125 39.015625 
Q 14.890625 38.140625 10.796875 36.28125 
z
" id="DejaVuSans-53"/>
      </defs>
      <g transform="translate(124.955252 322.182437)scale(0.1 -0.1)">
       <use xlink:href="#DejaVuSans-48"/>
       <use x="63.623047" xlink:href="#DejaVuSans-46"/>
       <use x="95.410156" xlink:href="#DejaVuSans-48"/>
       <use x="159.033203" xlink:href="#DejaVuSans-48"/>
       <use x="222.65625" xlink:href="#DejaVuSans-48"/>
       <use x="286.279297" xlink:href="#DejaVuSans-53"/>
      </g>
     </g>
    </g>
    <g id="xtick_3">
     <g id="line2d_3">
      <g>
       <use style="stroke:#000000;stroke-width:0.8;" x="191.609613" xlink:href="#m053135a318" y="307.584"/>
      </g>
     </g>
     <g id="text_3">
      <!-- 0.0010 -->
      <defs>
       <path d="M 12.40625 8.296875 
L 28.515625 8.296875 
L 28.515625 63.921875 
L 10.984375 60.40625 
L 10.984375 69.390625 
L 28.421875 72.90625 
L 38.28125 72.90625 
L 38.28125 8.296875 
L 54.390625 8.296875 
L 54.390625 0 
L 12.40625 0 
z
" id="DejaVuSans-49"/>
      </defs>
      <g transform="translate(174.1143 322.182437)scale(0.1 -0.1)">
       <use xlink:href="#DejaVuSans-48"/>
       <use x="63.623047" xlink:href="#DejaVuSans-46"/>
       <use x="95.410156" xlink:href="#DejaVuSans-48"/>
       <use x="159.033203" xlink:href="#DejaVuSans-48"/>
       <use x="222.65625" xlink:href="#DejaVuSans-49"/>
       <use x="286.279297" xlink:href="#DejaVuSans-48"/>
      </g>
     </g>
    </g>
    <g id="xtick_4">
     <g id="line2d_4">
      <g>
       <use style="stroke:#000000;stroke-width:0.8;" x="240.768661" xlink:href="#m053135a318" y="307.584"/>
      </g>
     </g>
     <g id="text_4">
      <!-- 0.0015 -->
      <g transform="translate(223.273348 322.182437)scale(0.1 -0.1)">
       <use xlink:href="#DejaVuSans-48"/>
       <use x="63.623047" xlink:href="#DejaVuSans-46"/>
       <use x="95.410156" xlink:href="#DejaVuSans-48"/>
       <use x="159.033203" xlink:href="#DejaVuSans-48"/>
       <use x="222.65625" xlink:href="#DejaVuSans-49"/>
       <use x="286.279297" xlink:href="#DejaVuSans-53"/>
      </g>
     </g>
    </g>
    <g id="xtick_5">
     <g id="line2d_5">
      <g>
       <use style="stroke:#000000;stroke-width:0.8;" x="289.927709" xlink:href="#m053135a318" y="307.584"/>
      </g>
     </g>
     <g id="text_5">
      <!-- 0.0020 -->
      <defs>
       <path d="M 19.1875 8.296875 
L 53.609375 8.296875 
L 53.609375 0 
L 7.328125 0 
L 7.328125 8.296875 
Q 12.9375 14.109375 22.625 23.890625 
Q 32.328125 33.6875 34.8125 36.53125 
Q 39.546875 41.84375 41.421875 45.53125 
Q 43.3125 49.21875 43.3125 52.78125 
Q 43.3125 58.59375 39.234375 62.25 
Q 35.15625 65.921875 28.609375 65.921875 
Q 23.96875 65.921875 18.8125 64.3125 
Q 13.671875 62.703125 7.8125 59.421875 
L 7.8125 69.390625 
Q 13.765625 71.78125 18.9375 73 
Q 24.125 74.21875 28.421875 74.21875 
Q 39.75 74.21875 46.484375 68.546875 
Q 53.21875 62.890625 53.21875 53.421875 
Q 53.21875 48.921875 51.53125 44.890625 
Q 49.859375 40.875 45.40625 35.40625 
Q 44.1875 33.984375 37.640625 27.21875 
Q 31.109375 20.453125 19.1875 8.296875 
z
" id="DejaVuSans-50"/>
      </defs>
      <g transform="translate(272.432396 322.182437)scale(0.1 -0.1)">
       <use xlink:href="#DejaVuSans-48"/>
       <use x="63.623047" xlink:href="#DejaVuSans-46"/>
       <use x="95.410156" xlink:href="#DejaVuSans-48"/>
       <use x="159.033203" xlink:href="#DejaVuSans-48"/>
       <use x="222.65625" xlink:href="#DejaVuSans-50"/>
       <use x="286.279297" xlink:href="#DejaVuSans-48"/>
      </g>
     </g>
    </g>
    <g id="xtick_6">
     <g id="line2d_6">
      <g>
       <use style="stroke:#000000;stroke-width:0.8;" x="339.086757" xlink:href="#m053135a318" y="307.584"/>
      </g>
     </g>
     <g id="text_6">
      <!-- 0.0025 -->
      <g transform="translate(321.591444 322.182437)scale(0.1 -0.1)">
       <use xlink:href="#DejaVuSans-48"/>
       <use x="63.623047" xlink:href="#DejaVuSans-46"/>
       <use x="95.410156" xlink:href="#DejaVuSans-48"/>
       <use x="159.033203" xlink:href="#DejaVuSans-48"/>
       <use x="222.65625" xlink:href="#DejaVuSans-50"/>
       <use x="286.279297" xlink:href="#DejaVuSans-53"/>
      </g>
     </g>
    </g>
    <g id="xtick_7">
     <g id="line2d_7">
      <g>
       <use style="stroke:#000000;stroke-width:0.8;" x="388.245804" xlink:href="#m053135a318" y="307.584"/>
      </g>
     </g>
     <g id="text_7">
      <!-- 0.0030 -->
      <defs>
       <path d="M 40.578125 39.3125 
Q 47.65625 37.796875 51.625 33 
Q 55.609375 28.21875 55.609375 21.1875 
Q 55.609375 10.40625 48.1875 4.484375 
Q 40.765625 -1.421875 27.09375 -1.421875 
Q 22.515625 -1.421875 17.65625 -0.515625 
Q 12.796875 0.390625 7.625 2.203125 
L 7.625 11.71875 
Q 11.71875 9.328125 16.59375 8.109375 
Q 21.484375 6.890625 26.8125 6.890625 
Q 36.078125 6.890625 40.9375 10.546875 
Q 45.796875 14.203125 45.796875 21.1875 
Q 45.796875 27.640625 41.28125 31.265625 
Q 36.765625 34.90625 28.71875 34.90625 
L 20.21875 34.90625 
L 20.21875 43.015625 
L 29.109375 43.015625 
Q 36.375 43.015625 40.234375 45.921875 
Q 44.09375 48.828125 44.09375 54.296875 
Q 44.09375 59.90625 40.109375 62.90625 
Q 36.140625 65.921875 28.71875 65.921875 
Q 24.65625 65.921875 20.015625 65.03125 
Q 15.375 64.15625 9.8125 62.3125 
L 9.8125 71.09375 
Q 15.4375 72.65625 20.34375 73.4375 
Q 25.25 74.21875 29.59375 74.21875 
Q 40.828125 74.21875 47.359375 69.109375 
Q 53.90625 64.015625 53.90625 55.328125 
Q 53.90625 49.265625 50.4375 45.09375 
Q 46.96875 40.921875 40.578125 39.3125 
z
" id="DejaVuSans-51"/>
      </defs>
      <g transform="translate(370.750492 322.182437)scale(0.1 -0.1)">
       <use xlink:href="#DejaVuSans-48"/>
       <use x="63.623047" xlink:href="#DejaVuSans-46"/>
       <use x="95.410156" xlink:href="#DejaVuSans-48"/>
       <use x="159.033203" xlink:href="#DejaVuSans-48"/>
       <use x="222.65625" xlink:href="#DejaVuSans-51"/>
       <use x="286.279297" xlink:href="#DejaVuSans-48"/>
      </g>
     </g>
    </g>
    <g id="text_8">
     <!-- time -->
     <defs>
      <path d="M 18.3125 70.21875 
L 18.3125 54.6875 
L 36.8125 54.6875 
L 36.8125 47.703125 
L 18.3125 47.703125 
L 18.3125 18.015625 
Q 18.3125 11.328125 20.140625 9.421875 
Q 21.96875 7.515625 27.59375 7.515625 
L 36.8125 7.515625 
L 36.8125 0 
L 27.59375 0 
Q 17.1875 0 13.234375 3.875 
Q 9.28125 7.765625 9.28125 18.015625 
L 9.28125 47.703125 
L 2.6875 47.703125 
L 2.6875 54.6875 
L 9.28125 54.6875 
L 9.28125 70.21875 
z
" id="DejaVuSans-116"/>
      <path d="M 9.421875 54.6875 
L 18.40625 54.6875 
L 18.40625 0 
L 9.421875 0 
z
M 9.421875 75.984375 
L 18.40625 75.984375 
L 18.40625 64.59375 
L 9.421875 64.59375 
z
" id="DejaVuSans-105"/>
      <path d="M 52 44.1875 
Q 55.375 50.25 60.0625 53.125 
Q 64.75 56 71.09375 56 
Q 79.640625 56 84.28125 50.015625 
Q 88.921875 44.046875 88.921875 33.015625 
L 88.921875 0 
L 79.890625 0 
L 79.890625 32.71875 
Q 79.890625 40.578125 77.09375 44.375 
Q 74.3125 48.1875 68.609375 48.1875 
Q 61.625 48.1875 57.5625 43.546875 
Q 53.515625 38.921875 53.515625 30.90625 
L 53.515625 0 
L 44.484375 0 
L 44.484375 32.71875 
Q 44.484375 40.625 41.703125 44.40625 
Q 38.921875 48.1875 33.109375 48.1875 
Q 26.21875 48.1875 22.15625 43.53125 
Q 18.109375 38.875 18.109375 30.90625 
L 18.109375 0 
L 9.078125 0 
L 9.078125 54.6875 
L 18.109375 54.6875 
L 18.109375 46.1875 
Q 21.1875 51.21875 25.484375 53.609375 
Q 29.78125 56 35.6875 56 
Q 41.65625 56 45.828125 52.96875 
Q 50 49.953125 52 44.1875 
z
" id="DejaVuSans-109"/>
      <path d="M 56.203125 29.59375 
L 56.203125 25.203125 
L 14.890625 25.203125 
Q 15.484375 15.921875 20.484375 11.0625 
Q 25.484375 6.203125 34.421875 6.203125 
Q 39.59375 6.203125 44.453125 7.46875 
Q 49.3125 8.734375 54.109375 11.28125 
L 54.109375 2.78125 
Q 49.265625 0.734375 44.1875 -0.34375 
Q 39.109375 -1.421875 33.890625 -1.421875 
Q 20.796875 -1.421875 13.15625 6.1875 
Q 5.515625 13.8125 5.515625 26.8125 
Q 5.515625 40.234375 12.765625 48.109375 
Q 20.015625 56 32.328125 56 
Q 43.359375 56 49.78125 48.890625 
Q 56.203125 41.796875 56.203125 29.59375 
z
M 47.21875 32.234375 
Q 47.125 39.59375 43.09375 43.984375 
Q 39.0625 48.390625 32.421875 48.390625 
Q 24.90625 48.390625 20.390625 44.140625 
Q 15.875 39.890625 15.1875 32.171875 
z
" id="DejaVuSans-101"/>
     </defs>
     <g transform="translate(224.863906 335.860562)scale(0.1 -0.1)">
      <use xlink:href="#DejaVuSans-116"/>
      <use x="39.208984" xlink:href="#DejaVuSans-105"/>
      <use x="66.992188" xlink:href="#DejaVuSans-109"/>
      <use x="164.404297" xlink:href="#DejaVuSans-101"/>
     </g>
    </g>
   </g>
   <g id="matplotlib.axis_2">
    <g id="ytick_1">
     <g id="line2d_8">
      <defs>
       <path d="M 0 0 
L -3.5 0 
" id="mc0728f0df8" style="stroke:#000000;stroke-width:0.8;"/>
      </defs>
      <g>
       <use style="stroke:#000000;stroke-width:0.8;" x="57.6" xlink:href="#mc0728f0df8" y="266.200531"/>
      </g>
     </g>
     <g id="text_9">
      <!-- −1.0 -->
      <defs>
       <path d="M 10.59375 35.5 
L 73.1875 35.5 
L 73.1875 27.203125 
L 10.59375 27.203125 
z
" id="DejaVuSans-8722"/>
      </defs>
      <g transform="translate(26.317187 269.99975)scale(0.1 -0.1)">
       <use xlink:href="#DejaVuSans-8722"/>
       <use x="83.789062" xlink:href="#DejaVuSans-49"/>
       <use x="147.412109" xlink:href="#DejaVuSans-46"/>
       <use x="179.199219" xlink:href="#DejaVuSans-48"/>
      </g>
     </g>
    </g>
    <g id="ytick_2">
     <g id="line2d_9">
      <g>
       <use style="stroke:#000000;stroke-width:0.8;" x="57.6" xlink:href="#mc0728f0df8" y="220.364266"/>
      </g>
     </g>
     <g id="text_10">
      <!-- −0.5 -->
      <g transform="translate(26.317187 224.163484)scale(0.1 -0.1)">
       <use xlink:href="#DejaVuSans-8722"/>
       <use x="83.789062" xlink:href="#DejaVuSans-48"/>
       <use x="147.412109" xlink:href="#DejaVuSans-46"/>
       <use x="179.199219" xlink:href="#DejaVuSans-53"/>
      </g>
     </g>
    </g>
    <g id="ytick_3">
     <g id="line2d_10">
      <g>
       <use style="stroke:#000000;stroke-width:0.8;" x="57.6" xlink:href="#mc0728f0df8" y="174.528"/>
      </g>
     </g>
     <g id="text_11">
      <!-- 0.0 -->
      <g transform="translate(34.696875 178.327219)scale(0.1 -0.1)">
       <use xlink:href="#DejaVuSans-48"/>
       <use x="63.623047" xlink:href="#DejaVuSans-46"/>
       <use x="95.410156" xlink:href="#DejaVuSans-48"/>
      </g>
     </g>
    </g>
    <g id="ytick_4">
     <g id="line2d_11">
      <g>
       <use style="stroke:#000000;stroke-width:0.8;" x="57.6" xlink:href="#mc0728f0df8" y="128.691734"/>
      </g>
     </g>
     <g id="text_12">
      <!-- 0.5 -->
      <g transform="translate(34.696875 132.490953)scale(0.1 -0.1)">
       <use xlink:href="#DejaVuSans-48"/>
       <use x="63.623047" xlink:href="#DejaVuSans-46"/>
       <use x="95.410156" xlink:href="#DejaVuSans-53"/>
      </g>
     </g>
    </g>
    <g id="ytick_5">
     <g id="line2d_12">
      <g>
       <use style="stroke:#000000;stroke-width:0.8;" x="57.6" xlink:href="#mc0728f0df8" y="82.855469"/>
      </g>
     </g>
     <g id="text_13">
      <!-- 1.0 -->
      <g transform="translate(34.696875 86.654687)scale(0.1 -0.1)">
       <use xlink:href="#DejaVuSans-49"/>
       <use x="63.623047" xlink:href="#DejaVuSans-46"/>
       <use x="95.410156" xlink:href="#DejaVuSans-48"/>
      </g>
     </g>
    </g>
    <g id="text_14">
     <!-- signal -->
     <defs>
      <path d="M 44.28125 53.078125 
L 44.28125 44.578125 
Q 40.484375 46.53125 36.375 47.5 
Q 32.28125 48.484375 27.875 48.484375 
Q 21.1875 48.484375 17.84375 46.4375 
Q 14.5 44.390625 14.5 40.28125 
Q 14.5 37.15625 16.890625 35.375 
Q 19.28125 33.59375 26.515625 31.984375 
L 29.59375 31.296875 
Q 39.15625 29.25 43.1875 25.515625 
Q 47.21875 21.78125 47.21875 15.09375 
Q 47.21875 7.46875 41.1875 3.015625 
Q 35.15625 -1.421875 24.609375 -1.421875 
Q 20.21875 -1.421875 15.453125 -0.5625 
Q 10.6875 0.296875 5.421875 2 
L 5.421875 11.28125 
Q 10.40625 8.6875 15.234375 7.390625 
Q 20.0625 6.109375 24.8125 6.109375 
Q 31.15625 6.109375 34.5625 8.28125 
Q 37.984375 10.453125 37.984375 14.40625 
Q 37.984375 18.0625 35.515625 20.015625 
Q 33.0625 21.96875 24.703125 23.78125 
L 21.578125 24.515625 
Q 13.234375 26.265625 9.515625 29.90625 
Q 5.8125 33.546875 5.8125 39.890625 
Q 5.8125 47.609375 11.28125 51.796875 
Q 16.75 56 26.8125 56 
Q 31.78125 56 36.171875 55.265625 
Q 40.578125 54.546875 44.28125 53.078125 
z
" id="DejaVuSans-115"/>
      <path d="M 45.40625 27.984375 
Q 45.40625 37.75 41.375 43.109375 
Q 37.359375 48.484375 30.078125 48.484375 
Q 22.859375 48.484375 18.828125 43.109375 
Q 14.796875 37.75 14.796875 27.984375 
Q 14.796875 18.265625 18.828125 12.890625 
Q 22.859375 7.515625 30.078125 7.515625 
Q 37.359375 7.515625 41.375 12.890625 
Q 45.40625 18.265625 45.40625 27.984375 
z
M 54.390625 6.78125 
Q 54.390625 -7.171875 48.1875 -13.984375 
Q 42 -20.796875 29.203125 -20.796875 
Q 24.46875 -20.796875 20.265625 -20.09375 
Q 16.0625 -19.390625 12.109375 -17.921875 
L 12.109375 -9.1875 
Q 16.0625 -11.328125 19.921875 -12.34375 
Q 23.78125 -13.375 27.78125 -13.375 
Q 36.625 -13.375 41.015625 -8.765625 
Q 45.40625 -4.15625 45.40625 5.171875 
L 45.40625 9.625 
Q 42.625 4.78125 38.28125 2.390625 
Q 33.9375 0 27.875 0 
Q 17.828125 0 11.671875 7.65625 
Q 5.515625 15.328125 5.515625 27.984375 
Q 5.515625 40.671875 11.671875 48.328125 
Q 17.828125 56 27.875 56 
Q 33.9375 56 38.28125 53.609375 
Q 42.625 51.21875 45.40625 46.390625 
L 45.40625 54.6875 
L 54.390625 54.6875 
z
" id="DejaVuSans-103"/>
      <path d="M 54.890625 33.015625 
L 54.890625 0 
L 45.90625 0 
L 45.90625 32.71875 
Q 45.90625 40.484375 42.875 44.328125 
Q 39.84375 48.1875 33.796875 48.1875 
Q 26.515625 48.1875 22.3125 43.546875 
Q 18.109375 38.921875 18.109375 30.90625 
L 18.109375 0 
L 9.078125 0 
L 9.078125 54.6875 
L 18.109375 54.6875 
L 18.109375 46.1875 
Q 21.34375 51.125 25.703125 53.5625 
Q 30.078125 56 35.796875 56 
Q 45.21875 56 50.046875 50.171875 
Q 54.890625 44.34375 54.890625 33.015625 
z
" id="DejaVuSans-110"/>
      <path d="M 34.28125 27.484375 
Q 23.390625 27.484375 19.1875 25 
Q 14.984375 22.515625 14.984375 16.5 
Q 14.984375 11.71875 18.140625 8.90625 
Q 21.296875 6.109375 26.703125 6.109375 
Q 34.1875 6.109375 38.703125 11.40625 
Q 43.21875 16.703125 43.21875 25.484375 
L 43.21875 27.484375 
z
M 52.203125 31.203125 
L 52.203125 0 
L 43.21875 0 
L 43.21875 8.296875 
Q 40.140625 3.328125 35.546875 0.953125 
Q 30.953125 -1.421875 24.3125 -1.421875 
Q 15.921875 -1.421875 10.953125 3.296875 
Q 6 8.015625 6 15.921875 
Q 6 25.140625 12.171875 29.828125 
Q 18.359375 34.515625 30.609375 34.515625 
L 43.21875 34.515625 
L 43.21875 35.40625 
Q 43.21875 41.609375 39.140625 45 
Q 35.0625 48.390625 27.6875 48.390625 
Q 23 48.390625 18.546875 47.265625 
Q 14.109375 46.140625 10.015625 43.890625 
L 10.015625 52.203125 
Q 14.9375 54.109375 19.578125 55.046875 
Q 24.21875 56 28.609375 56 
Q 40.484375 56 46.34375 49.84375 
Q 52.203125 43.703125 52.203125 31.203125 
z
" id="DejaVuSans-97"/>
      <path d="M 9.421875 75.984375 
L 18.40625 75.984375 
L 18.40625 0 
L 9.421875 0 
z
" id="DejaVuSans-108"/>
     </defs>
     <g transform="translate(20.2375 189.317844)rotate(-90)scale(0.1 -0.1)">
      <use xlink:href="#DejaVuSans-115"/>
      <use x="52.099609" xlink:href="#DejaVuSans-105"/>
      <use x="79.882812" xlink:href="#DejaVuSans-103"/>
      <use x="143.359375" xlink:href="#DejaVuSans-110"/>
      <use x="206.738281" xlink:href="#DejaVuSans-97"/>
      <use x="268.017578" xlink:href="#DejaVuSans-108"/>
     </g>
    </g>
   </g>
   <g id="line2d_13">
    <path clip-path="url(#pb46ef17421)" d="M 93.291517 174.528 
L 95.339811 120.215146 
L 97.388104 183.212537 
L 99.436398 156.987221 
L 101.484692 82.855469 
L 103.532985 136.262078 
L 105.581279 142.116866 
L 107.629573 59.452103 
L 111.72616 132.180812 
L 113.774454 53.568 
L 115.822747 66.09896 
L 117.871041 128.691734 
L 119.919335 66.09896 
L 121.967628 53.568 
L 124.015922 132.180812 
L 128.112509 59.452103 
L 130.160803 142.116866 
L 132.209097 136.262078 
L 134.25739 82.855469 
L 136.305684 156.987221 
L 138.353978 183.212537 
L 140.402271 120.215146 
L 144.498859 228.840854 
L 146.547152 165.843463 
L 148.595446 192.068779 
L 150.64374 266.200531 
L 152.692033 212.793922 
L 154.740327 206.939134 
L 156.788621 289.603897 
L 160.885208 216.875188 
L 162.933502 295.488 
L 164.981795 282.95704 
L 167.030089 220.364266 
L 169.078383 282.95704 
L 171.126676 295.488 
L 173.17497 216.875188 
L 177.271557 289.603897 
L 179.319851 206.939134 
L 181.368145 212.793922 
L 183.416438 266.200531 
L 185.464732 192.068779 
L 187.513026 165.843463 
L 189.561319 228.840854 
L 193.657907 120.215146 
L 195.7062 183.212537 
L 197.754494 156.987221 
L 199.802787 82.855469 
L 201.851081 136.262078 
L 203.899375 142.116866 
L 205.947668 59.452103 
L 210.044256 132.180812 
L 212.092549 53.568 
L 214.140843 66.09896 
L 216.189137 128.691734 
L 218.23743 66.09896 
L 220.285724 53.568 
L 222.334018 132.180812 
L 226.430605 59.452103 
L 228.478899 142.116866 
L 230.527192 136.262078 
L 232.575486 82.855469 
L 234.62378 156.987221 
L 236.672073 183.212537 
L 238.720367 120.215146 
L 242.816954 228.840854 
L 244.865248 165.843463 
L 246.913542 192.068779 
L 248.961835 266.200531 
L 251.010129 212.793922 
L 253.058423 206.939134 
L 255.106716 289.603897 
L 259.203304 216.875188 
L 261.251597 295.488 
L 263.299891 282.95704 
L 265.348185 220.364266 
L 267.396478 282.95704 
L 269.444772 295.488 
L 271.493066 216.875188 
L 275.589653 289.603897 
L 277.637947 206.939134 
L 279.68624 212.793922 
L 281.734534 266.200531 
L 283.782828 192.068779 
L 285.831121 165.843463 
L 287.879415 228.840854 
L 291.976002 120.215146 
L 294.024296 183.212537 
L 296.07259 156.987221 
L 298.120883 82.855469 
L 300.169177 136.262078 
L 302.217471 142.116866 
L 304.265764 59.452103 
L 308.362352 132.180812 
L 310.410645 53.568 
L 312.458939 66.09896 
L 314.507233 128.691734 
L 316.555526 66.09896 
L 318.60382 53.568 
L 320.652114 132.180812 
L 324.748701 59.452103 
L 326.796995 142.116866 
L 328.845288 136.262078 
L 330.893582 82.855469 
L 332.941876 156.987221 
L 334.990169 183.212537 
L 337.038463 120.215146 
L 341.13505 228.840854 
L 343.183344 165.843463 
L 345.231638 192.068779 
L 347.279931 266.200531 
L 349.328225 212.793922 
L 351.376518 206.939134 
L 353.424812 289.603897 
L 357.521399 216.875188 
L 359.569693 295.488 
L 361.617987 282.95704 
L 363.66628 220.364266 
L 365.714574 282.95704 
L 367.762868 295.488 
L 369.811161 216.875188 
L 373.907749 289.603897 
L 375.956042 206.939134 
L 378.004336 212.793922 
L 380.05263 266.200531 
L 382.100923 192.068779 
L 384.149217 165.843463 
L 386.197511 228.840854 
L 390.294098 120.215146 
L 392.342392 183.212537 
L 394.390685 156.987221 
L 396.438979 82.855469 
L 398.487273 136.262078 
L 398.487273 136.262078 
" style="fill:none;stroke:#1f77b4;stroke-linecap:square;stroke-width:1.5;"/>
   </g>
   <g id="line2d_14">
    <path clip-path="url(#pb46ef17421)" d="M 93.291517 174.528 
L 95.339811 174.37741 
L 99.436398 174.515054 
L 101.484692 174.811605 
L 103.532985 175.410811 
L 105.581279 175.607522 
L 107.629573 174.559574 
L 109.677866 172.075196 
L 111.72616 167.898524 
L 113.774454 161.787937 
L 115.822747 154.105872 
L 117.871041 145.099483 
L 124.015922 114.265867 
L 126.064216 105.32764 
L 128.112509 97.808177 
L 130.160803 91.963564 
L 132.209097 87.437314 
L 134.25739 84.19011 
L 136.305684 82.792808 
L 138.353978 82.792808 
L 140.402271 84.19011 
L 142.450565 87.437314 
L 144.498859 92.114155 
L 146.547152 97.943235 
L 148.595446 105.340586 
L 150.64374 113.982262 
L 152.692033 123.355696 
L 154.740327 133.777015 
L 158.836914 156.558676 
L 169.078383 215.278985 
L 171.126676 225.700304 
L 173.17497 235.073738 
L 175.223264 243.715414 
L 177.271557 251.112765 
L 179.319851 256.941845 
L 181.368145 261.618686 
L 183.416438 264.86589 
L 185.464732 266.263192 
L 187.513026 266.263192 
L 189.561319 264.86589 
L 191.609613 261.618686 
L 193.657907 256.941845 
L 195.7062 251.112765 
L 197.754494 243.715414 
L 199.802787 235.073738 
L 201.851081 225.700304 
L 203.899375 215.278985 
L 207.995962 192.497324 
L 218.23743 133.777015 
L 220.285724 123.355696 
L 222.334018 113.982262 
L 224.382311 105.340586 
L 226.430605 97.943235 
L 228.478899 92.114155 
L 230.527192 87.437314 
L 232.575486 84.19011 
L 234.62378 82.792808 
L 236.672073 82.792808 
L 238.720367 84.19011 
L 240.768661 87.437314 
L 242.816954 92.114155 
L 244.865248 97.943235 
L 246.913542 105.340586 
L 248.961835 113.982262 
L 251.010129 123.355696 
L 253.058423 133.777015 
L 257.15501 156.558676 
L 267.396478 215.278985 
L 269.444772 225.700304 
L 271.493066 235.073738 
L 273.541359 243.715414 
L 275.589653 251.112765 
L 277.637947 256.941845 
L 279.68624 261.618686 
L 281.734534 264.86589 
L 283.782828 266.263192 
L 285.831121 266.263192 
L 287.879415 264.86589 
L 289.927709 261.618686 
L 291.976002 256.941845 
L 294.024296 251.112765 
L 296.07259 243.715414 
L 298.120883 235.073738 
L 300.169177 225.700304 
L 302.217471 215.278985 
L 306.314058 192.497324 
L 316.555526 133.777015 
L 318.60382 123.355696 
L 320.652114 113.982262 
L 322.700407 105.340586 
L 324.748701 97.943235 
L 326.796995 92.114155 
L 328.845288 87.437314 
L 330.893582 84.19011 
L 332.941876 82.792808 
L 334.990169 82.792808 
L 337.038463 84.19011 
L 339.086757 87.437314 
L 341.13505 92.114155 
L 343.183344 97.943235 
L 345.231638 105.340586 
L 347.279931 113.982262 
L 349.328225 123.355696 
L 351.376518 133.777015 
L 355.473106 156.558676 
L 365.714574 215.278985 
L 367.762868 225.700304 
L 369.811161 235.073738 
L 371.859455 243.715414 
L 373.907749 251.112765 
L 375.956042 256.941845 
L 378.004336 261.618686 
L 380.05263 264.86589 
L 382.100923 266.263192 
L 384.149217 266.263192 
L 386.197511 264.86589 
L 388.245804 261.618686 
L 390.294098 256.941845 
L 392.342392 251.112765 
L 394.390685 243.715414 
L 396.438979 235.073738 
L 398.487273 225.700304 
L 398.487273 225.700304 
" style="fill:none;stroke:#ff7f0e;stroke-linecap:square;stroke-width:2;"/>
   </g>
   <g id="line2d_15">
    <path clip-path="url(#pb46ef17421)" d="M 93.291517 156.338554 
L 97.388104 180.059045 
L 99.436398 192.700924 
L 103.532985 219.998911 
L 105.581279 230.171335 
L 107.629573 232.592929 
L 109.677866 224.948151 
L 111.72616 207.600193 
L 115.822747 162.244891 
L 117.871041 144.174814 
L 119.919335 130.914281 
L 121.967628 121.338447 
L 126.064216 105.507001 
L 128.112509 98.235214 
L 130.160803 92.282629 
L 132.209097 87.437314 
L 134.25739 84.19011 
L 136.305684 82.792808 
L 138.353978 82.792808 
L 140.402271 84.19011 
L 142.450565 87.437314 
L 144.498859 92.114155 
L 146.547152 97.943235 
L 148.595446 105.340586 
L 150.64374 113.982262 
L 152.692033 123.355696 
L 154.740327 133.777015 
L 158.836914 156.558676 
L 169.078383 215.278985 
L 171.126676 225.700304 
L 173.17497 235.073738 
L 175.223264 243.715414 
L 177.271557 251.112765 
L 179.319851 256.941845 
L 181.368145 261.618686 
L 183.416438 264.86589 
L 185.464732 266.263192 
L 187.513026 266.263192 
L 189.561319 264.86589 
L 191.609613 261.618686 
L 193.657907 256.941845 
L 195.7062 251.112765 
L 197.754494 243.715414 
L 199.802787 235.073738 
L 201.851081 225.700304 
L 203.899375 215.278985 
L 207.995962 192.497324 
L 218.23743 133.777015 
L 220.285724 123.355696 
L 222.334018 113.982262 
L 224.382311 105.340586 
L 226.430605 97.943235 
L 228.478899 92.114155 
L 230.527192 87.437314 
L 232.575486 84.19011 
L 234.62378 82.792808 
L 236.672073 82.792808 
L 238.720367 84.19011 
L 240.768661 87.437314 
L 242.816954 92.114155 
L 244.865248 97.943235 
L 246.913542 105.340586 
L 248.961835 113.982262 
L 251.010129 123.355696 
L 253.058423 133.777015 
L 257.15501 156.558676 
L 267.396478 215.278985 
L 269.444772 225.700304 
L 271.493066 235.073738 
L 273.541359 243.715414 
L 275.589653 251.112765 
L 277.637947 256.941845 
L 279.68624 261.618686 
L 281.734534 264.86589 
L 283.782828 266.263192 
L 285.831121 266.263192 
L 287.879415 264.86589 
L 289.927709 261.618686 
L 291.976002 256.941845 
L 294.024296 251.112765 
L 296.07259 243.715414 
L 298.120883 235.073738 
L 300.169177 225.700304 
L 302.217471 215.278985 
L 306.314058 192.497324 
L 316.555526 133.777015 
L 318.60382 123.355696 
L 320.652114 113.982262 
L 322.700407 105.340586 
L 324.748701 97.943235 
L 326.796995 92.114155 
L 328.845288 87.437314 
L 330.893582 84.19011 
L 332.941876 82.792808 
L 334.990169 82.792808 
L 337.038463 84.19011 
L 339.086757 87.437314 
L 341.13505 92.114155 
L 343.183344 97.943235 
L 345.231638 105.340586 
L 347.279931 113.982262 
L 349.328225 123.355696 
L 351.376518 133.777015 
L 355.473106 156.558676 
L 365.714574 215.278985 
L 367.762868 225.700304 
L 369.811161 235.073738 
L 371.859455 243.715414 
L 373.907749 251.112765 
L 375.956042 256.941845 
L 378.004336 261.618686 
L 380.05263 264.86589 
L 382.100923 266.263192 
L 384.149217 266.263192 
L 386.197511 264.86589 
L 388.245804 261.618686 
L 390.294098 256.941845 
L 392.342392 251.112765 
L 394.390685 243.715414 
L 396.438979 235.073738 
L 398.487273 225.700304 
L 398.487273 225.700304 
" style="fill:none;stroke:#000000;stroke-dasharray:5.55,2.4;stroke-dashoffset:0;stroke-width:1.5;"/>
   </g>
   <g id="line2d_16">
    <path clip-path="url(#pb46ef17421)" d="M 73.832727 174.528 
L 75.881021 174.37741 
L 79.977608 174.515054 
L 82.025902 174.811605 
L 84.074196 175.410811 
L 86.122489 175.607522 
L 88.170783 174.559574 
L 90.219077 172.075196 
L 92.26737 167.898524 
L 94.315664 161.787937 
L 96.363958 154.105872 
L 98.412251 145.099483 
L 104.557132 114.265867 
L 106.605426 105.32764 
L 108.65372 97.808177 
L 110.702013 91.963564 
L 112.750307 87.437314 
L 114.798601 84.19011 
L 116.846894 82.792808 
L 118.895188 82.792808 
L 120.943482 84.19011 
L 122.991775 87.437314 
L 125.040069 92.114155 
L 127.088362 97.943235 
L 129.136656 105.340586 
L 131.18495 113.982262 
L 133.233243 123.355696 
L 135.281537 133.777015 
L 139.378124 156.558676 
L 149.619593 215.278985 
L 151.667886 225.700304 
L 153.71618 235.073738 
L 155.764474 243.715414 
L 157.812767 251.112765 
L 159.861061 256.941845 
L 161.909355 261.618686 
L 163.957648 264.86589 
L 166.005942 266.263192 
L 168.054236 266.263192 
L 170.102529 264.86589 
L 172.150823 261.618686 
L 174.199117 256.941845 
L 176.24741 251.112765 
L 178.295704 243.715414 
L 180.343998 235.073738 
L 182.392291 225.700304 
L 184.440585 215.278985 
L 188.537172 192.497324 
L 198.778641 133.777015 
L 200.826934 123.355696 
L 202.875228 113.982262 
L 204.923522 105.340586 
L 206.971815 97.943235 
L 209.020109 92.114155 
L 211.068403 87.437314 
L 213.116696 84.19011 
L 215.16499 82.792808 
L 217.213284 82.792808 
L 219.261577 84.19011 
L 221.309871 87.437314 
L 223.358165 92.114155 
L 225.406458 97.943235 
L 227.454752 105.340586 
L 229.503046 113.982262 
L 231.551339 123.355696 
L 233.599633 133.777015 
L 237.69622 156.558676 
L 247.937689 215.278985 
L 249.985982 225.700304 
L 252.034276 235.073738 
L 254.08257 243.715414 
L 256.130863 251.112765 
L 258.179157 256.941845 
L 260.227451 261.618686 
L 262.275744 264.86589 
L 264.324038 266.263192 
L 266.372332 266.263192 
L 268.420625 264.86589 
L 270.468919 261.618686 
L 272.517213 256.941845 
L 274.565506 251.112765 
L 276.6138 243.715414 
L 278.662093 235.073738 
L 280.710387 225.700304 
L 282.758681 215.278985 
L 286.855268 192.497324 
L 297.096736 133.777015 
L 299.14503 123.355696 
L 301.193324 113.982262 
L 303.241617 105.340586 
L 305.289911 97.943235 
L 307.338205 92.114155 
L 309.386498 87.437314 
L 311.434792 84.19011 
L 313.483086 82.792808 
L 315.531379 82.792808 
L 317.579673 84.19011 
L 319.627967 87.437314 
L 321.67626 92.114155 
L 323.724554 97.943235 
L 325.772848 105.340586 
L 327.821141 113.982262 
L 329.869435 123.355696 
L 331.917729 133.777015 
L 336.014316 156.558676 
L 346.255784 215.278985 
L 348.304078 225.700304 
L 350.352372 235.073738 
L 352.400665 243.715414 
L 354.448959 251.112765 
L 356.497253 256.941845 
L 358.545546 261.618686 
L 360.59384 264.86589 
L 362.642134 266.263192 
L 364.690427 266.263192 
L 366.738721 264.86589 
L 368.787015 261.618686 
L 370.835308 256.941845 
L 372.883602 251.112765 
L 374.931896 243.715414 
L 376.980189 235.073738 
L 379.028483 225.700304 
L 379.028483 225.700304 
" style="fill:none;stroke:#2ca02c;stroke-linecap:square;stroke-width:2;"/>
   </g>
   <g id="patch_3">
    <path d="M 57.6 307.584 
L 57.6 41.472 
" style="fill:none;stroke:#000000;stroke-linecap:square;stroke-linejoin:miter;stroke-width:0.8;"/>
   </g>
   <g id="patch_4">
    <path d="M 414.72 307.584 
L 414.72 41.472 
" style="fill:none;stroke:#000000;stroke-linecap:square;stroke-linejoin:miter;stroke-width:0.8;"/>
   </g>
   <g id="patch_5">
    <path d="M 57.6 307.584 
L 414.72 307.584 
" style="fill:none;stroke:#000000;stroke-linecap:square;stroke-linejoin:miter;stroke-width:0.8;"/>
   </g>
   <g id="patch_6">
    <path d="M 57.6 41.472 
L 414.72 41.472 
" style="fill:none;stroke:#000000;stroke-linecap:square;stroke-linejoin:miter;stroke-width:0.8;"/>
   </g>
   <g id="text_15">
    <!-- [FIRFilter] Input/Output signal compared to offline filtered signal -->
    <defs>
     <path d="M 8.59375 75.984375 
L 29.296875 75.984375 
L 29.296875 69 
L 17.578125 69 
L 17.578125 -6.203125 
L 29.296875 -6.203125 
L 29.296875 -13.1875 
L 8.59375 -13.1875 
z
" id="DejaVuSans-91"/>
     <path d="M 9.8125 72.90625 
L 51.703125 72.90625 
L 51.703125 64.59375 
L 19.671875 64.59375 
L 19.671875 43.109375 
L 48.578125 43.109375 
L 48.578125 34.8125 
L 19.671875 34.8125 
L 19.671875 0 
L 9.8125 0 
z
" id="DejaVuSans-70"/>
     <path d="M 9.8125 72.90625 
L 19.671875 72.90625 
L 19.671875 0 
L 9.8125 0 
z
" id="DejaVuSans-73"/>
     <path d="M 44.390625 34.1875 
Q 47.5625 33.109375 50.5625 29.59375 
Q 53.5625 26.078125 56.59375 19.921875 
L 66.609375 0 
L 56 0 
L 46.6875 18.703125 
Q 43.0625 26.03125 39.671875 28.421875 
Q 36.28125 30.8125 30.421875 30.8125 
L 19.671875 30.8125 
L 19.671875 0 
L 9.8125 0 
L 9.8125 72.90625 
L 32.078125 72.90625 
Q 44.578125 72.90625 50.734375 67.671875 
Q 56.890625 62.453125 56.890625 51.90625 
Q 56.890625 45.015625 53.6875 40.46875 
Q 50.484375 35.9375 44.390625 34.1875 
z
M 19.671875 64.796875 
L 19.671875 38.921875 
L 32.078125 38.921875 
Q 39.203125 38.921875 42.84375 42.21875 
Q 46.484375 45.515625 46.484375 51.90625 
Q 46.484375 58.296875 42.84375 61.546875 
Q 39.203125 64.796875 32.078125 64.796875 
z
" id="DejaVuSans-82"/>
     <path d="M 41.109375 46.296875 
Q 39.59375 47.171875 37.8125 47.578125 
Q 36.03125 48 33.890625 48 
Q 26.265625 48 22.1875 43.046875 
Q 18.109375 38.09375 18.109375 28.8125 
L 18.109375 0 
L 9.078125 0 
L 9.078125 54.6875 
L 18.109375 54.6875 
L 18.109375 46.1875 
Q 20.953125 51.171875 25.484375 53.578125 
Q 30.03125 56 36.53125 56 
Q 37.453125 56 38.578125 55.875 
Q 39.703125 55.765625 41.0625 55.515625 
z
" id="DejaVuSans-114"/>
     <path d="M 30.421875 75.984375 
L 30.421875 -13.1875 
L 9.71875 -13.1875 
L 9.71875 -6.203125 
L 21.390625 -6.203125 
L 21.390625 69 
L 9.71875 69 
L 9.71875 75.984375 
z
" id="DejaVuSans-93"/>
     <path id="DejaVuSans-32"/>
     <path d="M 18.109375 8.203125 
L 18.109375 -20.796875 
L 9.078125 -20.796875 
L 9.078125 54.6875 
L 18.109375 54.6875 
L 18.109375 46.390625 
Q 20.953125 51.265625 25.265625 53.625 
Q 29.59375 56 35.59375 56 
Q 45.5625 56 51.78125 48.09375 
Q 58.015625 40.1875 58.015625 27.296875 
Q 58.015625 14.40625 51.78125 6.484375 
Q 45.5625 -1.421875 35.59375 -1.421875 
Q 29.59375 -1.421875 25.265625 0.953125 
Q 20.953125 3.328125 18.109375 8.203125 
z
M 48.6875 27.296875 
Q 48.6875 37.203125 44.609375 42.84375 
Q 40.53125 48.484375 33.40625 48.484375 
Q 26.265625 48.484375 22.1875 42.84375 
Q 18.109375 37.203125 18.109375 27.296875 
Q 18.109375 17.390625 22.1875 11.75 
Q 26.265625 6.109375 33.40625 6.109375 
Q 40.53125 6.109375 44.609375 11.75 
Q 48.6875 17.390625 48.6875 27.296875 
z
" id="DejaVuSans-112"/>
     <path d="M 8.5 21.578125 
L 8.5 54.6875 
L 17.484375 54.6875 
L 17.484375 21.921875 
Q 17.484375 14.15625 20.5 10.265625 
Q 23.53125 6.390625 29.59375 6.390625 
Q 36.859375 6.390625 41.078125 11.03125 
Q 45.3125 15.671875 45.3125 23.6875 
L 45.3125 54.6875 
L 54.296875 54.6875 
L 54.296875 0 
L 45.3125 0 
L 45.3125 8.40625 
Q 42.046875 3.421875 37.71875 1 
Q 33.40625 -1.421875 27.6875 -1.421875 
Q 18.265625 -1.421875 13.375 4.4375 
Q 8.5 10.296875 8.5 21.578125 
z
M 31.109375 56 
z
" id="DejaVuSans-117"/>
     <path d="M 25.390625 72.90625 
L 33.6875 72.90625 
L 8.296875 -9.28125 
L 0 -9.28125 
z
" id="DejaVuSans-47"/>
     <path d="M 39.40625 66.21875 
Q 28.65625 66.21875 22.328125 58.203125 
Q 16.015625 50.203125 16.015625 36.375 
Q 16.015625 22.609375 22.328125 14.59375 
Q 28.65625 6.59375 39.40625 6.59375 
Q 50.140625 6.59375 56.421875 14.59375 
Q 62.703125 22.609375 62.703125 36.375 
Q 62.703125 50.203125 56.421875 58.203125 
Q 50.140625 66.21875 39.40625 66.21875 
z
M 39.40625 74.21875 
Q 54.734375 74.21875 63.90625 63.9375 
Q 73.09375 53.65625 73.09375 36.375 
Q 73.09375 19.140625 63.90625 8.859375 
Q 54.734375 -1.421875 39.40625 -1.421875 
Q 24.03125 -1.421875 14.8125 8.828125 
Q 5.609375 19.09375 5.609375 36.375 
Q 5.609375 53.65625 14.8125 63.9375 
Q 24.03125 74.21875 39.40625 74.21875 
z
" id="DejaVuSans-79"/>
     <path d="M 48.78125 52.59375 
L 48.78125 44.1875 
Q 44.96875 46.296875 41.140625 47.34375 
Q 37.3125 48.390625 33.40625 48.390625 
Q 24.65625 48.390625 19.8125 42.84375 
Q 14.984375 37.3125 14.984375 27.296875 
Q 14.984375 17.28125 19.8125 11.734375 
Q 24.65625 6.203125 33.40625 6.203125 
Q 37.3125 6.203125 41.140625 7.25 
Q 44.96875 8.296875 48.78125 10.40625 
L 48.78125 2.09375 
Q 45.015625 0.34375 40.984375 -0.53125 
Q 36.96875 -1.421875 32.421875 -1.421875 
Q 20.0625 -1.421875 12.78125 6.34375 
Q 5.515625 14.109375 5.515625 27.296875 
Q 5.515625 40.671875 12.859375 48.328125 
Q 20.21875 56 33.015625 56 
Q 37.15625 56 41.109375 55.140625 
Q 45.0625 54.296875 48.78125 52.59375 
z
" id="DejaVuSans-99"/>
     <path d="M 30.609375 48.390625 
Q 23.390625 48.390625 19.1875 42.75 
Q 14.984375 37.109375 14.984375 27.296875 
Q 14.984375 17.484375 19.15625 11.84375 
Q 23.34375 6.203125 30.609375 6.203125 
Q 37.796875 6.203125 41.984375 11.859375 
Q 46.1875 17.53125 46.1875 27.296875 
Q 46.1875 37.015625 41.984375 42.703125 
Q 37.796875 48.390625 30.609375 48.390625 
z
M 30.609375 56 
Q 42.328125 56 49.015625 48.375 
Q 55.71875 40.765625 55.71875 27.296875 
Q 55.71875 13.875 49.015625 6.21875 
Q 42.328125 -1.421875 30.609375 -1.421875 
Q 18.84375 -1.421875 12.171875 6.21875 
Q 5.515625 13.875 5.515625 27.296875 
Q 5.515625 40.765625 12.171875 48.375 
Q 18.84375 56 30.609375 56 
z
" id="DejaVuSans-111"/>
     <path d="M 45.40625 46.390625 
L 45.40625 75.984375 
L 54.390625 75.984375 
L 54.390625 0 
L 45.40625 0 
L 45.40625 8.203125 
Q 42.578125 3.328125 38.25 0.953125 
Q 33.9375 -1.421875 27.875 -1.421875 
Q 17.96875 -1.421875 11.734375 6.484375 
Q 5.515625 14.40625 5.515625 27.296875 
Q 5.515625 40.1875 11.734375 48.09375 
Q 17.96875 56 27.875 56 
Q 33.9375 56 38.25 53.625 
Q 42.578125 51.265625 45.40625 46.390625 
z
M 14.796875 27.296875 
Q 14.796875 17.390625 18.875 11.75 
Q 22.953125 6.109375 30.078125 6.109375 
Q 37.203125 6.109375 41.296875 11.75 
Q 45.40625 17.390625 45.40625 27.296875 
Q 45.40625 37.203125 41.296875 42.84375 
Q 37.203125 48.484375 30.078125 48.484375 
Q 22.953125 48.484375 18.875 42.84375 
Q 14.796875 37.203125 14.796875 27.296875 
z
" id="DejaVuSans-100"/>
     <path d="M 37.109375 75.984375 
L 37.109375 68.5 
L 28.515625 68.5 
Q 23.6875 68.5 21.796875 66.546875 
Q 19.921875 64.59375 19.921875 59.515625 
L 19.921875 54.6875 
L 34.71875 54.6875 
L 34.71875 47.703125 
L 19.921875 47.703125 
L 19.921875 0 
L 10.890625 0 
L 10.890625 47.703125 
L 2.296875 47.703125 
L 2.296875 54.6875 
L 10.890625 54.6875 
L 10.890625 58.5 
Q 10.890625 67.625 15.140625 71.796875 
Q 19.390625 75.984375 28.609375 75.984375 
z
" id="DejaVuSans-102"/>
    </defs>
    <g transform="translate(43.0875 35.472)scale(0.12 -0.12)">
     <use xlink:href="#DejaVuSans-91"/>
     <use x="39.013672" xlink:href="#DejaVuSans-70"/>
     <use x="96.533203" xlink:href="#DejaVuSans-73"/>
     <use x="126.025391" xlink:href="#DejaVuSans-82"/>
     <use x="195.507812" xlink:href="#DejaVuSans-70"/>
     <use x="252.917969" xlink:href="#DejaVuSans-105"/>
     <use x="280.701172" xlink:href="#DejaVuSans-108"/>
     <use x="308.484375" xlink:href="#DejaVuSans-116"/>
     <use x="347.693359" xlink:href="#DejaVuSans-101"/>
     <use x="409.216797" xlink:href="#DejaVuSans-114"/>
     <use x="450.330078" xlink:href="#DejaVuSans-93"/>
     <use x="489.34375" xlink:href="#DejaVuSans-32"/>
     <use x="521.130859" xlink:href="#DejaVuSans-73"/>
     <use x="550.623047" xlink:href="#DejaVuSans-110"/>
     <use x="614.001953" xlink:href="#DejaVuSans-112"/>
     <use x="677.478516" xlink:href="#DejaVuSans-117"/>
     <use x="740.857422" xlink:href="#DejaVuSans-116"/>
     <use x="780.066406" xlink:href="#DejaVuSans-47"/>
     <use x="813.757812" xlink:href="#DejaVuSans-79"/>
     <use x="892.46875" xlink:href="#DejaVuSans-117"/>
     <use x="955.847656" xlink:href="#DejaVuSans-116"/>
     <use x="995.056641" xlink:href="#DejaVuSans-112"/>
     <use x="1058.533203" xlink:href="#DejaVuSans-117"/>
     <use x="1121.912109" xlink:href="#DejaVuSans-116"/>
     <use x="1161.121094" xlink:href="#DejaVuSans-32"/>
     <use x="1192.908203" xlink:href="#DejaVuSans-115"/>
     <use x="1245.007812" xlink:href="#DejaVuSans-105"/>
     <use x="1272.791016" xlink:href="#DejaVuSans-103"/>
     <use x="1336.267578" xlink:href="#DejaVuSans-110"/>
     <use x="1399.646484" xlink:href="#DejaVuSans-97"/>
     <use x="1460.925781" xlink:href="#DejaVuSans-108"/>
     <use x="1488.708984" xlink:href="#DejaVuSans-32"/>
     <use x="1520.496094" xlink:href="#DejaVuSans-99"/>
     <use x="1575.476562" xlink:href="#DejaVuSans-111"/>
     <use x="1636.658203" xlink:href="#DejaVuSans-109"/>
     <use x="1734.070312" xlink:href="#DejaVuSans-112"/>
     <use x="1797.546875" xlink:href="#DejaVuSans-97"/>
     <use x="1858.826172" xlink:href="#DejaVuSans-114"/>
     <use x="1899.908203" xlink:href="#DejaVuSans-101"/>
     <use x="1961.431641" xlink:href="#DejaVuSans-100"/>
     <use x="2024.908203" xlink:href="#DejaVuSans-32"/>
     <use x="2056.695312" xlink:href="#DejaVuSans-116"/>
     <use x="2095.904297" xlink:href="#DejaVuSans-111"/>
     <use x="2157.085938" xlink:href="#DejaVuSans-32"/>
     <use x="2188.873047" xlink:href="#DejaVuSans-111"/>
     <use x="2250.054688" xlink:href="#DejaVuSans-102"/>
     <use x="2285.259766" xlink:href="#DejaVuSans-102"/>
     <use x="2320.464844" xlink:href="#DejaVuSans-108"/>
     <use x="2348.248047" xlink:href="#DejaVuSans-105"/>
     <use x="2376.03125" xlink:href="#DejaVuSans-110"/>
     <use x="2439.410156" xlink:href="#DejaVuSans-101"/>
     <use x="2500.933594" xlink:href="#DejaVuSans-32"/>
     <use x="2532.720703" xlink:href="#DejaVuSans-102"/>
     <use x="2567.925781" xlink:href="#DejaVuSans-105"/>
     <use x="2595.708984" xlink:href="#DejaVuSans-108"/>
     <use x="2623.492188" xlink:href="#DejaVuSans-116"/>
     <use x="2662.701172" xlink:href="#DejaVuSans-101"/>
     <use x="2724.224609" xlink:href="#DejaVuSans-114"/>
     <use x="2765.306641" xlink:href="#DejaVuSans-101"/>
     <use x="2826.830078" xlink:href="#DejaVuSans-100"/>
     <use x="2890.306641" xlink:href="#DejaVuSans-32"/>
     <use x="2922.09375" xlink:href="#DejaVuSans-115"/>
     <use x="2974.193359" xlink:href="#DejaVuSans-105"/>
     <use x="3001.976562" xlink:href="#DejaVuSans-103"/>
     <use x="3065.453125" xlink:href="#DejaVuSans-110"/>
     <use x="3128.832031" xlink:href="#DejaVuSans-97"/>
     <use x="3190.111328" xlink:href="#DejaVuSans-108"/>
    </g>
   </g>
   <g id="legend_1">
    <g id="patch_7">
     <path d="M 245.380937 108.1845 
L 407.72 108.1845 
Q 409.72 108.1845 409.72 106.1845 
L 409.72 48.472 
Q 409.72 46.472 407.72 46.472 
L 245.380937 46.472 
Q 243.380937 46.472 243.380937 48.472 
L 243.380937 106.1845 
Q 243.380937 108.1845 245.380937 108.1845 
z
" style="fill:#ffffff;opacity:0.8;stroke:#cccccc;stroke-linejoin:miter;"/>
    </g>
    <g id="line2d_17">
     <path d="M 247.380937 54.570438 
L 267.380937 54.570438 
" style="fill:none;stroke:#1f77b4;stroke-linecap:square;stroke-width:1.5;"/>
    </g>
    <g id="line2d_18"/>
    <g id="text_16">
     <!-- i.data -->
     <g transform="translate(275.380937 58.070438)scale(0.1 -0.1)">
      <use xlink:href="#DejaVuSans-105"/>
      <use x="27.783203" xlink:href="#DejaVuSans-46"/>
      <use x="59.570312" xlink:href="#DejaVuSans-100"/>
      <use x="123.046875" xlink:href="#DejaVuSans-97"/>
      <use x="184.326172" xlink:href="#DejaVuSans-116"/>
      <use x="223.535156" xlink:href="#DejaVuSans-97"/>
     </g>
    </g>
    <g id="line2d_19">
     <path d="M 247.380937 69.248563 
L 267.380937 69.248563 
" style="fill:none;stroke:#ff7f0e;stroke-linecap:square;stroke-width:2;"/>
    </g>
    <g id="line2d_20"/>
    <g id="text_17">
     <!-- o.data -->
     <g transform="translate(275.380937 72.748563)scale(0.1 -0.1)">
      <use xlink:href="#DejaVuSans-111"/>
      <use x="61.166016" xlink:href="#DejaVuSans-46"/>
      <use x="92.953125" xlink:href="#DejaVuSans-100"/>
      <use x="156.429688" xlink:href="#DejaVuSans-97"/>
      <use x="217.708984" xlink:href="#DejaVuSans-116"/>
      <use x="256.917969" xlink:href="#DejaVuSans-97"/>
     </g>
    </g>
    <g id="line2d_21">
     <path d="M 247.380937 83.926688 
L 267.380937 83.926688 
" style="fill:none;stroke:#000000;stroke-dasharray:5.55,2.4;stroke-dashoffset:0;stroke-width:1.5;"/>
    </g>
    <g id="line2d_22"/>
    <g id="text_18">
     <!-- offline -->
     <g transform="translate(275.380937 87.426688)scale(0.1 -0.1)">
      <use xlink:href="#DejaVuSans-111"/>
      <use x="61.181641" xlink:href="#DejaVuSans-102"/>
      <use x="96.386719" xlink:href="#DejaVuSans-102"/>
      <use x="131.591797" xlink:href="#DejaVuSans-108"/>
      <use x="159.375" xlink:href="#DejaVuSans-105"/>
      <use x="187.158203" xlink:href="#DejaVuSans-110"/>
      <use x="250.537109" xlink:href="#DejaVuSans-101"/>
     </g>
    </g>
    <g id="line2d_23">
     <path d="M 247.380937 98.604813 
L 267.380937 98.604813 
" style="fill:none;stroke:#2ca02c;stroke-linecap:square;stroke-width:2;"/>
    </g>
    <g id="line2d_24"/>
    <g id="text_19">
     <!-- o.data corrected for delay -->
     <defs>
      <path d="M 32.171875 -5.078125 
Q 28.375 -14.84375 24.75 -17.8125 
Q 21.140625 -20.796875 15.09375 -20.796875 
L 7.90625 -20.796875 
L 7.90625 -13.28125 
L 13.1875 -13.28125 
Q 16.890625 -13.28125 18.9375 -11.515625 
Q 21 -9.765625 23.484375 -3.21875 
L 25.09375 0.875 
L 2.984375 54.6875 
L 12.5 54.6875 
L 29.59375 11.921875 
L 46.6875 54.6875 
L 56.203125 54.6875 
z
" id="DejaVuSans-121"/>
     </defs>
     <g transform="translate(275.380937 102.104813)scale(0.1 -0.1)">
      <use xlink:href="#DejaVuSans-111"/>
      <use x="61.166016" xlink:href="#DejaVuSans-46"/>
      <use x="92.953125" xlink:href="#DejaVuSans-100"/>
      <use x="156.429688" xlink:href="#DejaVuSans-97"/>
      <use x="217.708984" xlink:href="#DejaVuSans-116"/>
      <use x="256.917969" xlink:href="#DejaVuSans-97"/>
      <use x="318.197266" xlink:href="#DejaVuSans-32"/>
      <use x="349.984375" xlink:href="#DejaVuSans-99"/>
      <use x="404.964844" xlink:href="#DejaVuSans-111"/>
      <use x="466.146484" xlink:href="#DejaVuSans-114"/>
      <use x="507.244141" xlink:href="#DejaVuSans-114"/>
      <use x="548.326172" xlink:href="#DejaVuSans-101"/>
      <use x="609.849609" xlink:href="#DejaVuSans-99"/>
      <use x="664.830078" xlink:href="#DejaVuSans-116"/>
      <use x="704.039062" xlink:href="#DejaVuSans-101"/>
      <use x="765.5625" xlink:href="#DejaVuSans-100"/>
      <use x="829.039062" xlink:href="#DejaVuSans-32"/>
      <use x="860.826172" xlink:href="#DejaVuSans-102"/>
      <use x="896.03125" xlink:href="#DejaVuSans-111"/>
      <use x="957.212891" xlink:href="#DejaVuSans-114"/>
      <use x="998.326172" xlink:href="#DejaVuSans-32"/>
      <use x="1030.113281" xlink:href="#DejaVuSans-100"/>
      <use x="1093.589844" xlink:href="#DejaVuSans-101"/>
      <use x="1155.113281" xlink:href="#DejaVuSans-108"/>
      <use x="1182.896484" xlink:href="#DejaVuSans-97"/>
      <use x="1244.175781" xlink:href="#DejaVuSans-121"/>
     </g>
    </g>
   </g>
  </g>
 </g>
 <defs>
  <clipPath id="pb46ef17421">
   <rect height="266.112" width="357.12" x="57.6" y="41.472"/>
  </clipPath>
 </defs>
</svg>
