<?xml version="1.0" encoding="utf-8" standalone="no"?>
<!DOCTYPE svg PUBLIC "-//W3C//DTD SVG 1.1//EN"
  "http://www.w3.org/Graphics/SVG/1.1/DTD/svg11.dtd">
<!-- Created with matplotlib (https://matplotlib.org/) -->
<svg height="345.6pt" version="1.1" viewBox="0 0 460.8 345.6" width="460.8pt" xmlns="http://www.w3.org/2000/svg" xmlns:xlink="http://www.w3.org/1999/xlink">
 <defs>
  <style type="text/css">
*{stroke-linecap:butt;stroke-linejoin:round;}
  </style>
 </defs>
 <g id="figure_1">
  <g id="patch_1">
   <path d="M 0 345.6 
L 460.8 345.6 
L 460.8 0 
L 0 0 
z
" style="fill:#ffffff;"/>
  </g>
  <g id="axes_1">
   <g id="patch_2">
    <path d="M 56.09 303.64 
L 437.945625 303.64 
L 437.945625 26.88 
L 56.09 26.88 
z
" style="fill:#ffffff;"/>
   </g>
   <g id="matplotlib.axis_1">
    <g id="xtick_1">
     <g id="line2d_1">
      <defs>
       <path d="M 0 0 
L 0 3.5 
" id="mc0222e7a5e" style="stroke:#000000;stroke-width:0.8;"/>
      </defs>
      <g>
       <use style="stroke:#000000;stroke-width:0.8;" x="73.447074" xlink:href="#mc0222e7a5e" y="303.64"/>
      </g>
     </g>
     <g id="text_1">
      <!-- 0.0000 -->
      <defs>
       <path d="M 31.78125 66.40625 
Q 24.171875 66.40625 20.328125 58.90625 
Q 16.5 51.421875 16.5 36.375 
Q 16.5 21.390625 20.328125 13.890625 
Q 24.171875 6.390625 31.78125 6.390625 
Q 39.453125 6.390625 43.28125 13.890625 
Q 47.125 21.390625 47.125 36.375 
Q 47.125 51.421875 43.28125 58.90625 
Q 39.453125 66.40625 31.78125 66.40625 
z
M 31.78125 74.21875 
Q 44.046875 74.21875 50.515625 64.515625 
Q 56.984375 54.828125 56.984375 36.375 
Q 56.984375 17.96875 50.515625 8.265625 
Q 44.046875 -1.421875 31.78125 -1.421875 
Q 19.53125 -1.421875 13.0625 8.265625 
Q 6.59375 17.96875 6.59375 36.375 
Q 6.59375 54.828125 13.0625 64.515625 
Q 19.53125 74.21875 31.78125 74.21875 
z
" id="DejaVuSans-48"/>
       <path d="M 10.6875 12.40625 
L 21 12.40625 
L 21 0 
L 10.6875 0 
z
" id="DejaVuSans-46"/>
      </defs>
      <g transform="translate(55.951761 318.238437)scale(0.1 -0.1)">
       <use xlink:href="#DejaVuSans-48"/>
       <use x="63.623047" xlink:href="#DejaVuSans-46"/>
       <use x="95.410156" xlink:href="#DejaVuSans-48"/>
       <use x="159.033203" xlink:href="#DejaVuSans-48"/>
       <use x="222.65625" xlink:href="#DejaVuSans-48"/>
       <use x="286.279297" xlink:href="#DejaVuSans-48"/>
      </g>
     </g>
    </g>
    <g id="xtick_2">
     <g id="line2d_2">
      <g>
       <use style="stroke:#000000;stroke-width:0.8;" x="129.36248" xlink:href="#mc0222e7a5e" y="303.64"/>
      </g>
     </g>
     <g id="text_2">
      <!-- 0.0005 -->
      <defs>
       <path d="M 10.796875 72.90625 
L 49.515625 72.90625 
L 49.515625 64.59375 
L 19.828125 64.59375 
L 19.828125 46.734375 
Q 21.96875 47.46875 24.109375 47.828125 
Q 26.265625 48.1875 28.421875 48.1875 
Q 40.625 48.1875 47.75 41.5 
Q 54.890625 34.8125 54.890625 23.390625 
Q 54.890625 11.625 47.5625 5.09375 
Q 40.234375 -1.421875 26.90625 -1.421875 
Q 22.3125 -1.421875 17.546875 -0.640625 
Q 12.796875 0.140625 7.71875 1.703125 
L 7.71875 11.625 
Q 12.109375 9.234375 16.796875 8.0625 
Q 21.484375 6.890625 26.703125 6.890625 
Q 35.15625 6.890625 40.078125 11.328125 
Q 45.015625 15.765625 45.015625 23.390625 
Q 45.015625 31 40.078125 35.4375 
Q 35.15625 39.890625 26.703125 39.890625 
Q 22.75 39.890625 18.8125 39.015625 
Q 14.890625 38.140625 10.796875 36.28125 
z
" id="DejaVuSans-53"/>
      </defs>
      <g transform="translate(111.867167 318.238437)scale(0.1 -0.1)">
       <use xlink:href="#DejaVuSans-48"/>
       <use x="63.623047" xlink:href="#DejaVuSans-46"/>
       <use x="95.410156" xlink:href="#DejaVuSans-48"/>
       <use x="159.033203" xlink:href="#DejaVuSans-48"/>
       <use x="222.65625" xlink:href="#DejaVuSans-48"/>
       <use x="286.279297" xlink:href="#DejaVuSans-53"/>
      </g>
     </g>
    </g>
    <g id="xtick_3">
     <g id="line2d_3">
      <g>
       <use style="stroke:#000000;stroke-width:0.8;" x="185.277885" xlink:href="#mc0222e7a5e" y="303.64"/>
      </g>
     </g>
     <g id="text_3">
      <!-- 0.0010 -->
      <defs>
       <path d="M 12.40625 8.296875 
L 28.515625 8.296875 
L 28.515625 63.921875 
L 10.984375 60.40625 
L 10.984375 69.390625 
L 28.421875 72.90625 
L 38.28125 72.90625 
L 38.28125 8.296875 
L 54.390625 8.296875 
L 54.390625 0 
L 12.40625 0 
z
" id="DejaVuSans-49"/>
      </defs>
      <g transform="translate(167.782573 318.238437)scale(0.1 -0.1)">
       <use xlink:href="#DejaVuSans-48"/>
       <use x="63.623047" xlink:href="#DejaVuSans-46"/>
       <use x="95.410156" xlink:href="#DejaVuSans-48"/>
       <use x="159.033203" xlink:href="#DejaVuSans-48"/>
       <use x="222.65625" xlink:href="#DejaVuSans-49"/>
       <use x="286.279297" xlink:href="#DejaVuSans-48"/>
      </g>
     </g>
    </g>
    <g id="xtick_4">
     <g id="line2d_4">
      <g>
       <use style="stroke:#000000;stroke-width:0.8;" x="241.193291" xlink:href="#mc0222e7a5e" y="303.64"/>
      </g>
     </g>
     <g id="text_4">
      <!-- 0.0015 -->
      <g transform="translate(223.697979 318.238437)scale(0.1 -0.1)">
       <use xlink:href="#DejaVuSans-48"/>
       <use x="63.623047" xlink:href="#DejaVuSans-46"/>
       <use x="95.410156" xlink:href="#DejaVuSans-48"/>
       <use x="159.033203" xlink:href="#DejaVuSans-48"/>
       <use x="222.65625" xlink:href="#DejaVuSans-49"/>
       <use x="286.279297" xlink:href="#DejaVuSans-53"/>
      </g>
     </g>
    </g>
    <g id="xtick_5">
     <g id="line2d_5">
      <g>
       <use style="stroke:#000000;stroke-width:0.8;" x="297.108697" xlink:href="#mc0222e7a5e" y="303.64"/>
      </g>
     </g>
     <g id="text_5">
      <!-- 0.0020 -->
      <defs>
       <path d="M 19.1875 8.296875 
L 53.609375 8.296875 
L 53.609375 0 
L 7.328125 0 
L 7.328125 8.296875 
Q 12.9375 14.109375 22.625 23.890625 
Q 32.328125 33.6875 34.8125 36.53125 
Q 39.546875 41.84375 41.421875 45.53125 
Q 43.3125 49.21875 43.3125 52.78125 
Q 43.3125 58.59375 39.234375 62.25 
Q 35.15625 65.921875 28.609375 65.921875 
Q 23.96875 65.921875 18.8125 64.3125 
Q 13.671875 62.703125 7.8125 59.421875 
L 7.8125 69.390625 
Q 13.765625 71.78125 18.9375 73 
Q 24.125 74.21875 28.421875 74.21875 
Q 39.75 74.21875 46.484375 68.546875 
Q 53.21875 62.890625 53.21875 53.421875 
Q 53.21875 48.921875 51.53125 44.890625 
Q 49.859375 40.875 45.40625 35.40625 
Q 44.1875 33.984375 37.640625 27.21875 
Q 31.109375 20.453125 19.1875 8.296875 
z
" id="DejaVuSans-50"/>
      </defs>
      <g transform="translate(279.613384 318.238437)scale(0.1 -0.1)">
       <use xlink:href="#DejaVuSans-48"/>
       <use x="63.623047" xlink:href="#DejaVuSans-46"/>
       <use x="95.410156" xlink:href="#DejaVuSans-48"/>
       <use x="159.033203" xlink:href="#DejaVuSans-48"/>
       <use x="222.65625" xlink:href="#DejaVuSans-50"/>
       <use x="286.279297" xlink:href="#DejaVuSans-48"/>
      </g>
     </g>
    </g>
    <g id="xtick_6">
     <g id="line2d_6">
      <g>
       <use style="stroke:#000000;stroke-width:0.8;" x="353.024103" xlink:href="#mc0222e7a5e" y="303.64"/>
      </g>
     </g>
     <g id="text_6">
      <!-- 0.0025 -->
      <g transform="translate(335.52879 318.238437)scale(0.1 -0.1)">
       <use xlink:href="#DejaVuSans-48"/>
       <use x="63.623047" xlink:href="#DejaVuSans-46"/>
       <use x="95.410156" xlink:href="#DejaVuSans-48"/>
       <use x="159.033203" xlink:href="#DejaVuSans-48"/>
       <use x="222.65625" xlink:href="#DejaVuSans-50"/>
       <use x="286.279297" xlink:href="#DejaVuSans-53"/>
      </g>
     </g>
    </g>
    <g id="xtick_7">
     <g id="line2d_7">
      <g>
       <use style="stroke:#000000;stroke-width:0.8;" x="408.939508" xlink:href="#mc0222e7a5e" y="303.64"/>
      </g>
     </g>
     <g id="text_7">
      <!-- 0.0030 -->
      <defs>
       <path d="M 40.578125 39.3125 
Q 47.65625 37.796875 51.625 33 
Q 55.609375 28.21875 55.609375 21.1875 
Q 55.609375 10.40625 48.1875 4.484375 
Q 40.765625 -1.421875 27.09375 -1.421875 
Q 22.515625 -1.421875 17.65625 -0.515625 
Q 12.796875 0.390625 7.625 2.203125 
L 7.625 11.71875 
Q 11.71875 9.328125 16.59375 8.109375 
Q 21.484375 6.890625 26.8125 6.890625 
Q 36.078125 6.890625 40.9375 10.546875 
Q 45.796875 14.203125 45.796875 21.1875 
Q 45.796875 27.640625 41.28125 31.265625 
Q 36.765625 34.90625 28.71875 34.90625 
L 20.21875 34.90625 
L 20.21875 43.015625 
L 29.109375 43.015625 
Q 36.375 43.015625 40.234375 45.921875 
Q 44.09375 48.828125 44.09375 54.296875 
Q 44.09375 59.90625 40.109375 62.90625 
Q 36.140625 65.921875 28.71875 65.921875 
Q 24.65625 65.921875 20.015625 65.03125 
Q 15.375 64.15625 9.8125 62.3125 
L 9.8125 71.09375 
Q 15.4375 72.65625 20.34375 73.4375 
Q 25.25 74.21875 29.59375 74.21875 
Q 40.828125 74.21875 47.359375 69.109375 
Q 53.90625 64.015625 53.90625 55.328125 
Q 53.90625 49.265625 50.4375 45.09375 
Q 46.96875 40.921875 40.578125 39.3125 
z
" id="DejaVuSans-51"/>
      </defs>
      <g transform="translate(391.444196 318.238437)scale(0.1 -0.1)">
       <use xlink:href="#DejaVuSans-48"/>
       <use x="63.623047" xlink:href="#DejaVuSans-46"/>
       <use x="95.410156" xlink:href="#DejaVuSans-48"/>
       <use x="159.033203" xlink:href="#DejaVuSans-48"/>
       <use x="222.65625" xlink:href="#DejaVuSans-51"/>
       <use x="286.279297" xlink:href="#DejaVuSans-48"/>
      </g>
     </g>
    </g>
    <g id="text_8">
     <!-- time -->
     <defs>
      <path d="M 18.3125 70.21875 
L 18.3125 54.6875 
L 36.8125 54.6875 
L 36.8125 47.703125 
L 18.3125 47.703125 
L 18.3125 18.015625 
Q 18.3125 11.328125 20.140625 9.421875 
Q 21.96875 7.515625 27.59375 7.515625 
L 36.8125 7.515625 
L 36.8125 0 
L 27.59375 0 
Q 17.1875 0 13.234375 3.875 
Q 9.28125 7.765625 9.28125 18.015625 
L 9.28125 47.703125 
L 2.6875 47.703125 
L 2.6875 54.6875 
L 9.28125 54.6875 
L 9.28125 70.21875 
z
" id="DejaVuSans-116"/>
      <path d="M 9.421875 54.6875 
L 18.40625 54.6875 
L 18.40625 0 
L 9.421875 0 
z
M 9.421875 75.984375 
L 18.40625 75.984375 
L 18.40625 64.59375 
L 9.421875 64.59375 
z
" id="DejaVuSans-105"/>
      <path d="M 52 44.1875 
Q 55.375 50.25 60.0625 53.125 
Q 64.75 56 71.09375 56 
Q 79.640625 56 84.28125 50.015625 
Q 88.921875 44.046875 88.921875 33.015625 
L 88.921875 0 
L 79.890625 0 
L 79.890625 32.71875 
Q 79.890625 40.578125 77.09375 44.375 
Q 74.3125 48.1875 68.609375 48.1875 
Q 61.625 48.1875 57.5625 43.546875 
Q 53.515625 38.921875 53.515625 30.90625 
L 53.515625 0 
L 44.484375 0 
L 44.484375 32.71875 
Q 44.484375 40.625 41.703125 44.40625 
Q 38.921875 48.1875 33.109375 48.1875 
Q 26.21875 48.1875 22.15625 43.53125 
Q 18.109375 38.875 18.109375 30.90625 
L 18.109375 0 
L 9.078125 0 
L 9.078125 54.6875 
L 18.109375 54.6875 
L 18.109375 46.1875 
Q 21.1875 51.21875 25.484375 53.609375 
Q 29.78125 56 35.6875 56 
Q 41.65625 56 45.828125 52.96875 
Q 50 49.953125 52 44.1875 
z
" id="DejaVuSans-109"/>
      <path d="M 56.203125 29.59375 
L 56.203125 25.203125 
L 14.890625 25.203125 
Q 15.484375 15.921875 20.484375 11.0625 
Q 25.484375 6.203125 34.421875 6.203125 
Q 39.59375 6.203125 44.453125 7.46875 
Q 49.3125 8.734375 54.109375 11.28125 
L 54.109375 2.78125 
Q 49.265625 0.734375 44.1875 -0.34375 
Q 39.109375 -1.421875 33.890625 -1.421875 
Q 20.796875 -1.421875 13.15625 6.1875 
Q 5.515625 13.8125 5.515625 26.8125 
Q 5.515625 40.234375 12.765625 48.109375 
Q 20.015625 56 32.328125 56 
Q 43.359375 56 49.78125 48.890625 
Q 56.203125 41.796875 56.203125 29.59375 
z
M 47.21875 32.234375 
Q 47.125 39.59375 43.09375 43.984375 
Q 39.0625 48.390625 32.421875 48.390625 
Q 24.90625 48.390625 20.390625 44.140625 
Q 15.875 39.890625 15.1875 32.171875 
z
" id="DejaVuSans-101"/>
     </defs>
     <g transform="translate(235.721719 331.916562)scale(0.1 -0.1)">
      <use xlink:href="#DejaVuSans-116"/>
      <use x="39.208984" xlink:href="#DejaVuSans-105"/>
      <use x="66.992188" xlink:href="#DejaVuSans-109"/>
      <use x="164.404297" xlink:href="#DejaVuSans-101"/>
     </g>
    </g>
   </g>
   <g id="matplotlib.axis_2">
    <g id="ytick_1">
     <g id="line2d_8">
      <defs>
       <path d="M 0 0 
L -3.5 0 
" id="m99d828ce9d" style="stroke:#000000;stroke-width:0.8;"/>
      </defs>
      <g>
       <use style="stroke:#000000;stroke-width:0.8;" x="56.09" xlink:href="#m99d828ce9d" y="260.600645"/>
      </g>
     </g>
     <g id="text_9">
      <!-- −1.0 -->
      <defs>
       <path d="M 10.59375 35.5 
L 73.1875 35.5 
L 73.1875 27.203125 
L 10.59375 27.203125 
z
" id="DejaVuSans-8722"/>
      </defs>
      <g transform="translate(24.807188 264.399864)scale(0.1 -0.1)">
       <use xlink:href="#DejaVuSans-8722"/>
       <use x="83.789062" xlink:href="#DejaVuSans-49"/>
       <use x="147.412109" xlink:href="#DejaVuSans-46"/>
       <use x="179.199219" xlink:href="#DejaVuSans-48"/>
      </g>
     </g>
    </g>
    <g id="ytick_2">
     <g id="line2d_9">
      <g>
       <use style="stroke:#000000;stroke-width:0.8;" x="56.09" xlink:href="#m99d828ce9d" y="212.930323"/>
      </g>
     </g>
     <g id="text_10">
      <!-- −0.5 -->
      <g transform="translate(24.807188 216.729541)scale(0.1 -0.1)">
       <use xlink:href="#DejaVuSans-8722"/>
       <use x="83.789062" xlink:href="#DejaVuSans-48"/>
       <use x="147.412109" xlink:href="#DejaVuSans-46"/>
       <use x="179.199219" xlink:href="#DejaVuSans-53"/>
      </g>
     </g>
    </g>
    <g id="ytick_3">
     <g id="line2d_10">
      <g>
       <use style="stroke:#000000;stroke-width:0.8;" x="56.09" xlink:href="#m99d828ce9d" y="165.26"/>
      </g>
     </g>
     <g id="text_11">
      <!-- 0.0 -->
      <g transform="translate(33.186875 169.059219)scale(0.1 -0.1)">
       <use xlink:href="#DejaVuSans-48"/>
       <use x="63.623047" xlink:href="#DejaVuSans-46"/>
       <use x="95.410156" xlink:href="#DejaVuSans-48"/>
      </g>
     </g>
    </g>
    <g id="ytick_4">
     <g id="line2d_11">
      <g>
       <use style="stroke:#000000;stroke-width:0.8;" x="56.09" xlink:href="#m99d828ce9d" y="117.589677"/>
      </g>
     </g>
     <g id="text_12">
      <!-- 0.5 -->
      <g transform="translate(33.186875 121.388896)scale(0.1 -0.1)">
       <use xlink:href="#DejaVuSans-48"/>
       <use x="63.623047" xlink:href="#DejaVuSans-46"/>
       <use x="95.410156" xlink:href="#DejaVuSans-53"/>
      </g>
     </g>
    </g>
    <g id="ytick_5">
     <g id="line2d_12">
      <g>
       <use style="stroke:#000000;stroke-width:0.8;" x="56.09" xlink:href="#m99d828ce9d" y="69.919355"/>
      </g>
     </g>
     <g id="text_13">
      <!-- 1.0 -->
      <g transform="translate(33.186875 73.718573)scale(0.1 -0.1)">
       <use xlink:href="#DejaVuSans-49"/>
       <use x="63.623047" xlink:href="#DejaVuSans-46"/>
       <use x="95.410156" xlink:href="#DejaVuSans-48"/>
      </g>
     </g>
    </g>
    <g id="text_14">
     <!-- signal -->
     <defs>
      <path d="M 44.28125 53.078125 
L 44.28125 44.578125 
Q 40.484375 46.53125 36.375 47.5 
Q 32.28125 48.484375 27.875 48.484375 
Q 21.1875 48.484375 17.84375 46.4375 
Q 14.5 44.390625 14.5 40.28125 
Q 14.5 37.15625 16.890625 35.375 
Q 19.28125 33.59375 26.515625 31.984375 
L 29.59375 31.296875 
Q 39.15625 29.25 43.1875 25.515625 
Q 47.21875 21.78125 47.21875 15.09375 
Q 47.21875 7.46875 41.1875 3.015625 
Q 35.15625 -1.421875 24.609375 -1.421875 
Q 20.21875 -1.421875 15.453125 -0.5625 
Q 10.6875 0.296875 5.421875 2 
L 5.421875 11.28125 
Q 10.40625 8.6875 15.234375 7.390625 
Q 20.0625 6.109375 24.8125 6.109375 
Q 31.15625 6.109375 34.5625 8.28125 
Q 37.984375 10.453125 37.984375 14.40625 
Q 37.984375 18.0625 35.515625 20.015625 
Q 33.0625 21.96875 24.703125 23.78125 
L 21.578125 24.515625 
Q 13.234375 26.265625 9.515625 29.90625 
Q 5.8125 33.546875 5.8125 39.890625 
Q 5.8125 47.609375 11.28125 51.796875 
Q 16.75 56 26.8125 56 
Q 31.78125 56 36.171875 55.265625 
Q 40.578125 54.546875 44.28125 53.078125 
z
" id="DejaVuSans-115"/>
      <path d="M 45.40625 27.984375 
Q 45.40625 37.75 41.375 43.109375 
Q 37.359375 48.484375 30.078125 48.484375 
Q 22.859375 48.484375 18.828125 43.109375 
Q 14.796875 37.75 14.796875 27.984375 
Q 14.796875 18.265625 18.828125 12.890625 
Q 22.859375 7.515625 30.078125 7.515625 
Q 37.359375 7.515625 41.375 12.890625 
Q 45.40625 18.265625 45.40625 27.984375 
z
M 54.390625 6.78125 
Q 54.390625 -7.171875 48.1875 -13.984375 
Q 42 -20.796875 29.203125 -20.796875 
Q 24.46875 -20.796875 20.265625 -20.09375 
Q 16.0625 -19.390625 12.109375 -17.921875 
L 12.109375 -9.1875 
Q 16.0625 -11.328125 19.921875 -12.34375 
Q 23.78125 -13.375 27.78125 -13.375 
Q 36.625 -13.375 41.015625 -8.765625 
Q 45.40625 -4.15625 45.40625 5.171875 
L 45.40625 9.625 
Q 42.625 4.78125 38.28125 2.390625 
Q 33.9375 0 27.875 0 
Q 17.828125 0 11.671875 7.65625 
Q 5.515625 15.328125 5.515625 27.984375 
Q 5.515625 40.671875 11.671875 48.328125 
Q 17.828125 56 27.875 56 
Q 33.9375 56 38.28125 53.609375 
Q 42.625 51.21875 45.40625 46.390625 
L 45.40625 54.6875 
L 54.390625 54.6875 
z
" id="DejaVuSans-103"/>
      <path d="M 54.890625 33.015625 
L 54.890625 0 
L 45.90625 0 
L 45.90625 32.71875 
Q 45.90625 40.484375 42.875 44.328125 
Q 39.84375 48.1875 33.796875 48.1875 
Q 26.515625 48.1875 22.3125 43.546875 
Q 18.109375 38.921875 18.109375 30.90625 
L 18.109375 0 
L 9.078125 0 
L 9.078125 54.6875 
L 18.109375 54.6875 
L 18.109375 46.1875 
Q 21.34375 51.125 25.703125 53.5625 
Q 30.078125 56 35.796875 56 
Q 45.21875 56 50.046875 50.171875 
Q 54.890625 44.34375 54.890625 33.015625 
z
" id="DejaVuSans-110"/>
      <path d="M 34.28125 27.484375 
Q 23.390625 27.484375 19.1875 25 
Q 14.984375 22.515625 14.984375 16.5 
Q 14.984375 11.71875 18.140625 8.90625 
Q 21.296875 6.109375 26.703125 6.109375 
Q 34.1875 6.109375 38.703125 11.40625 
Q 43.21875 16.703125 43.21875 25.484375 
L 43.21875 27.484375 
z
M 52.203125 31.203125 
L 52.203125 0 
L 43.21875 0 
L 43.21875 8.296875 
Q 40.140625 3.328125 35.546875 0.953125 
Q 30.953125 -1.421875 24.3125 -1.421875 
Q 15.921875 -1.421875 10.953125 3.296875 
Q 6 8.015625 6 15.921875 
Q 6 25.140625 12.171875 29.828125 
Q 18.359375 34.515625 30.609375 34.515625 
L 43.21875 34.515625 
L 43.21875 35.40625 
Q 43.21875 41.609375 39.140625 45 
Q 35.0625 48.390625 27.6875 48.390625 
Q 23 48.390625 18.546875 47.265625 
Q 14.109375 46.140625 10.015625 43.890625 
L 10.015625 52.203125 
Q 14.9375 54.109375 19.578125 55.046875 
Q 24.21875 56 28.609375 56 
Q 40.484375 56 46.34375 49.84375 
Q 52.203125 43.703125 52.203125 31.203125 
z
" id="DejaVuSans-97"/>
      <path d="M 9.421875 75.984375 
L 18.40625 75.984375 
L 18.40625 0 
L 9.421875 0 
z
" id="DejaVuSans-108"/>
     </defs>
     <g transform="translate(18.7275 180.049844)rotate(-90)scale(0.1 -0.1)">
      <use xlink:href="#DejaVuSans-115"/>
      <use x="52.099609" xlink:href="#DejaVuSans-105"/>
      <use x="79.882812" xlink:href="#DejaVuSans-103"/>
      <use x="143.359375" xlink:href="#DejaVuSans-110"/>
      <use x="206.738281" xlink:href="#DejaVuSans-97"/>
      <use x="268.017578" xlink:href="#DejaVuSans-108"/>
     </g>
    </g>
   </g>
   <g id="line2d_13">
    <path clip-path="url(#pc046b36634)" d="M 73.447074 165.26 
L 75.776882 108.773913 
L 78.106691 174.292034 
L 80.4365 147.017357 
L 82.766308 69.919355 
L 85.096117 125.462935 
L 87.425925 131.551992 
L 89.755734 45.579545 
L 94.415351 121.218365 
L 96.74516 39.46 
L 99.074968 52.492364 
L 101.404777 117.589677 
L 103.734585 52.492364 
L 106.064394 39.46 
L 108.394202 121.218365 
L 113.05382 45.579545 
L 115.383628 131.551992 
L 117.713437 125.462935 
L 120.043245 69.919355 
L 122.373054 147.017357 
L 124.702862 174.292034 
L 127.032671 108.773913 
L 131.692288 221.746087 
L 134.022097 156.227966 
L 136.351905 183.502643 
L 138.681714 260.600645 
L 141.011522 205.057065 
L 143.341331 198.968008 
L 145.67114 284.940455 
L 150.330757 209.301635 
L 152.660565 291.06 
L 154.990374 278.027636 
L 157.320182 212.930323 
L 159.649991 278.027636 
L 161.9798 291.06 
L 164.309608 209.301635 
L 168.969225 284.940455 
L 171.299034 198.968008 
L 173.628842 205.057065 
L 175.958651 260.600645 
L 178.28846 183.502643 
L 180.618268 156.227966 
L 182.948077 221.746087 
L 187.607694 108.773913 
L 189.937502 174.292034 
L 192.267311 147.017357 
L 194.59712 69.919355 
L 196.926928 125.462935 
L 199.256737 131.551992 
L 201.586545 45.579545 
L 206.246162 121.218365 
L 208.575971 39.46 
L 210.90578 52.492364 
L 213.235588 117.589677 
L 215.565397 52.492364 
L 217.895205 39.46 
L 220.225014 121.218365 
L 224.884631 45.579545 
L 227.21444 131.551992 
L 229.544248 125.462935 
L 231.874057 69.919355 
L 234.203865 147.017357 
L 236.533674 174.292034 
L 238.863482 108.773913 
L 243.5231 221.746087 
L 245.852908 156.227966 
L 248.182717 183.502643 
L 250.512525 260.600645 
L 252.842334 205.057065 
L 255.172143 198.968008 
L 257.501951 284.940455 
L 262.161568 209.301635 
L 264.491377 291.06 
L 266.821185 278.027636 
L 269.150994 212.930323 
L 271.480803 278.027636 
L 273.810611 291.06 
L 276.14042 209.301635 
L 280.800037 284.940455 
L 283.129845 198.968008 
L 285.459654 205.057065 
L 287.789463 260.600645 
L 290.119271 183.502643 
L 292.44908 156.227966 
L 294.778888 221.746087 
L 299.438505 108.773913 
L 301.768314 174.292034 
L 304.098123 147.017357 
L 306.427931 69.919355 
L 308.75774 125.462935 
L 311.087548 131.551992 
L 313.417357 45.579545 
L 318.076974 121.218365 
L 320.406783 39.46 
L 322.736591 52.492364 
L 325.0664 117.589677 
L 327.396208 52.492364 
L 329.726017 39.46 
L 332.055825 121.218365 
L 336.715443 45.579545 
L 339.045251 131.551992 
L 341.37506 125.462935 
L 343.704868 69.919355 
L 346.034677 147.017357 
L 348.364485 174.292034 
L 350.694294 108.773913 
L 355.353911 221.746087 
L 357.68372 156.227966 
L 360.013528 183.502643 
L 362.343337 260.600645 
L 364.673145 205.057065 
L 367.002954 198.968008 
L 369.332763 284.940455 
L 373.99238 209.301635 
L 376.322188 291.06 
L 378.651997 278.027636 
L 380.981805 212.930323 
L 383.311614 278.027636 
L 385.641423 291.06 
L 387.971231 209.301635 
L 392.630848 284.940455 
L 394.960657 198.968008 
L 397.290465 205.057065 
L 399.620274 260.600645 
L 401.950083 183.502643 
L 404.279891 156.227966 
L 406.6097 221.746087 
L 411.269317 108.773913 
L 413.599125 174.292034 
L 415.928934 147.017357 
L 418.258743 69.919355 
L 420.588551 125.462935 
L 420.588551 125.462935 
" style="fill:none;stroke:#1f77b4;stroke-linecap:square;stroke-width:1.5;"/>
   </g>
   <g id="line2d_14">
    <path clip-path="url(#pc046b36634)" d="M 73.447074 165.26 
L 75.776882 163.469993 
L 78.106691 157.564526 
L 80.4365 150.572186 
L 82.766308 144.794741 
L 85.096117 135.476501 
L 87.425925 123.036769 
L 92.085542 102.979253 
L 94.415351 91.996562 
L 96.74516 84.89495 
L 99.074968 80.04457 
L 101.404777 74.01026 
L 103.734585 70.99066 
L 106.064394 71.118896 
L 108.394202 70.087335 
L 110.724011 71.118058 
L 113.05382 76.107345 
L 115.383628 80.368898 
L 117.713437 85.479592 
L 122.373054 103.655979 
L 124.702862 112.05631 
L 129.36248 136.323552 
L 131.692288 146.718748 
L 134.022097 159.6963 
L 136.351905 173.386885 
L 138.681714 184.201378 
L 141.011522 196.16998 
L 143.341331 209.216177 
L 150.330757 238.353438 
L 152.660565 245.252212 
L 154.990374 250.16498 
L 157.320182 256.362573 
L 159.649991 259.523487 
L 161.9798 259.465125 
L 164.309608 260.50229 
L 166.639417 259.444085 
L 168.969225 254.423424 
L 171.299034 250.142222 
L 173.628842 245.025985 
L 178.28846 226.859595 
L 180.618268 218.464237 
L 185.277885 194.198993 
L 187.607694 183.802629 
L 189.937502 170.823922 
L 192.267311 157.132691 
L 194.59712 146.318072 
L 196.926928 134.349648 
L 199.256737 121.303697 
L 206.246162 92.166653 
L 208.575971 85.267831 
L 210.90578 80.355022 
L 213.235588 74.157408 
L 215.565397 70.996492 
L 217.895205 71.054862 
L 220.225014 70.017707 
L 222.554822 71.075918 
L 224.884631 76.096581 
L 227.21444 80.377782 
L 229.544248 85.494016 
L 234.203865 103.660404 
L 236.533674 112.055762 
L 241.193291 136.321007 
L 243.5231 146.717372 
L 245.852908 159.696078 
L 248.182717 173.38731 
L 250.512525 184.201928 
L 252.842334 196.170352 
L 255.172143 209.216303 
L 262.161568 238.353347 
L 264.491377 245.252169 
L 266.821185 250.164978 
L 269.150994 256.362592 
L 271.480803 259.523508 
L 273.810611 259.465138 
L 276.14042 260.502293 
L 278.470228 259.444082 
L 280.800037 254.423419 
L 283.129845 250.142218 
L 285.459654 245.025984 
L 290.119271 226.859596 
L 292.44908 218.464238 
L 297.108697 194.198993 
L 299.438505 183.802628 
L 301.768314 170.823922 
L 304.098123 157.13269 
L 306.427931 146.318072 
L 308.75774 134.349648 
L 311.087548 121.303697 
L 318.076974 92.166653 
L 320.406783 85.267831 
L 322.736591 80.355022 
L 325.0664 74.157408 
L 327.396208 70.996492 
L 329.726017 71.054862 
L 332.055825 70.017707 
L 334.385634 71.075918 
L 336.715443 76.096581 
L 339.045251 80.377782 
L 341.37506 85.494016 
L 346.034677 103.660404 
L 348.364485 112.055762 
L 353.024103 136.321007 
L 355.353911 146.717372 
L 357.68372 159.696078 
L 360.013528 173.38731 
L 362.343337 184.201928 
L 364.673145 196.170352 
L 367.002954 209.216303 
L 373.99238 238.353347 
L 376.322188 245.252169 
L 378.651997 250.164978 
L 380.981805 256.362592 
L 383.311614 259.523508 
L 385.641423 259.465138 
L 387.971231 260.502293 
L 390.30104 259.444082 
L 392.630848 254.423419 
L 394.960657 250.142218 
L 397.290465 245.025984 
L 401.950083 226.859596 
L 404.279891 218.464238 
L 408.939508 194.198993 
L 411.269317 183.802628 
L 413.599125 170.823922 
L 415.928934 157.13269 
L 418.258743 146.318072 
L 420.588551 134.349648 
L 420.588551 134.349648 
" style="fill:none;stroke:#ff7f0e;stroke-linecap:square;stroke-width:2.5;"/>
   </g>
   <g id="line2d_15">
    <path clip-path="url(#pc046b36634)" d="M 73.447074 225.322297 
L 75.776882 223.500607 
L 78.106691 204.856782 
L 80.4365 176.804786 
L 82.766308 151.891031 
L 85.096117 131.304448 
L 87.425925 115.678849 
L 89.755734 107.385163 
L 92.085542 100.77882 
L 94.415351 92.368 
L 96.74516 86.345431 
L 99.074968 81.387417 
L 101.404777 74.72252 
L 103.734585 71.094323 
L 106.064394 70.887374 
L 108.394202 69.796067 
L 110.724011 70.924369 
L 113.05382 76.044107 
L 115.383628 80.39534 
L 117.713437 85.537425 
L 122.373054 103.678299 
L 124.702862 112.056803 
L 129.36248 136.312717 
L 131.692288 146.712272 
L 134.022097 159.69471 
L 136.351905 173.388315 
L 138.681714 184.203632 
L 141.011522 196.171652 
L 143.341331 209.216847 
L 150.330757 238.353043 
L 152.660565 245.252002 
L 154.990374 250.164948 
L 157.320182 256.362641 
L 159.649991 259.523573 
L 161.9798 259.465183 
L 164.309608 260.502309 
L 166.639417 259.444077 
L 168.969225 254.423407 
L 171.299034 250.142208 
L 173.628842 245.025979 
L 178.28846 226.859598 
L 180.618268 218.46424 
L 185.277885 194.198993 
L 187.607694 183.802628 
L 189.937502 170.823921 
L 192.267311 157.13269 
L 194.59712 146.318072 
L 196.926928 134.349648 
L 199.256737 121.303698 
L 206.246162 92.166653 
L 208.575971 85.267831 
L 210.90578 80.355022 
L 213.235588 74.157408 
L 215.565397 70.996492 
L 217.895205 71.054862 
L 220.225014 70.017707 
L 222.554822 71.075918 
L 224.884631 76.096581 
L 227.21444 80.377782 
L 229.544248 85.494016 
L 234.203865 103.660404 
L 236.533674 112.055762 
L 241.193291 136.321007 
L 243.5231 146.717372 
L 245.852908 159.696078 
L 248.182717 173.38731 
L 250.512525 184.201928 
L 252.842334 196.170352 
L 255.172143 209.216303 
L 262.161568 238.353347 
L 264.491377 245.252169 
L 266.821185 250.164978 
L 269.150994 256.362592 
L 271.480803 259.523508 
L 273.810611 259.465138 
L 276.14042 260.502293 
L 278.470228 259.444082 
L 280.800037 254.423419 
L 283.129845 250.142218 
L 285.459654 245.025984 
L 290.119271 226.859596 
L 292.44908 218.464238 
L 297.108697 194.198993 
L 299.438505 183.802628 
L 301.768314 170.823922 
L 304.098123 157.13269 
L 306.427931 146.318072 
L 308.75774 134.349648 
L 311.087548 121.303697 
L 318.076974 92.166653 
L 320.406783 85.267831 
L 322.736591 80.355022 
L 325.0664 74.157408 
L 327.396208 70.996492 
L 329.726017 71.054862 
L 332.055825 70.017707 
L 334.385634 71.075918 
L 336.715443 76.096581 
L 339.045251 80.377782 
L 341.37506 85.494016 
L 346.034677 103.660404 
L 348.364485 112.055762 
L 353.024103 136.321007 
L 355.353911 146.717372 
L 357.68372 159.696078 
L 360.013528 173.38731 
L 362.343337 184.201928 
L 364.673145 196.170352 
L 367.002954 209.216303 
L 373.99238 238.353347 
L 376.322188 245.252169 
L 378.651997 250.164978 
L 380.981805 256.362592 
L 383.311614 259.523508 
L 385.641423 259.465138 
L 387.971231 260.502293 
L 390.30104 259.444082 
L 392.630848 254.423419 
L 394.960657 250.142218 
L 397.290465 245.025984 
L 401.950083 226.859596 
L 404.279891 218.464238 
L 408.939508 194.198993 
L 411.269317 183.802628 
L 413.599125 170.823922 
L 415.928934 157.13269 
L 418.258743 146.318072 
L 420.588551 134.349648 
L 420.588551 134.349648 
" style="fill:none;stroke:#000000;stroke-dasharray:3.7,1.6;stroke-dashoffset:0;"/>
   </g>
   <g id="patch_3">
    <path d="M 56.09 303.64 
L 56.09 26.88 
" style="fill:none;stroke:#000000;stroke-linecap:square;stroke-linejoin:miter;stroke-width:0.8;"/>
   </g>
   <g id="patch_4">
    <path d="M 437.945625 303.64 
L 437.945625 26.88 
" style="fill:none;stroke:#000000;stroke-linecap:square;stroke-linejoin:miter;stroke-width:0.8;"/>
   </g>
   <g id="patch_5">
    <path d="M 56.09 303.64 
L 437.945625 303.64 
" style="fill:none;stroke:#000000;stroke-linecap:square;stroke-linejoin:miter;stroke-width:0.8;"/>
   </g>
   <g id="patch_6">
    <path d="M 56.09 26.88 
L 437.945625 26.88 
" style="fill:none;stroke:#000000;stroke-linecap:square;stroke-linejoin:miter;stroke-width:0.8;"/>
   </g>
   <g id="text_15">
    <!-- [IIRFilter] Input/Output signal compared to offline filtered signal -->
    <defs>
     <path d="M 8.59375 75.984375 
L 29.296875 75.984375 
L 29.296875 69 
L 17.578125 69 
L 17.578125 -6.203125 
L 29.296875 -6.203125 
L 29.296875 -13.1875 
L 8.59375 -13.1875 
z
" id="DejaVuSans-91"/>
     <path d="M 9.8125 72.90625 
L 19.671875 72.90625 
L 19.671875 0 
L 9.8125 0 
z
" id="DejaVuSans-73"/>
     <path d="M 44.390625 34.1875 
Q 47.5625 33.109375 50.5625 29.59375 
Q 53.5625 26.078125 56.59375 19.921875 
L 66.609375 0 
L 56 0 
L 46.6875 18.703125 
Q 43.0625 26.03125 39.671875 28.421875 
Q 36.28125 30.8125 30.421875 30.8125 
L 19.671875 30.8125 
L 19.671875 0 
L 9.8125 0 
L 9.8125 72.90625 
L 32.078125 72.90625 
Q 44.578125 72.90625 50.734375 67.671875 
Q 56.890625 62.453125 56.890625 51.90625 
Q 56.890625 45.015625 53.6875 40.46875 
Q 50.484375 35.9375 44.390625 34.1875 
z
M 19.671875 64.796875 
L 19.671875 38.921875 
L 32.078125 38.921875 
Q 39.203125 38.921875 42.84375 42.21875 
Q 46.484375 45.515625 46.484375 51.90625 
Q 46.484375 58.296875 42.84375 61.546875 
Q 39.203125 64.796875 32.078125 64.796875 
z
" id="DejaVuSans-82"/>
     <path d="M 9.8125 72.90625 
L 51.703125 72.90625 
L 51.703125 64.59375 
L 19.671875 64.59375 
L 19.671875 43.109375 
L 48.578125 43.109375 
L 48.578125 34.8125 
L 19.671875 34.8125 
L 19.671875 0 
L 9.8125 0 
z
" id="DejaVuSans-70"/>
     <path d="M 41.109375 46.296875 
Q 39.59375 47.171875 37.8125 47.578125 
Q 36.03125 48 33.890625 48 
Q 26.265625 48 22.1875 43.046875 
Q 18.109375 38.09375 18.109375 28.8125 
L 18.109375 0 
L 9.078125 0 
L 9.078125 54.6875 
L 18.109375 54.6875 
L 18.109375 46.1875 
Q 20.953125 51.171875 25.484375 53.578125 
Q 30.03125 56 36.53125 56 
Q 37.453125 56 38.578125 55.875 
Q 39.703125 55.765625 41.0625 55.515625 
z
" id="DejaVuSans-114"/>
     <path d="M 30.421875 75.984375 
L 30.421875 -13.1875 
L 9.71875 -13.1875 
L 9.71875 -6.203125 
L 21.390625 -6.203125 
L 21.390625 69 
L 9.71875 69 
L 9.71875 75.984375 
z
" id="DejaVuSans-93"/>
     <path id="DejaVuSans-32"/>
     <path d="M 18.109375 8.203125 
L 18.109375 -20.796875 
L 9.078125 -20.796875 
L 9.078125 54.6875 
L 18.109375 54.6875 
L 18.109375 46.390625 
Q 20.953125 51.265625 25.265625 53.625 
Q 29.59375 56 35.59375 56 
Q 45.5625 56 51.78125 48.09375 
Q 58.015625 40.1875 58.015625 27.296875 
Q 58.015625 14.40625 51.78125 6.484375 
Q 45.5625 -1.421875 35.59375 -1.421875 
Q 29.59375 -1.421875 25.265625 0.953125 
Q 20.953125 3.328125 18.109375 8.203125 
z
M 48.6875 27.296875 
Q 48.6875 37.203125 44.609375 42.84375 
Q 40.53125 48.484375 33.40625 48.484375 
Q 26.265625 48.484375 22.1875 42.84375 
Q 18.109375 37.203125 18.109375 27.296875 
Q 18.109375 17.390625 22.1875 11.75 
Q 26.265625 6.109375 33.40625 6.109375 
Q 40.53125 6.109375 44.609375 11.75 
Q 48.6875 17.390625 48.6875 27.296875 
z
" id="DejaVuSans-112"/>
     <path d="M 8.5 21.578125 
L 8.5 54.6875 
L 17.484375 54.6875 
L 17.484375 21.921875 
Q 17.484375 14.15625 20.5 10.265625 
Q 23.53125 6.390625 29.59375 6.390625 
Q 36.859375 6.390625 41.078125 11.03125 
Q 45.3125 15.671875 45.3125 23.6875 
L 45.3125 54.6875 
L 54.296875 54.6875 
L 54.296875 0 
L 45.3125 0 
L 45.3125 8.40625 
Q 42.046875 3.421875 37.71875 1 
Q 33.40625 -1.421875 27.6875 -1.421875 
Q 18.265625 -1.421875 13.375 4.4375 
Q 8.5 10.296875 8.5 21.578125 
z
M 31.109375 56 
z
" id="DejaVuSans-117"/>
     <path d="M 25.390625 72.90625 
L 33.6875 72.90625 
L 8.296875 -9.28125 
L 0 -9.28125 
z
" id="DejaVuSans-47"/>
     <path d="M 39.40625 66.21875 
Q 28.65625 66.21875 22.328125 58.203125 
Q 16.015625 50.203125 16.015625 36.375 
Q 16.015625 22.609375 22.328125 14.59375 
Q 28.65625 6.59375 39.40625 6.59375 
Q 50.140625 6.59375 56.421875 14.59375 
Q 62.703125 22.609375 62.703125 36.375 
Q 62.703125 50.203125 56.421875 58.203125 
Q 50.140625 66.21875 39.40625 66.21875 
z
M 39.40625 74.21875 
Q 54.734375 74.21875 63.90625 63.9375 
Q 73.09375 53.65625 73.09375 36.375 
Q 73.09375 19.140625 63.90625 8.859375 
Q 54.734375 -1.421875 39.40625 -1.421875 
Q 24.03125 -1.421875 14.8125 8.828125 
Q 5.609375 19.09375 5.609375 36.375 
Q 5.609375 53.65625 14.8125 63.9375 
Q 24.03125 74.21875 39.40625 74.21875 
z
" id="DejaVuSans-79"/>
     <path d="M 48.78125 52.59375 
L 48.78125 44.1875 
Q 44.96875 46.296875 41.140625 47.34375 
Q 37.3125 48.390625 33.40625 48.390625 
Q 24.65625 48.390625 19.8125 42.84375 
Q 14.984375 37.3125 14.984375 27.296875 
Q 14.984375 17.28125 19.8125 11.734375 
Q 24.65625 6.203125 33.40625 6.203125 
Q 37.3125 6.203125 41.140625 7.25 
Q 44.96875 8.296875 48.78125 10.40625 
L 48.78125 2.09375 
Q 45.015625 0.34375 40.984375 -0.53125 
Q 36.96875 -1.421875 32.421875 -1.421875 
Q 20.0625 -1.421875 12.78125 6.34375 
Q 5.515625 14.109375 5.515625 27.296875 
Q 5.515625 40.671875 12.859375 48.328125 
Q 20.21875 56 33.015625 56 
Q 37.15625 56 41.109375 55.140625 
Q 45.0625 54.296875 48.78125 52.59375 
z
" id="DejaVuSans-99"/>
     <path d="M 30.609375 48.390625 
Q 23.390625 48.390625 19.1875 42.75 
Q 14.984375 37.109375 14.984375 27.296875 
Q 14.984375 17.484375 19.15625 11.84375 
Q 23.34375 6.203125 30.609375 6.203125 
Q 37.796875 6.203125 41.984375 11.859375 
Q 46.1875 17.53125 46.1875 27.296875 
Q 46.1875 37.015625 41.984375 42.703125 
Q 37.796875 48.390625 30.609375 48.390625 
z
M 30.609375 56 
Q 42.328125 56 49.015625 48.375 
Q 55.71875 40.765625 55.71875 27.296875 
Q 55.71875 13.875 49.015625 6.21875 
Q 42.328125 -1.421875 30.609375 -1.421875 
Q 18.84375 -1.421875 12.171875 6.21875 
Q 5.515625 13.875 5.515625 27.296875 
Q 5.515625 40.765625 12.171875 48.375 
Q 18.84375 56 30.609375 56 
z
" id="DejaVuSans-111"/>
     <path d="M 45.40625 46.390625 
L 45.40625 75.984375 
L 54.390625 75.984375 
L 54.390625 0 
L 45.40625 0 
L 45.40625 8.203125 
Q 42.578125 3.328125 38.25 0.953125 
Q 33.9375 -1.421875 27.875 -1.421875 
Q 17.96875 -1.421875 11.734375 6.484375 
Q 5.515625 14.40625 5.515625 27.296875 
Q 5.515625 40.1875 11.734375 48.09375 
Q 17.96875 56 27.875 56 
Q 33.9375 56 38.25 53.625 
Q 42.578125 51.265625 45.40625 46.390625 
z
M 14.796875 27.296875 
Q 14.796875 17.390625 18.875 11.75 
Q 22.953125 6.109375 30.078125 6.109375 
Q 37.203125 6.109375 41.296875 11.75 
Q 45.40625 17.390625 45.40625 27.296875 
Q 45.40625 37.203125 41.296875 42.84375 
Q 37.203125 48.484375 30.078125 48.484375 
Q 22.953125 48.484375 18.875 42.84375 
Q 14.796875 37.203125 14.796875 27.296875 
z
" id="DejaVuSans-100"/>
     <path d="M 37.109375 75.984375 
L 37.109375 68.5 
L 28.515625 68.5 
Q 23.6875 68.5 21.796875 66.546875 
Q 19.921875 64.59375 19.921875 59.515625 
L 19.921875 54.6875 
L 34.71875 54.6875 
L 34.71875 47.703125 
L 19.921875 47.703125 
L 19.921875 0 
L 10.890625 0 
L 10.890625 47.703125 
L 2.296875 47.703125 
L 2.296875 54.6875 
L 10.890625 54.6875 
L 10.890625 58.5 
Q 10.890625 67.625 15.140625 71.796875 
Q 19.390625 75.984375 28.609375 75.984375 
z
" id="DejaVuSans-102"/>
    </defs>
    <g transform="translate(55.62625 20.88)scale(0.12 -0.12)">
     <use xlink:href="#DejaVuSans-91"/>
     <use x="39.013672" xlink:href="#DejaVuSans-73"/>
     <use x="68.505859" xlink:href="#DejaVuSans-73"/>
     <use x="97.998047" xlink:href="#DejaVuSans-82"/>
     <use x="167.480469" xlink:href="#DejaVuSans-70"/>
     <use x="224.890625" xlink:href="#DejaVuSans-105"/>
     <use x="252.673828" xlink:href="#DejaVuSans-108"/>
     <use x="280.457031" xlink:href="#DejaVuSans-116"/>
     <use x="319.666016" xlink:href="#DejaVuSans-101"/>
     <use x="381.189453" xlink:href="#DejaVuSans-114"/>
     <use x="422.302734" xlink:href="#DejaVuSans-93"/>
     <use x="461.316406" xlink:href="#DejaVuSans-32"/>
     <use x="493.103516" xlink:href="#DejaVuSans-73"/>
     <use x="522.595703" xlink:href="#DejaVuSans-110"/>
     <use x="585.974609" xlink:href="#DejaVuSans-112"/>
     <use x="649.451172" xlink:href="#DejaVuSans-117"/>
     <use x="712.830078" xlink:href="#DejaVuSans-116"/>
     <use x="752.039062" xlink:href="#DejaVuSans-47"/>
     <use x="785.730469" xlink:href="#DejaVuSans-79"/>
     <use x="864.441406" xlink:href="#DejaVuSans-117"/>
     <use x="927.820312" xlink:href="#DejaVuSans-116"/>
     <use x="967.029297" xlink:href="#DejaVuSans-112"/>
     <use x="1030.505859" xlink:href="#DejaVuSans-117"/>
     <use x="1093.884766" xlink:href="#DejaVuSans-116"/>
     <use x="1133.09375" xlink:href="#DejaVuSans-32"/>
     <use x="1164.880859" xlink:href="#DejaVuSans-115"/>
     <use x="1216.980469" xlink:href="#DejaVuSans-105"/>
     <use x="1244.763672" xlink:href="#DejaVuSans-103"/>
     <use x="1308.240234" xlink:href="#DejaVuSans-110"/>
     <use x="1371.619141" xlink:href="#DejaVuSans-97"/>
     <use x="1432.898438" xlink:href="#DejaVuSans-108"/>
     <use x="1460.681641" xlink:href="#DejaVuSans-32"/>
     <use x="1492.46875" xlink:href="#DejaVuSans-99"/>
     <use x="1547.449219" xlink:href="#DejaVuSans-111"/>
     <use x="1608.630859" xlink:href="#DejaVuSans-109"/>
     <use x="1706.042969" xlink:href="#DejaVuSans-112"/>
     <use x="1769.519531" xlink:href="#DejaVuSans-97"/>
     <use x="1830.798828" xlink:href="#DejaVuSans-114"/>
     <use x="1871.880859" xlink:href="#DejaVuSans-101"/>
     <use x="1933.404297" xlink:href="#DejaVuSans-100"/>
     <use x="1996.880859" xlink:href="#DejaVuSans-32"/>
     <use x="2028.667969" xlink:href="#DejaVuSans-116"/>
     <use x="2067.876953" xlink:href="#DejaVuSans-111"/>
     <use x="2129.058594" xlink:href="#DejaVuSans-32"/>
     <use x="2160.845703" xlink:href="#DejaVuSans-111"/>
     <use x="2222.027344" xlink:href="#DejaVuSans-102"/>
     <use x="2257.232422" xlink:href="#DejaVuSans-102"/>
     <use x="2292.4375" xlink:href="#DejaVuSans-108"/>
     <use x="2320.220703" xlink:href="#DejaVuSans-105"/>
     <use x="2348.003906" xlink:href="#DejaVuSans-110"/>
     <use x="2411.382812" xlink:href="#DejaVuSans-101"/>
     <use x="2472.90625" xlink:href="#DejaVuSans-32"/>
     <use x="2504.693359" xlink:href="#DejaVuSans-102"/>
     <use x="2539.898438" xlink:href="#DejaVuSans-105"/>
     <use x="2567.681641" xlink:href="#DejaVuSans-108"/>
     <use x="2595.464844" xlink:href="#DejaVuSans-116"/>
     <use x="2634.673828" xlink:href="#DejaVuSans-101"/>
     <use x="2696.197266" xlink:href="#DejaVuSans-114"/>
     <use x="2737.279297" xlink:href="#DejaVuSans-101"/>
     <use x="2798.802734" xlink:href="#DejaVuSans-100"/>
     <use x="2862.279297" xlink:href="#DejaVuSans-32"/>
     <use x="2894.066406" xlink:href="#DejaVuSans-115"/>
     <use x="2946.166016" xlink:href="#DejaVuSans-105"/>
     <use x="2973.949219" xlink:href="#DejaVuSans-103"/>
     <use x="3037.425781" xlink:href="#DejaVuSans-110"/>
     <use x="3100.804688" xlink:href="#DejaVuSans-97"/>
     <use x="3162.083984" xlink:href="#DejaVuSans-108"/>
    </g>
   </g>
   <g id="legend_1">
    <g id="patch_7">
     <path d="M 367.125313 78.914375 
L 430.945625 78.914375 
Q 432.945625 78.914375 432.945625 76.914375 
L 432.945625 33.88 
Q 432.945625 31.88 430.945625 31.88 
L 367.125313 31.88 
Q 365.125313 31.88 365.125313 33.88 
L 365.125313 76.914375 
Q 365.125313 78.914375 367.125313 78.914375 
z
" style="fill:#ffffff;opacity:0.8;stroke:#cccccc;stroke-linejoin:miter;"/>
    </g>
    <g id="line2d_16">
     <path d="M 369.125313 39.978437 
L 389.125313 39.978437 
" style="fill:none;stroke:#1f77b4;stroke-linecap:square;stroke-width:1.5;"/>
    </g>
    <g id="line2d_17"/>
    <g id="text_16">
     <!-- i.data -->
     <g transform="translate(397.125313 43.478437)scale(0.1 -0.1)">
      <use xlink:href="#DejaVuSans-105"/>
      <use x="27.783203" xlink:href="#DejaVuSans-46"/>
      <use x="59.570312" xlink:href="#DejaVuSans-100"/>
      <use x="123.046875" xlink:href="#DejaVuSans-97"/>
      <use x="184.326172" xlink:href="#DejaVuSans-116"/>
      <use x="223.535156" xlink:href="#DejaVuSans-97"/>
     </g>
    </g>
    <g id="line2d_18">
     <path d="M 369.125313 54.656563 
L 389.125313 54.656563 
" style="fill:none;stroke:#ff7f0e;stroke-linecap:square;stroke-width:2.5;"/>
    </g>
    <g id="line2d_19"/>
    <g id="text_17">
     <!-- o.data -->
     <g transform="translate(397.125313 58.156563)scale(0.1 -0.1)">
      <use xlink:href="#DejaVuSans-111"/>
      <use x="61.166016" xlink:href="#DejaVuSans-46"/>
      <use x="92.953125" xlink:href="#DejaVuSans-100"/>
      <use x="156.429688" xlink:href="#DejaVuSans-97"/>
      <use x="217.708984" xlink:href="#DejaVuSans-116"/>
      <use x="256.917969" xlink:href="#DejaVuSans-97"/>
     </g>
    </g>
    <g id="line2d_20">
     <path d="M 369.125313 69.334687 
L 389.125313 69.334687 
" style="fill:none;stroke:#000000;stroke-dasharray:3.7,1.6;stroke-dashoffset:0;"/>
    </g>
    <g id="line2d_21"/>
    <g id="text_18">
     <!-- offline -->
     <g transform="translate(397.125313 72.834687)scale(0.1 -0.1)">
      <use xlink:href="#DejaVuSans-111"/>
      <use x="61.181641" xlink:href="#DejaVuSans-102"/>
      <use x="96.386719" xlink:href="#DejaVuSans-102"/>
      <use x="131.591797" xlink:href="#DejaVuSans-108"/>
      <use x="159.375" xlink:href="#DejaVuSans-105"/>
      <use x="187.158203" xlink:href="#DejaVuSans-110"/>
      <use x="250.537109" xlink:href="#DejaVuSans-101"/>
     </g>
    </g>
   </g>
  </g>
 </g>
 <defs>
  <clipPath id="pc046b36634">
   <rect height="276.76" width="381.855625" x="56.09" y="26.88"/>
  </clipPath>
 </defs>
</svg>
