<?xml version="1.0" encoding="utf-8" standalone="no"?>
<!DOCTYPE svg PUBLIC "-//W3C//DTD SVG 1.1//EN"
  "http://www.w3.org/Graphics/SVG/1.1/DTD/svg11.dtd">
<!-- Created with matplotlib (https://matplotlib.org/) -->
<svg height="345.6pt" version="1.1" viewBox="0 0 460.8 345.6" width="460.8pt" xmlns="http://www.w3.org/2000/svg" xmlns:xlink="http://www.w3.org/1999/xlink">
 <defs>
  <style type="text/css">
*{stroke-linecap:butt;stroke-linejoin:round;}
  </style>
 </defs>
 <g id="figure_1">
  <g id="patch_1">
   <path d="M 0 345.6 
L 460.8 345.6 
L 460.8 0 
L 0 0 
z
" style="fill:#ffffff;"/>
  </g>
  <g id="axes_1">
   <g id="patch_2">
    <path d="M 56.09 303.64 
L 433.575 303.64 
L 433.575 26.88 
L 56.09 26.88 
z
" style="fill:#ffffff;"/>
   </g>
   <g id="matplotlib.axis_1">
    <g id="xtick_1">
     <g id="line2d_1">
      <defs>
       <path d="M 0 0 
L 0 3.5 
" id="m6f8d7e90de" style="stroke:#000000;stroke-width:0.8;"/>
      </defs>
      <g>
       <use style="stroke:#000000;stroke-width:0.8;" x="96.914795" xlink:href="#m6f8d7e90de" y="303.64"/>
      </g>
     </g>
     <g id="text_1">
      <!-- 11:06:40 -->
      <defs>
       <path d="M 12.40625 8.296875 
L 28.515625 8.296875 
L 28.515625 63.921875 
L 10.984375 60.40625 
L 10.984375 69.390625 
L 28.421875 72.90625 
L 38.28125 72.90625 
L 38.28125 8.296875 
L 54.390625 8.296875 
L 54.390625 0 
L 12.40625 0 
z
" id="DejaVuSans-49"/>
       <path d="M 11.71875 12.40625 
L 22.015625 12.40625 
L 22.015625 0 
L 11.71875 0 
z
M 11.71875 51.703125 
L 22.015625 51.703125 
L 22.015625 39.3125 
L 11.71875 39.3125 
z
" id="DejaVuSans-58"/>
       <path d="M 31.78125 66.40625 
Q 24.171875 66.40625 20.328125 58.90625 
Q 16.5 51.421875 16.5 36.375 
Q 16.5 21.390625 20.328125 13.890625 
Q 24.171875 6.390625 31.78125 6.390625 
Q 39.453125 6.390625 43.28125 13.890625 
Q 47.125 21.390625 47.125 36.375 
Q 47.125 51.421875 43.28125 58.90625 
Q 39.453125 66.40625 31.78125 66.40625 
z
M 31.78125 74.21875 
Q 44.046875 74.21875 50.515625 64.515625 
Q 56.984375 54.828125 56.984375 36.375 
Q 56.984375 17.96875 50.515625 8.265625 
Q 44.046875 -1.421875 31.78125 -1.421875 
Q 19.53125 -1.421875 13.0625 8.265625 
Q 6.59375 17.96875 6.59375 36.375 
Q 6.59375 54.828125 13.0625 64.515625 
Q 19.53125 74.21875 31.78125 74.21875 
z
" id="DejaVuSans-48"/>
       <path d="M 33.015625 40.375 
Q 26.375 40.375 22.484375 35.828125 
Q 18.609375 31.296875 18.609375 23.390625 
Q 18.609375 15.53125 22.484375 10.953125 
Q 26.375 6.390625 33.015625 6.390625 
Q 39.65625 6.390625 43.53125 10.953125 
Q 47.40625 15.53125 47.40625 23.390625 
Q 47.40625 31.296875 43.53125 35.828125 
Q 39.65625 40.375 33.015625 40.375 
z
M 52.59375 71.296875 
L 52.59375 62.3125 
Q 48.875 64.0625 45.09375 64.984375 
Q 41.3125 65.921875 37.59375 65.921875 
Q 27.828125 65.921875 22.671875 59.328125 
Q 17.53125 52.734375 16.796875 39.40625 
Q 19.671875 43.65625 24.015625 45.921875 
Q 28.375 48.1875 33.59375 48.1875 
Q 44.578125 48.1875 50.953125 41.515625 
Q 57.328125 34.859375 57.328125 23.390625 
Q 57.328125 12.15625 50.6875 5.359375 
Q 44.046875 -1.421875 33.015625 -1.421875 
Q 20.359375 -1.421875 13.671875 8.265625 
Q 6.984375 17.96875 6.984375 36.375 
Q 6.984375 53.65625 15.1875 63.9375 
Q 23.390625 74.21875 37.203125 74.21875 
Q 40.921875 74.21875 44.703125 73.484375 
Q 48.484375 72.75 52.59375 71.296875 
z
" id="DejaVuSans-54"/>
       <path d="M 37.796875 64.3125 
L 12.890625 25.390625 
L 37.796875 25.390625 
z
M 35.203125 72.90625 
L 47.609375 72.90625 
L 47.609375 25.390625 
L 58.015625 25.390625 
L 58.015625 17.1875 
L 47.609375 17.1875 
L 47.609375 0 
L 37.796875 0 
L 37.796875 17.1875 
L 4.890625 17.1875 
L 4.890625 26.703125 
z
" id="DejaVuSans-52"/>
      </defs>
      <g transform="translate(74.458545 318.238437)scale(0.1 -0.1)">
       <use xlink:href="#DejaVuSans-49"/>
       <use x="63.623047" xlink:href="#DejaVuSans-49"/>
       <use x="127.246094" xlink:href="#DejaVuSans-58"/>
       <use x="160.9375" xlink:href="#DejaVuSans-48"/>
       <use x="224.560547" xlink:href="#DejaVuSans-54"/>
       <use x="288.183594" xlink:href="#DejaVuSans-58"/>
       <use x="321.875" xlink:href="#DejaVuSans-52"/>
       <use x="385.498047" xlink:href="#DejaVuSans-48"/>
      </g>
     </g>
    </g>
    <g id="xtick_2">
     <g id="line2d_2">
      <g>
       <use style="stroke:#000000;stroke-width:0.8;" x="211.429932" xlink:href="#m6f8d7e90de" y="303.64"/>
      </g>
     </g>
     <g id="text_2">
      <!-- 11:06:45 -->
      <defs>
       <path d="M 10.796875 72.90625 
L 49.515625 72.90625 
L 49.515625 64.59375 
L 19.828125 64.59375 
L 19.828125 46.734375 
Q 21.96875 47.46875 24.109375 47.828125 
Q 26.265625 48.1875 28.421875 48.1875 
Q 40.625 48.1875 47.75 41.5 
Q 54.890625 34.8125 54.890625 23.390625 
Q 54.890625 11.625 47.5625 5.09375 
Q 40.234375 -1.421875 26.90625 -1.421875 
Q 22.3125 -1.421875 17.546875 -0.640625 
Q 12.796875 0.140625 7.71875 1.703125 
L 7.71875 11.625 
Q 12.109375 9.234375 16.796875 8.0625 
Q 21.484375 6.890625 26.703125 6.890625 
Q 35.15625 6.890625 40.078125 11.328125 
Q 45.015625 15.765625 45.015625 23.390625 
Q 45.015625 31 40.078125 35.4375 
Q 35.15625 39.890625 26.703125 39.890625 
Q 22.75 39.890625 18.8125 39.015625 
Q 14.890625 38.140625 10.796875 36.28125 
z
" id="DejaVuSans-53"/>
      </defs>
      <g transform="translate(188.973682 318.238437)scale(0.1 -0.1)">
       <use xlink:href="#DejaVuSans-49"/>
       <use x="63.623047" xlink:href="#DejaVuSans-49"/>
       <use x="127.246094" xlink:href="#DejaVuSans-58"/>
       <use x="160.9375" xlink:href="#DejaVuSans-48"/>
       <use x="224.560547" xlink:href="#DejaVuSans-54"/>
       <use x="288.183594" xlink:href="#DejaVuSans-58"/>
       <use x="321.875" xlink:href="#DejaVuSans-52"/>
       <use x="385.498047" xlink:href="#DejaVuSans-53"/>
      </g>
     </g>
    </g>
    <g id="xtick_3">
     <g id="line2d_3">
      <g>
       <use style="stroke:#000000;stroke-width:0.8;" x="325.945068" xlink:href="#m6f8d7e90de" y="303.64"/>
      </g>
     </g>
     <g id="text_3">
      <!-- 11:06:50 -->
      <g transform="translate(303.488818 318.238437)scale(0.1 -0.1)">
       <use xlink:href="#DejaVuSans-49"/>
       <use x="63.623047" xlink:href="#DejaVuSans-49"/>
       <use x="127.246094" xlink:href="#DejaVuSans-58"/>
       <use x="160.9375" xlink:href="#DejaVuSans-48"/>
       <use x="224.560547" xlink:href="#DejaVuSans-54"/>
       <use x="288.183594" xlink:href="#DejaVuSans-58"/>
       <use x="321.875" xlink:href="#DejaVuSans-53"/>
       <use x="385.498047" xlink:href="#DejaVuSans-48"/>
      </g>
     </g>
    </g>
    <g id="text_4">
     <!-- time -->
     <defs>
      <path d="M 18.3125 70.21875 
L 18.3125 54.6875 
L 36.8125 54.6875 
L 36.8125 47.703125 
L 18.3125 47.703125 
L 18.3125 18.015625 
Q 18.3125 11.328125 20.140625 9.421875 
Q 21.96875 7.515625 27.59375 7.515625 
L 36.8125 7.515625 
L 36.8125 0 
L 27.59375 0 
Q 17.1875 0 13.234375 3.875 
Q 9.28125 7.765625 9.28125 18.015625 
L 9.28125 47.703125 
L 2.6875 47.703125 
L 2.6875 54.6875 
L 9.28125 54.6875 
L 9.28125 70.21875 
z
" id="DejaVuSans-116"/>
      <path d="M 9.421875 54.6875 
L 18.40625 54.6875 
L 18.40625 0 
L 9.421875 0 
z
M 9.421875 75.984375 
L 18.40625 75.984375 
L 18.40625 64.59375 
L 9.421875 64.59375 
z
" id="DejaVuSans-105"/>
      <path d="M 52 44.1875 
Q 55.375 50.25 60.0625 53.125 
Q 64.75 56 71.09375 56 
Q 79.640625 56 84.28125 50.015625 
Q 88.921875 44.046875 88.921875 33.015625 
L 88.921875 0 
L 79.890625 0 
L 79.890625 32.71875 
Q 79.890625 40.578125 77.09375 44.375 
Q 74.3125 48.1875 68.609375 48.1875 
Q 61.625 48.1875 57.5625 43.546875 
Q 53.515625 38.921875 53.515625 30.90625 
L 53.515625 0 
L 44.484375 0 
L 44.484375 32.71875 
Q 44.484375 40.625 41.703125 44.40625 
Q 38.921875 48.1875 33.109375 48.1875 
Q 26.21875 48.1875 22.15625 43.53125 
Q 18.109375 38.875 18.109375 30.90625 
L 18.109375 0 
L 9.078125 0 
L 9.078125 54.6875 
L 18.109375 54.6875 
L 18.109375 46.1875 
Q 21.1875 51.21875 25.484375 53.609375 
Q 29.78125 56 35.6875 56 
Q 41.65625 56 45.828125 52.96875 
Q 50 49.953125 52 44.1875 
z
" id="DejaVuSans-109"/>
      <path d="M 56.203125 29.59375 
L 56.203125 25.203125 
L 14.890625 25.203125 
Q 15.484375 15.921875 20.484375 11.0625 
Q 25.484375 6.203125 34.421875 6.203125 
Q 39.59375 6.203125 44.453125 7.46875 
Q 49.3125 8.734375 54.109375 11.28125 
L 54.109375 2.78125 
Q 49.265625 0.734375 44.1875 -0.34375 
Q 39.109375 -1.421875 33.890625 -1.421875 
Q 20.796875 -1.421875 13.15625 6.1875 
Q 5.515625 13.8125 5.515625 26.8125 
Q 5.515625 40.234375 12.765625 48.109375 
Q 20.015625 56 32.328125 56 
Q 43.359375 56 49.78125 48.890625 
Q 56.203125 41.796875 56.203125 29.59375 
z
M 47.21875 32.234375 
Q 47.125 39.59375 43.09375 43.984375 
Q 39.0625 48.390625 32.421875 48.390625 
Q 24.90625 48.390625 20.390625 44.140625 
Q 15.875 39.890625 15.1875 32.171875 
z
" id="DejaVuSans-101"/>
     </defs>
     <g transform="translate(233.536406 331.916562)scale(0.1 -0.1)">
      <use xlink:href="#DejaVuSans-116"/>
      <use x="39.208984" xlink:href="#DejaVuSans-105"/>
      <use x="66.992188" xlink:href="#DejaVuSans-109"/>
      <use x="164.404297" xlink:href="#DejaVuSans-101"/>
     </g>
    </g>
   </g>
   <g id="matplotlib.axis_2">
    <g id="ytick_1">
     <g id="line2d_4">
      <defs>
       <path d="M 0 0 
L -3.5 0 
" id="m06c5677d53" style="stroke:#000000;stroke-width:0.8;"/>
      </defs>
      <g>
       <use style="stroke:#000000;stroke-width:0.8;" x="56.09" xlink:href="#m06c5677d53" y="275.860488"/>
      </g>
     </g>
     <g id="text_5">
      <!-- −1.0 -->
      <defs>
       <path d="M 10.59375 35.5 
L 73.1875 35.5 
L 73.1875 27.203125 
L 10.59375 27.203125 
z
" id="DejaVuSans-8722"/>
       <path d="M 10.6875 12.40625 
L 21 12.40625 
L 21 0 
L 10.6875 0 
z
" id="DejaVuSans-46"/>
      </defs>
      <g transform="translate(24.807188 279.659707)scale(0.1 -0.1)">
       <use xlink:href="#DejaVuSans-8722"/>
       <use x="83.789062" xlink:href="#DejaVuSans-49"/>
       <use x="147.412109" xlink:href="#DejaVuSans-46"/>
       <use x="179.199219" xlink:href="#DejaVuSans-48"/>
      </g>
     </g>
    </g>
    <g id="ytick_2">
     <g id="line2d_5">
      <g>
       <use style="stroke:#000000;stroke-width:0.8;" x="56.09" xlink:href="#m06c5677d53" y="224.132466"/>
      </g>
     </g>
     <g id="text_6">
      <!-- −0.5 -->
      <g transform="translate(24.807188 227.931684)scale(0.1 -0.1)">
       <use xlink:href="#DejaVuSans-8722"/>
       <use x="83.789062" xlink:href="#DejaVuSans-48"/>
       <use x="147.412109" xlink:href="#DejaVuSans-46"/>
       <use x="179.199219" xlink:href="#DejaVuSans-53"/>
      </g>
     </g>
    </g>
    <g id="ytick_3">
     <g id="line2d_6">
      <g>
       <use style="stroke:#000000;stroke-width:0.8;" x="56.09" xlink:href="#m06c5677d53" y="172.404443"/>
      </g>
     </g>
     <g id="text_7">
      <!-- 0.0 -->
      <g transform="translate(33.186875 176.203662)scale(0.1 -0.1)">
       <use xlink:href="#DejaVuSans-48"/>
       <use x="63.623047" xlink:href="#DejaVuSans-46"/>
       <use x="95.410156" xlink:href="#DejaVuSans-48"/>
      </g>
     </g>
    </g>
    <g id="ytick_4">
     <g id="line2d_7">
      <g>
       <use style="stroke:#000000;stroke-width:0.8;" x="56.09" xlink:href="#m06c5677d53" y="120.67642"/>
      </g>
     </g>
     <g id="text_8">
      <!-- 0.5 -->
      <g transform="translate(33.186875 124.475639)scale(0.1 -0.1)">
       <use xlink:href="#DejaVuSans-48"/>
       <use x="63.623047" xlink:href="#DejaVuSans-46"/>
       <use x="95.410156" xlink:href="#DejaVuSans-53"/>
      </g>
     </g>
    </g>
    <g id="ytick_5">
     <g id="line2d_8">
      <g>
       <use style="stroke:#000000;stroke-width:0.8;" x="56.09" xlink:href="#m06c5677d53" y="68.948398"/>
      </g>
     </g>
     <g id="text_9">
      <!-- 1.0 -->
      <g transform="translate(33.186875 72.747617)scale(0.1 -0.1)">
       <use xlink:href="#DejaVuSans-49"/>
       <use x="63.623047" xlink:href="#DejaVuSans-46"/>
       <use x="95.410156" xlink:href="#DejaVuSans-48"/>
      </g>
     </g>
    </g>
    <g id="text_10">
     <!-- signal -->
     <defs>
      <path d="M 44.28125 53.078125 
L 44.28125 44.578125 
Q 40.484375 46.53125 36.375 47.5 
Q 32.28125 48.484375 27.875 48.484375 
Q 21.1875 48.484375 17.84375 46.4375 
Q 14.5 44.390625 14.5 40.28125 
Q 14.5 37.15625 16.890625 35.375 
Q 19.28125 33.59375 26.515625 31.984375 
L 29.59375 31.296875 
Q 39.15625 29.25 43.1875 25.515625 
Q 47.21875 21.78125 47.21875 15.09375 
Q 47.21875 7.46875 41.1875 3.015625 
Q 35.15625 -1.421875 24.609375 -1.421875 
Q 20.21875 -1.421875 15.453125 -0.5625 
Q 10.6875 0.296875 5.421875 2 
L 5.421875 11.28125 
Q 10.40625 8.6875 15.234375 7.390625 
Q 20.0625 6.109375 24.8125 6.109375 
Q 31.15625 6.109375 34.5625 8.28125 
Q 37.984375 10.453125 37.984375 14.40625 
Q 37.984375 18.0625 35.515625 20.015625 
Q 33.0625 21.96875 24.703125 23.78125 
L 21.578125 24.515625 
Q 13.234375 26.265625 9.515625 29.90625 
Q 5.8125 33.546875 5.8125 39.890625 
Q 5.8125 47.609375 11.28125 51.796875 
Q 16.75 56 26.8125 56 
Q 31.78125 56 36.171875 55.265625 
Q 40.578125 54.546875 44.28125 53.078125 
z
" id="DejaVuSans-115"/>
      <path d="M 45.40625 27.984375 
Q 45.40625 37.75 41.375 43.109375 
Q 37.359375 48.484375 30.078125 48.484375 
Q 22.859375 48.484375 18.828125 43.109375 
Q 14.796875 37.75 14.796875 27.984375 
Q 14.796875 18.265625 18.828125 12.890625 
Q 22.859375 7.515625 30.078125 7.515625 
Q 37.359375 7.515625 41.375 12.890625 
Q 45.40625 18.265625 45.40625 27.984375 
z
M 54.390625 6.78125 
Q 54.390625 -7.171875 48.1875 -13.984375 
Q 42 -20.796875 29.203125 -20.796875 
Q 24.46875 -20.796875 20.265625 -20.09375 
Q 16.0625 -19.390625 12.109375 -17.921875 
L 12.109375 -9.1875 
Q 16.0625 -11.328125 19.921875 -12.34375 
Q 23.78125 -13.375 27.78125 -13.375 
Q 36.625 -13.375 41.015625 -8.765625 
Q 45.40625 -4.15625 45.40625 5.171875 
L 45.40625 9.625 
Q 42.625 4.78125 38.28125 2.390625 
Q 33.9375 0 27.875 0 
Q 17.828125 0 11.671875 7.65625 
Q 5.515625 15.328125 5.515625 27.984375 
Q 5.515625 40.671875 11.671875 48.328125 
Q 17.828125 56 27.875 56 
Q 33.9375 56 38.28125 53.609375 
Q 42.625 51.21875 45.40625 46.390625 
L 45.40625 54.6875 
L 54.390625 54.6875 
z
" id="DejaVuSans-103"/>
      <path d="M 54.890625 33.015625 
L 54.890625 0 
L 45.90625 0 
L 45.90625 32.71875 
Q 45.90625 40.484375 42.875 44.328125 
Q 39.84375 48.1875 33.796875 48.1875 
Q 26.515625 48.1875 22.3125 43.546875 
Q 18.109375 38.921875 18.109375 30.90625 
L 18.109375 0 
L 9.078125 0 
L 9.078125 54.6875 
L 18.109375 54.6875 
L 18.109375 46.1875 
Q 21.34375 51.125 25.703125 53.5625 
Q 30.078125 56 35.796875 56 
Q 45.21875 56 50.046875 50.171875 
Q 54.890625 44.34375 54.890625 33.015625 
z
" id="DejaVuSans-110"/>
      <path d="M 34.28125 27.484375 
Q 23.390625 27.484375 19.1875 25 
Q 14.984375 22.515625 14.984375 16.5 
Q 14.984375 11.71875 18.140625 8.90625 
Q 21.296875 6.109375 26.703125 6.109375 
Q 34.1875 6.109375 38.703125 11.40625 
Q 43.21875 16.703125 43.21875 25.484375 
L 43.21875 27.484375 
z
M 52.203125 31.203125 
L 52.203125 0 
L 43.21875 0 
L 43.21875 8.296875 
Q 40.140625 3.328125 35.546875 0.953125 
Q 30.953125 -1.421875 24.3125 -1.421875 
Q 15.921875 -1.421875 10.953125 3.296875 
Q 6 8.015625 6 15.921875 
Q 6 25.140625 12.171875 29.828125 
Q 18.359375 34.515625 30.609375 34.515625 
L 43.21875 34.515625 
L 43.21875 35.40625 
Q 43.21875 41.609375 39.140625 45 
Q 35.0625 48.390625 27.6875 48.390625 
Q 23 48.390625 18.546875 47.265625 
Q 14.109375 46.140625 10.015625 43.890625 
L 10.015625 52.203125 
Q 14.9375 54.109375 19.578125 55.046875 
Q 24.21875 56 28.609375 56 
Q 40.484375 56 46.34375 49.84375 
Q 52.203125 43.703125 52.203125 31.203125 
z
" id="DejaVuSans-97"/>
      <path d="M 9.421875 75.984375 
L 18.40625 75.984375 
L 18.40625 0 
L 9.421875 0 
z
" id="DejaVuSans-108"/>
     </defs>
     <g transform="translate(18.7275 180.049844)rotate(-90)scale(0.1 -0.1)">
      <use xlink:href="#DejaVuSans-115"/>
      <use x="52.099609" xlink:href="#DejaVuSans-105"/>
      <use x="79.882812" xlink:href="#DejaVuSans-103"/>
      <use x="143.359375" xlink:href="#DejaVuSans-110"/>
      <use x="206.738281" xlink:href="#DejaVuSans-97"/>
      <use x="268.017578" xlink:href="#DejaVuSans-108"/>
     </g>
    </g>
   </g>
   <g id="line2d_9">
    <path clip-path="url(#p5c1f36b5b7)" d="M 73.248535 243.612013 
L 73.606201 241.861201 
L 73.964111 241.219056 
L 74.322021 241.303426 
L 75.395996 242.518743 
L 75.753662 242.641813 
L 76.424561 242.420832 
L 77.140381 241.772681 
L 77.542725 241.168115 
L 77.900879 240.219257 
L 78.258545 238.81434 
L 78.616455 236.900449 
L 81.434082 215.638274 
L 82.552246 210.045799 
L 83.223145 207.870969 
L 83.938965 206.722478 
L 84.296631 205.730001 
L 84.698975 203.58021 
L 85.056885 199.383677 
L 85.414551 192.217598 
L 85.772461 181.341145 
L 86.488281 147.95365 
L 87.561768 86.980289 
L 87.874756 74.266816 
L 88.232422 68.383451 
L 88.590332 71.88972 
L 88.948242 85.215731 
L 89.350586 107.383288 
L 90.424072 200.31312 
L 91.095215 251.741604 
L 91.453125 267.398815 
L 91.810791 275.71282 
L 92.213135 276.999655 
L 92.571045 273.946671 
L 93.286865 260.613143 
L 94.002686 247.811317 
L 94.67334 241.398469 
L 95.38916 242.326066 
L 95.74707 243.630377 
L 96.10498 245.453109 
L 96.86499 250.448756 
L 97.580811 254.053336 
L 97.893799 255.270904 
L 98.251709 255.934544 
L 98.609375 255.946532 
L 98.967529 255.238172 
L 99.325439 253.774075 
L 99.683105 251.55307 
L 100.398926 245.014353 
L 101.158936 236.412929 
L 102.232422 223.443848 
L 102.54541 220.237007 
L 102.90332 217.963994 
L 103.26123 216.68134 
L 103.619141 216.291601 
L 104.021973 216.557967 
L 104.737549 217.744234 
L 105.095459 218.047226 
L 105.453125 217.897465 
L 105.810791 217.240835 
L 106.168701 216.078531 
L 106.526611 214.360188 
L 106.8396 211.861054 
L 107.19751 208.096344 
L 107.55542 202.328634 
L 108.316162 181.507114 
L 109.031494 146.168323 
L 110.060303 86.853808 
L 110.418213 75.771655 
L 110.776123 73.435966 
L 111.178711 81.202703 
L 111.536377 98.985383 
L 112.252197 156.927929 
L 113.325928 249.193505 
L 113.683838 268.763403 
L 113.996582 277.762989 
L 114.354736 281.543881 
L 114.712402 279.183976 
L 115.472656 264.826988 
L 116.188232 249.214298 
L 116.546143 244.113581 
L 116.904053 241.185603 
L 117.217285 242.074153 
L 117.575439 242.39389 
L 117.933105 243.551175 
L 119.364502 249.61037 
L 119.722168 250.659624 
L 120.124756 251.32604 
L 120.482666 251.512834 
L 120.840576 251.147903 
L 121.198242 250.21665 
L 121.869629 246.973881 
L 123.345459 239.212607 
L 125.13501 230.613465 
L 126.164062 225.184747 
L 126.521973 223.957782 
L 126.879883 223.193471 
L 127.282227 222.854787 
L 127.998047 222.606945 
L 128.355713 221.889045 
L 128.668945 219.985428 
L 129.026855 216.160582 
L 129.384766 209.656523 
L 130.144775 186.355285 
L 130.860596 149.815094 
L 131.933838 93.907049 
L 132.291504 84.334026 
L 132.649414 82.964751 
L 133.007324 90.871714 
L 133.678223 132.80954 
L 135.154297 253.960333 
L 135.511963 274.894401 
L 135.870117 288.20203 
L 136.182861 291.06 
L 136.540771 289.593135 
L 136.898682 282.753925 
L 138.687988 234.012499 
L 139.090332 229.989117 
L 139.448242 228.858281 
L 139.806152 230.154742 
L 140.164062 233.17748 
L 141.192627 244.79368 
L 141.550537 247.428393 
L 142.087402 248.924092 
L 142.445068 249.33526 
L 142.802979 248.913073 
L 142.982178 248.018252 
L 143.69751 246.175059 
L 144.41333 245.234717 
L 144.770996 244.836012 
L 145.128906 244.103548 
L 145.486816 242.74528 
L 146.247314 237.573593 
L 147.991699 219.479023 
L 148.349365 217.531189 
L 148.707275 216.511398 
L 149.065186 216.308343 
L 149.467773 216.68014 
L 149.825439 217.254096 
L 150.18335 217.510377 
L 150.54126 216.762564 
L 150.89917 214.165405 
L 151.257324 208.785634 
L 151.61499 199.758422 
L 151.9729 186.521004 
L 154.119873 72.688511 
L 154.477783 70.158103 
L 154.835449 78.045543 
L 155.506836 123.176128 
L 156.937988 251.736048 
L 157.295898 272.600231 
L 157.653809 285.087684 
L 158.056152 286.252245 
L 158.414307 283.939464 
L 158.771973 277.071359 
L 159.801025 251.064267 
L 160.158936 245.744203 
L 160.516846 242.97339 
L 160.918945 242.334803 
L 161.2771 243.067323 
L 161.992676 245.446437 
L 162.350586 246.020775 
L 162.663818 246.004655 
L 163.379639 245.245718 
L 163.737305 245.237486 
L 164.196533 245.816615 
L 164.912354 248.468539 
L 165.168945 249.879302 
L 165.571533 250.728584 
L 165.929443 250.607154 
L 166.287109 249.286212 
L 166.64502 246.777455 
L 168.38916 227.957971 
L 169.462891 220.018002 
L 170.938965 212.040523 
L 171.967773 208.137665 
L 172.325439 205.003447 
L 172.728027 198.818703 
L 173.085693 189.035755 
L 173.801514 155.879017 
L 174.830078 89.344824 
L 175.187988 73.549182 
L 175.545898 66.370793 
L 175.903809 69.189944 
L 176.261475 82.811255 
L 177.021484 136.422059 
L 178.095215 232.451188 
L 178.766113 268.696701 
L 179.123779 275.480215 
L 179.481689 275.815041 
L 179.8396 271.652594 
L 181.628906 244.122658 
L 181.986572 242.266886 
L 182.344238 241.219654 
L 183.060059 240.093844 
L 183.417725 239.722956 
L 183.775879 239.545245 
L 184.133545 239.690631 
L 184.536133 240.250595 
L 185.251953 242.485284 
L 185.922852 244.987664 
L 186.280518 245.681779 
L 186.638672 245.670748 
L 186.996338 244.778701 
L 187.398682 242.91672 
L 188.114502 236.430917 
L 190.217041 212.47927 
L 190.574707 210.895568 
L 190.932861 210.268849 
L 191.290527 210.309542 
L 191.692871 210.506283 
L 192.050781 210.143695 
L 192.408447 208.355946 
L 192.766602 204.224219 
L 193.124268 196.921342 
L 193.795654 170.89623 
L 195.62915 79.681215 
L 195.987061 72.644414 
L 196.344971 73.931879 
L 196.702637 84.123226 
L 197.060791 102.650141 
L 197.731934 157.075949 
L 198.80542 239.236083 
L 199.208008 256.558535 
L 199.565674 266.872489 
L 199.923584 270.512027 
L 200.281494 268.633655 
L 200.952393 255.120756 
L 201.667969 239.655341 
L 202.026123 234.01647 
L 202.384033 230.328926 
L 202.741943 228.494472 
L 203.099854 228.163487 
L 203.502197 228.889021 
L 204.218018 231.965166 
L 205.246826 237.966106 
L 205.962402 242.23836 
L 206.723145 245.146512 
L 207.080811 245.274842 
L 207.438965 244.128608 
L 207.796387 241.592479 
L 208.512207 232.959606 
L 209.541016 217.851679 
L 209.898926 214.270426 
L 210.256836 211.898722 
L 210.614746 210.69527 
L 211.016602 210.412198 
L 211.732422 210.945057 
L 212.090332 210.762919 
L 212.40332 209.549849 
L 212.760986 206.688624 
L 213.118896 201.492394 
L 213.476807 193.24871 
L 213.834717 181.35159 
L 214.550537 146.047667 
L 215.668457 80.935165 
L 216.026123 65.142779 
L 216.384277 56.958973 
L 216.697021 58.588904 
L 217.054932 70.256816 
L 217.412842 91.475324 
L 219.559814 258.208753 
L 219.91748 267.589914 
L 220.275635 270.090648 
L 220.633301 267.391754 
L 221.348877 254.577935 
L 222.064453 242.950093 
L 222.467041 239.675665 
L 222.824951 238.118461 
L 223.182617 237.879017 
L 223.540771 238.461329 
L 225.687256 243.965068 
L 226.044922 244.580869 
L 226.403076 244.974073 
L 226.760742 245.020322 
L 227.118652 244.585068 
L 227.476807 243.543417 
L 227.834473 241.79834 
L 228.192383 239.300769 
L 229.220947 228.002567 
L 229.981201 219.65341 
L 230.696777 213.4911 
L 231.368164 210.091434 
L 231.72583 208.740119 
L 232.083496 206.9206 
L 232.44165 203.998376 
L 232.799072 199.316481 
L 233.156982 192.239931 
L 233.514893 182.20975 
L 234.275146 151.985981 
L 236.019775 51.664203 
L 236.377686 41.249199 
L 236.735596 39.46 
L 237.137451 47.961638 
L 237.495605 65.760893 
L 238.211182 124.364131 
L 239.5979 249.63289 
L 239.955811 267.208197 
L 240.313721 275.538494 
L 240.671631 279.152737 
L 241.029541 277.488064 
L 241.387207 271.909717 
L 241.789551 263.609809 
L 242.863281 230.335697 
L 243.53418 208.035416 
L 243.89209 199.747363 
L 244.249756 194.979549 
L 244.652588 194.709768 
L 245.010498 199.398027 
L 245.368164 208.801121 
L 246.44165 252.068118 
L 247.157471 277.194725 
L 247.470459 281.983747 
L 247.828369 285.008161 
L 248.186279 284.251068 
L 248.544189 280.423299 
L 248.946777 274.431571 
L 250.691406 239.318337 
L 251.049072 234.80352 
L 251.406982 231.805868 
L 251.764893 230.37991 
L 252.122559 230.326447 
L 252.838379 231.718976 
L 253.240967 230.908876 
L 253.598877 227.197067 
L 253.956787 219.251795 
L 254.314697 206.228193 
L 254.672363 188.095109 
L 255.700928 117.701979 
L 256.059082 97.709468 
L 256.461426 84.36397 
L 256.81958 79.793519 
L 257.177246 84.940874 
L 257.535156 99.371385 
L 259.637695 245.064504 
L 259.995605 256.881238 
L 260.353516 262.963668 
L 260.755859 264.282693 
L 261.114014 262.154222 
L 261.82959 252.794885 
L 262.500732 242.873339 
L 263.216553 235.755171 
L 263.976807 231.912387 
L 264.334717 231.121051 
L 264.692627 231.007724 
L 265.10498 231.487105 
L 265.820801 233.661343 
L 266.079346 234.96288 
L 266.437012 236.100888 
L 266.794678 236.847991 
L 267.152832 237.007758 
L 267.510498 236.434407 
L 267.912598 235.046898 
L 268.270508 232.836665 
L 268.986084 226.277962 
L 270.730957 207.233224 
L 271.088623 205.031064 
L 271.446289 203.73393 
L 271.804199 203.253474 
L 272.564453 203.518366 
L 272.922363 203.210062 
L 273.280273 201.640423 
L 273.638184 197.948981 
L 273.951172 191.275063 
L 274.309326 180.908689 
L 275.024902 148.193062 
L 275.784912 104.489806 
L 276.500732 64.945033 
L 276.813721 56.800951 
L 277.171631 53.477808 
L 277.529541 59.4768 
L 277.887207 74.729961 
L 278.603271 126.706572 
L 279.721191 215.774395 
L 280.079102 237.201428 
L 280.437012 251.837535 
L 280.794922 259.616328 
L 281.107666 261.379893 
L 281.46582 258.594527 
L 283.299805 230.473289 
L 283.657715 228.139407 
L 284.015137 227.146329 
L 284.373047 227.197234 
L 284.730957 228.018884 
L 285.446777 231.240138 
L 286.475586 237.86206 
L 286.833252 239.637822 
L 287.236084 240.654628 
L 287.593994 240.617093 
L 287.951904 239.352469 
L 288.30957 236.862193 
L 290.411865 213.5312 
L 290.769775 211.324415 
L 291.127441 209.815297 
L 292.037109 207.912398 
L 292.39502 206.973585 
L 292.559326 205.792024 
L 293.990479 200.058677 
L 294.393066 199.350206 
L 295.108887 198.905767 
L 295.466553 198.193632 
L 295.780029 196.007776 
L 296.137939 191.263785 
L 296.495605 182.941933 
L 296.85376 170.364436 
L 297.569092 133.049258 
L 298.284912 89.044222 
L 299.045166 64.419256 
L 299.403076 61.184848 
L 299.760986 67.554482 
L 300.118896 83.443657 
L 301.147949 168.811531 
L 301.908203 226.424761 
L 302.266113 247.137995 
L 302.623779 260.74521 
L 302.981934 267.33691 
L 303.3396 267.915873 
L 303.69751 264.074007 
L 304.41333 250.25426 
L 305.083984 237.632741 
L 305.44165 233.605777 
L 305.799561 231.201591 
L 306.201904 230.142465 
L 306.559814 230.046675 
L 306.917725 230.552941 
L 307.275635 231.398696 
L 308.304443 235.103321 
L 310.138184 243.835362 
L 310.49585 244.494816 
L 310.85376 244.162024 
L 311.21167 242.689498 
L 311.569336 240.08209 
L 313.358154 220.130457 
L 313.716064 217.400263 
L 314.073975 215.575949 
L 314.431885 214.543585 
L 314.789551 214.061087 
L 315.818359 213.19149 
L 317.294678 210.946133 
L 318.010254 210.530727 
L 318.36792 209.714744 
L 318.72583 207.518454 
L 319.08374 202.983084 
L 319.532471 195.177522 
L 319.890381 183.450963 
L 320.470215 148.579343 
L 321.588623 89.492159 
L 321.946533 77.854673 
L 322.304199 74.34373 
L 322.662109 80.27787 
L 323.02002 95.712398 
L 323.37793 119.359856 
L 324.406494 211.779629 
L 324.764404 238.831082 
L 325.524902 271.49004 
L 325.882812 277.239605 
L 326.240723 276.619197 
L 326.911377 263.73402 
L 327.627197 248.571118 
L 328.029541 243.645522 
L 328.387695 241.122335 
L 328.745361 240.755659 
L 329.103271 241.941383 
L 330.177002 247.92544 
L 330.534912 249.190749 
L 330.892578 249.862591 
L 331.205811 250.044884 
L 331.563477 249.892578 
L 332.279297 249.081707 
L 333.039551 247.864781 
L 333.755371 246.020146 
L 334.784424 241.463119 
L 335.857666 234.930154 
L 336.976074 228.235043 
L 337.691895 224.764528 
L 338.362793 222.283952 
L 339.078613 220.705662 
L 339.436523 220.275286 
L 340.196777 219.92344 
L 340.554932 219.534601 
L 340.912598 218.340312 
L 341.270508 215.578601 
L 341.628418 210.383518 
L 341.986328 201.969601 
L 342.343994 189.86788 
L 344.133301 101.445751 
L 344.491211 91.768194 
L 344.849121 89.83964 
L 345.206787 96.687778 
L 345.564697 112.198924 
L 346.593506 193.057436 
L 347.354004 247.351836 
L 348.024658 278.244133 
L 348.382568 283.816986 
L 348.785156 281.666408 
L 349.142822 276.897835 
L 350.529541 247.926081 
L 350.887695 243.903372 
L 351.245361 241.803594 
L 351.647705 241.283114 
L 352.005371 241.845914 
L 353.391846 246.380396 
L 353.75 247.02563 
L 354.107666 247.431988 
L 354.465576 247.646001 
L 354.823486 247.683265 
L 355.181396 247.512719 
L 355.539062 247.066458 
L 355.94165 246.268043 
L 356.299316 245.066213 
L 357.015137 241.504502 
L 358.401611 232.304222 
L 359.519775 225.652578 
L 360.950928 217.42351 
L 361.308838 216.081272 
L 361.666504 215.268718 
L 361.979736 214.963934 
L 362.337646 214.967801 
L 362.695312 214.859857 
L 363.053223 213.983069 
L 363.456055 211.478068 
L 363.813965 206.387084 
L 364.171875 197.835518 
L 364.529541 185.274487 
L 366.318359 90.836787 
L 366.67627 80.506942 
L 367.03418 78.607838 
L 367.39209 86.164343 
L 368.063477 127.108258 
L 369.494385 240.176955 
L 369.852295 258.455776 
L 370.210205 269.904778 
L 370.612793 274.957422 
L 370.970703 274.853924 
L 371.328369 271.269842 
L 372.715332 251.750231 
L 373.073242 249.416139 
L 373.430908 248.174565 
L 373.788818 247.642979 
L 374.504639 247.200061 
L 374.906982 246.802182 
L 376.338379 244.456454 
L 376.651855 244.283362 
L 377.367676 244.361762 
L 377.725342 244.214704 
L 378.12793 243.638455 
L 378.485596 242.470737 
L 378.843506 240.656163 
L 379.559326 235.41239 
L 381.661377 217.718745 
L 382.421631 213.362517 
L 383.137451 210.707294 
L 383.80835 209.72293 
L 384.16626 209.167538 
L 384.52417 207.759504 
L 384.881836 204.655665 
L 385.28418 198.951529 
L 385.64209 189.858068 
L 386.35791 160.222579 
L 387.789062 82.68657 
L 388.102051 72.211609 
L 388.460205 69.808872 
L 388.817871 76.756531 
L 389.175781 92.966017 
L 389.577881 117.028718 
L 391.322266 253.139917 
L 391.680176 265.187035 
L 392.037842 270.113939 
L 392.395996 269.109108 
L 392.753906 263.969215 
L 393.827393 242.48294 
L 394.229736 237.719411 
L 394.587646 235.010916 
L 394.945312 234.142327 
L 395.303467 234.61778 
L 396.332031 238.465497 
L 396.689941 239.274192 
L 397.113525 239.653466 
L 397.47168 239.690422 
L 397.829346 239.503035 
L 398.523926 238.694668 
L 398.881592 238.007804 
L 399.239258 237.005588 
L 399.597412 235.600424 
L 400.626221 229.093019 
L 402.102295 219.276532 
L 404.249023 206.200558 
L 404.964844 202.925803 
L 405.322754 200.752551 
L 405.680908 197.210118 
L 406.038574 191.299381 
L 406.396484 182.08767 
L 407.112061 152.150652 
L 408.140869 92.655344 
L 408.498779 77.938845 
L 408.901367 70.297644 
L 409.259033 71.645842 
L 409.616943 82.70764 
L 409.974854 102.79287 
L 411.361816 220.443972 
L 411.719482 243.028419 
L 412.077393 258.345415 
L 412.435059 266.08719 
L 412.793213 267.074601 
L 413.195557 262.933002 
L 414.940674 228.152813 
L 415.29834 225.530273 
L 415.656006 224.510297 
L 416.058594 224.601801 
L 416.416504 225.31066 
L 416.416504 225.31066 
" style="fill:none;stroke:#1f77b4;stroke-linecap:square;stroke-width:1.5;"/>
   </g>
   <g id="line2d_10">
    <defs>
     <path d="M 0 -3 
L -3 3 
L 3 3 
z
" id="m994f12c98e" style="stroke:#ff7f0e;stroke-linejoin:miter;"/>
    </defs>
    <g clip-path="url(#p5c1f36b5b7)">
     <use style="fill:#ff7f0e;stroke:#ff7f0e;stroke-linejoin:miter;" x="88.232422" xlink:href="#m994f12c98e" y="68.383451"/>
     <use style="fill:#ff7f0e;stroke:#ff7f0e;stroke-linejoin:miter;" x="110.776123" xlink:href="#m994f12c98e" y="73.435966"/>
     <use style="fill:#ff7f0e;stroke:#ff7f0e;stroke-linejoin:miter;" x="132.649414" xlink:href="#m994f12c98e" y="82.964751"/>
     <use style="fill:#ff7f0e;stroke:#ff7f0e;stroke-linejoin:miter;" x="154.477783" xlink:href="#m994f12c98e" y="70.158103"/>
     <use style="fill:#ff7f0e;stroke:#ff7f0e;stroke-linejoin:miter;" x="175.545898" xlink:href="#m994f12c98e" y="66.370793"/>
     <use style="fill:#ff7f0e;stroke:#ff7f0e;stroke-linejoin:miter;" x="195.987061" xlink:href="#m994f12c98e" y="72.644414"/>
     <use style="fill:#ff7f0e;stroke:#ff7f0e;stroke-linejoin:miter;" x="216.384277" xlink:href="#m994f12c98e" y="56.958973"/>
     <use style="fill:#ff7f0e;stroke:#ff7f0e;stroke-linejoin:miter;" x="236.735596" xlink:href="#m994f12c98e" y="39.46"/>
     <use style="fill:#ff7f0e;stroke:#ff7f0e;stroke-linejoin:miter;" x="256.81958" xlink:href="#m994f12c98e" y="79.793519"/>
     <use style="fill:#ff7f0e;stroke:#ff7f0e;stroke-linejoin:miter;" x="277.171631" xlink:href="#m994f12c98e" y="53.477808"/>
     <use style="fill:#ff7f0e;stroke:#ff7f0e;stroke-linejoin:miter;" x="299.403076" xlink:href="#m994f12c98e" y="61.184848"/>
     <use style="fill:#ff7f0e;stroke:#ff7f0e;stroke-linejoin:miter;" x="322.304199" xlink:href="#m994f12c98e" y="74.34373"/>
     <use style="fill:#ff7f0e;stroke:#ff7f0e;stroke-linejoin:miter;" x="344.849121" xlink:href="#m994f12c98e" y="89.83964"/>
     <use style="fill:#ff7f0e;stroke:#ff7f0e;stroke-linejoin:miter;" x="367.03418" xlink:href="#m994f12c98e" y="78.607838"/>
     <use style="fill:#ff7f0e;stroke:#ff7f0e;stroke-linejoin:miter;" x="388.460205" xlink:href="#m994f12c98e" y="69.808872"/>
     <use style="fill:#ff7f0e;stroke:#ff7f0e;stroke-linejoin:miter;" x="408.901367" xlink:href="#m994f12c98e" y="70.297644"/>
    </g>
   </g>
   <g id="line2d_11">
    <defs>
     <path d="M -0 3 
L 3 -3 
L -3 -3 
z
" id="m836e5565fa" style="stroke:#2ca02c;stroke-linejoin:miter;"/>
    </defs>
    <g clip-path="url(#p5c1f36b5b7)">
     <use style="fill:#2ca02c;stroke:#2ca02c;stroke-linejoin:miter;" x="92.213135" xlink:href="#m836e5565fa" y="276.999655"/>
     <use style="fill:#2ca02c;stroke:#2ca02c;stroke-linejoin:miter;" x="114.354736" xlink:href="#m836e5565fa" y="281.543881"/>
     <use style="fill:#2ca02c;stroke:#2ca02c;stroke-linejoin:miter;" x="136.182861" xlink:href="#m836e5565fa" y="291.06"/>
     <use style="fill:#2ca02c;stroke:#2ca02c;stroke-linejoin:miter;" x="158.056152" xlink:href="#m836e5565fa" y="286.252245"/>
     <use style="fill:#2ca02c;stroke:#2ca02c;stroke-linejoin:miter;" x="179.481689" xlink:href="#m836e5565fa" y="275.815041"/>
     <use style="fill:#2ca02c;stroke:#2ca02c;stroke-linejoin:miter;" x="199.923584" xlink:href="#m836e5565fa" y="270.512027"/>
     <use style="fill:#2ca02c;stroke:#2ca02c;stroke-linejoin:miter;" x="220.275635" xlink:href="#m836e5565fa" y="270.090648"/>
     <use style="fill:#2ca02c;stroke:#2ca02c;stroke-linejoin:miter;" x="240.671631" xlink:href="#m836e5565fa" y="279.152737"/>
     <use style="fill:#2ca02c;stroke:#2ca02c;stroke-linejoin:miter;" x="260.755859" xlink:href="#m836e5565fa" y="264.282693"/>
     <use style="fill:#2ca02c;stroke:#2ca02c;stroke-linejoin:miter;" x="281.107666" xlink:href="#m836e5565fa" y="261.379893"/>
     <use style="fill:#2ca02c;stroke:#2ca02c;stroke-linejoin:miter;" x="303.3396" xlink:href="#m836e5565fa" y="267.915873"/>
     <use style="fill:#2ca02c;stroke:#2ca02c;stroke-linejoin:miter;" x="325.882812" xlink:href="#m836e5565fa" y="277.239605"/>
     <use style="fill:#2ca02c;stroke:#2ca02c;stroke-linejoin:miter;" x="348.382568" xlink:href="#m836e5565fa" y="283.816986"/>
     <use style="fill:#2ca02c;stroke:#2ca02c;stroke-linejoin:miter;" x="370.612793" xlink:href="#m836e5565fa" y="274.957422"/>
     <use style="fill:#2ca02c;stroke:#2ca02c;stroke-linejoin:miter;" x="392.037842" xlink:href="#m836e5565fa" y="270.113939"/>
     <use style="fill:#2ca02c;stroke:#2ca02c;stroke-linejoin:miter;" x="412.793213" xlink:href="#m836e5565fa" y="267.074601"/>
    </g>
   </g>
   <g id="patch_3">
    <path d="M 56.09 303.64 
L 56.09 26.88 
" style="fill:none;stroke:#000000;stroke-linecap:square;stroke-linejoin:miter;stroke-width:0.8;"/>
   </g>
   <g id="patch_4">
    <path d="M 433.575 303.64 
L 433.575 26.88 
" style="fill:none;stroke:#000000;stroke-linecap:square;stroke-linejoin:miter;stroke-width:0.8;"/>
   </g>
   <g id="patch_5">
    <path d="M 56.090088 303.64 
L 433.574951 303.64 
" style="fill:none;stroke:#000000;stroke-linecap:square;stroke-linejoin:miter;stroke-width:0.8;"/>
   </g>
   <g id="patch_6">
    <path d="M 56.090088 26.88 
L 433.574951 26.88 
" style="fill:none;stroke:#000000;stroke-linecap:square;stroke-linejoin:miter;stroke-width:0.8;"/>
   </g>
   <g id="text_11">
    <!-- [RealTimeDetect] PPG signal and the detected peaks and valleys -->
    <defs>
     <path d="M 8.59375 75.984375 
L 29.296875 75.984375 
L 29.296875 69 
L 17.578125 69 
L 17.578125 -6.203125 
L 29.296875 -6.203125 
L 29.296875 -13.1875 
L 8.59375 -13.1875 
z
" id="DejaVuSans-91"/>
     <path d="M 44.390625 34.1875 
Q 47.5625 33.109375 50.5625 29.59375 
Q 53.5625 26.078125 56.59375 19.921875 
L 66.609375 0 
L 56 0 
L 46.6875 18.703125 
Q 43.0625 26.03125 39.671875 28.421875 
Q 36.28125 30.8125 30.421875 30.8125 
L 19.671875 30.8125 
L 19.671875 0 
L 9.8125 0 
L 9.8125 72.90625 
L 32.078125 72.90625 
Q 44.578125 72.90625 50.734375 67.671875 
Q 56.890625 62.453125 56.890625 51.90625 
Q 56.890625 45.015625 53.6875 40.46875 
Q 50.484375 35.9375 44.390625 34.1875 
z
M 19.671875 64.796875 
L 19.671875 38.921875 
L 32.078125 38.921875 
Q 39.203125 38.921875 42.84375 42.21875 
Q 46.484375 45.515625 46.484375 51.90625 
Q 46.484375 58.296875 42.84375 61.546875 
Q 39.203125 64.796875 32.078125 64.796875 
z
" id="DejaVuSans-82"/>
     <path d="M -0.296875 72.90625 
L 61.375 72.90625 
L 61.375 64.59375 
L 35.5 64.59375 
L 35.5 0 
L 25.59375 0 
L 25.59375 64.59375 
L -0.296875 64.59375 
z
" id="DejaVuSans-84"/>
     <path d="M 19.671875 64.796875 
L 19.671875 8.109375 
L 31.59375 8.109375 
Q 46.6875 8.109375 53.6875 14.9375 
Q 60.6875 21.78125 60.6875 36.53125 
Q 60.6875 51.171875 53.6875 57.984375 
Q 46.6875 64.796875 31.59375 64.796875 
z
M 9.8125 72.90625 
L 30.078125 72.90625 
Q 51.265625 72.90625 61.171875 64.09375 
Q 71.09375 55.28125 71.09375 36.53125 
Q 71.09375 17.671875 61.125 8.828125 
Q 51.171875 0 30.078125 0 
L 9.8125 0 
z
" id="DejaVuSans-68"/>
     <path d="M 48.78125 52.59375 
L 48.78125 44.1875 
Q 44.96875 46.296875 41.140625 47.34375 
Q 37.3125 48.390625 33.40625 48.390625 
Q 24.65625 48.390625 19.8125 42.84375 
Q 14.984375 37.3125 14.984375 27.296875 
Q 14.984375 17.28125 19.8125 11.734375 
Q 24.65625 6.203125 33.40625 6.203125 
Q 37.3125 6.203125 41.140625 7.25 
Q 44.96875 8.296875 48.78125 10.40625 
L 48.78125 2.09375 
Q 45.015625 0.34375 40.984375 -0.53125 
Q 36.96875 -1.421875 32.421875 -1.421875 
Q 20.0625 -1.421875 12.78125 6.34375 
Q 5.515625 14.109375 5.515625 27.296875 
Q 5.515625 40.671875 12.859375 48.328125 
Q 20.21875 56 33.015625 56 
Q 37.15625 56 41.109375 55.140625 
Q 45.0625 54.296875 48.78125 52.59375 
z
" id="DejaVuSans-99"/>
     <path d="M 30.421875 75.984375 
L 30.421875 -13.1875 
L 9.71875 -13.1875 
L 9.71875 -6.203125 
L 21.390625 -6.203125 
L 21.390625 69 
L 9.71875 69 
L 9.71875 75.984375 
z
" id="DejaVuSans-93"/>
     <path id="DejaVuSans-32"/>
     <path d="M 19.671875 64.796875 
L 19.671875 37.40625 
L 32.078125 37.40625 
Q 38.96875 37.40625 42.71875 40.96875 
Q 46.484375 44.53125 46.484375 51.125 
Q 46.484375 57.671875 42.71875 61.234375 
Q 38.96875 64.796875 32.078125 64.796875 
z
M 9.8125 72.90625 
L 32.078125 72.90625 
Q 44.34375 72.90625 50.609375 67.359375 
Q 56.890625 61.8125 56.890625 51.125 
Q 56.890625 40.328125 50.609375 34.8125 
Q 44.34375 29.296875 32.078125 29.296875 
L 19.671875 29.296875 
L 19.671875 0 
L 9.8125 0 
z
" id="DejaVuSans-80"/>
     <path d="M 59.515625 10.40625 
L 59.515625 29.984375 
L 43.40625 29.984375 
L 43.40625 38.09375 
L 69.28125 38.09375 
L 69.28125 6.78125 
Q 63.578125 2.734375 56.6875 0.65625 
Q 49.8125 -1.421875 42 -1.421875 
Q 24.90625 -1.421875 15.25 8.5625 
Q 5.609375 18.5625 5.609375 36.375 
Q 5.609375 54.25 15.25 64.234375 
Q 24.90625 74.21875 42 74.21875 
Q 49.125 74.21875 55.546875 72.453125 
Q 61.96875 70.703125 67.390625 67.28125 
L 67.390625 56.78125 
Q 61.921875 61.421875 55.765625 63.765625 
Q 49.609375 66.109375 42.828125 66.109375 
Q 29.4375 66.109375 22.71875 58.640625 
Q 16.015625 51.171875 16.015625 36.375 
Q 16.015625 21.625 22.71875 14.15625 
Q 29.4375 6.6875 42.828125 6.6875 
Q 48.046875 6.6875 52.140625 7.59375 
Q 56.25 8.5 59.515625 10.40625 
z
" id="DejaVuSans-71"/>
     <path d="M 45.40625 46.390625 
L 45.40625 75.984375 
L 54.390625 75.984375 
L 54.390625 0 
L 45.40625 0 
L 45.40625 8.203125 
Q 42.578125 3.328125 38.25 0.953125 
Q 33.9375 -1.421875 27.875 -1.421875 
Q 17.96875 -1.421875 11.734375 6.484375 
Q 5.515625 14.40625 5.515625 27.296875 
Q 5.515625 40.1875 11.734375 48.09375 
Q 17.96875 56 27.875 56 
Q 33.9375 56 38.25 53.625 
Q 42.578125 51.265625 45.40625 46.390625 
z
M 14.796875 27.296875 
Q 14.796875 17.390625 18.875 11.75 
Q 22.953125 6.109375 30.078125 6.109375 
Q 37.203125 6.109375 41.296875 11.75 
Q 45.40625 17.390625 45.40625 27.296875 
Q 45.40625 37.203125 41.296875 42.84375 
Q 37.203125 48.484375 30.078125 48.484375 
Q 22.953125 48.484375 18.875 42.84375 
Q 14.796875 37.203125 14.796875 27.296875 
z
" id="DejaVuSans-100"/>
     <path d="M 54.890625 33.015625 
L 54.890625 0 
L 45.90625 0 
L 45.90625 32.71875 
Q 45.90625 40.484375 42.875 44.328125 
Q 39.84375 48.1875 33.796875 48.1875 
Q 26.515625 48.1875 22.3125 43.546875 
Q 18.109375 38.921875 18.109375 30.90625 
L 18.109375 0 
L 9.078125 0 
L 9.078125 75.984375 
L 18.109375 75.984375 
L 18.109375 46.1875 
Q 21.34375 51.125 25.703125 53.5625 
Q 30.078125 56 35.796875 56 
Q 45.21875 56 50.046875 50.171875 
Q 54.890625 44.34375 54.890625 33.015625 
z
" id="DejaVuSans-104"/>
     <path d="M 18.109375 8.203125 
L 18.109375 -20.796875 
L 9.078125 -20.796875 
L 9.078125 54.6875 
L 18.109375 54.6875 
L 18.109375 46.390625 
Q 20.953125 51.265625 25.265625 53.625 
Q 29.59375 56 35.59375 56 
Q 45.5625 56 51.78125 48.09375 
Q 58.015625 40.1875 58.015625 27.296875 
Q 58.015625 14.40625 51.78125 6.484375 
Q 45.5625 -1.421875 35.59375 -1.421875 
Q 29.59375 -1.421875 25.265625 0.953125 
Q 20.953125 3.328125 18.109375 8.203125 
z
M 48.6875 27.296875 
Q 48.6875 37.203125 44.609375 42.84375 
Q 40.53125 48.484375 33.40625 48.484375 
Q 26.265625 48.484375 22.1875 42.84375 
Q 18.109375 37.203125 18.109375 27.296875 
Q 18.109375 17.390625 22.1875 11.75 
Q 26.265625 6.109375 33.40625 6.109375 
Q 40.53125 6.109375 44.609375 11.75 
Q 48.6875 17.390625 48.6875 27.296875 
z
" id="DejaVuSans-112"/>
     <path d="M 9.078125 75.984375 
L 18.109375 75.984375 
L 18.109375 31.109375 
L 44.921875 54.6875 
L 56.390625 54.6875 
L 27.390625 29.109375 
L 57.625 0 
L 45.90625 0 
L 18.109375 26.703125 
L 18.109375 0 
L 9.078125 0 
z
" id="DejaVuSans-107"/>
     <path d="M 2.984375 54.6875 
L 12.5 54.6875 
L 29.59375 8.796875 
L 46.6875 54.6875 
L 56.203125 54.6875 
L 35.6875 0 
L 23.484375 0 
z
" id="DejaVuSans-118"/>
     <path d="M 32.171875 -5.078125 
Q 28.375 -14.84375 24.75 -17.8125 
Q 21.140625 -20.796875 15.09375 -20.796875 
L 7.90625 -20.796875 
L 7.90625 -13.28125 
L 13.1875 -13.28125 
Q 16.890625 -13.28125 18.9375 -11.515625 
Q 21 -9.765625 23.484375 -3.21875 
L 25.09375 0.875 
L 2.984375 54.6875 
L 12.5 54.6875 
L 29.59375 11.921875 
L 46.6875 54.6875 
L 56.203125 54.6875 
z
" id="DejaVuSans-121"/>
    </defs>
    <g transform="translate(49.360937 20.88)scale(0.12 -0.12)">
     <use xlink:href="#DejaVuSans-91"/>
     <use x="39.013672" xlink:href="#DejaVuSans-82"/>
     <use x="108.433594" xlink:href="#DejaVuSans-101"/>
     <use x="169.957031" xlink:href="#DejaVuSans-97"/>
     <use x="231.236328" xlink:href="#DejaVuSans-108"/>
     <use x="259.019531" xlink:href="#DejaVuSans-84"/>
     <use x="320.056641" xlink:href="#DejaVuSans-105"/>
     <use x="347.839844" xlink:href="#DejaVuSans-109"/>
     <use x="445.251953" xlink:href="#DejaVuSans-101"/>
     <use x="506.775391" xlink:href="#DejaVuSans-68"/>
     <use x="583.777344" xlink:href="#DejaVuSans-101"/>
     <use x="645.300781" xlink:href="#DejaVuSans-116"/>
     <use x="684.509766" xlink:href="#DejaVuSans-101"/>
     <use x="746.033203" xlink:href="#DejaVuSans-99"/>
     <use x="801.013672" xlink:href="#DejaVuSans-116"/>
     <use x="840.222656" xlink:href="#DejaVuSans-93"/>
     <use x="879.236328" xlink:href="#DejaVuSans-32"/>
     <use x="911.023438" xlink:href="#DejaVuSans-80"/>
     <use x="971.326172" xlink:href="#DejaVuSans-80"/>
     <use x="1031.628906" xlink:href="#DejaVuSans-71"/>
     <use x="1109.119141" xlink:href="#DejaVuSans-32"/>
     <use x="1140.90625" xlink:href="#DejaVuSans-115"/>
     <use x="1193.005859" xlink:href="#DejaVuSans-105"/>
     <use x="1220.789062" xlink:href="#DejaVuSans-103"/>
     <use x="1284.265625" xlink:href="#DejaVuSans-110"/>
     <use x="1347.644531" xlink:href="#DejaVuSans-97"/>
     <use x="1408.923828" xlink:href="#DejaVuSans-108"/>
     <use x="1436.707031" xlink:href="#DejaVuSans-32"/>
     <use x="1468.494141" xlink:href="#DejaVuSans-97"/>
     <use x="1529.773438" xlink:href="#DejaVuSans-110"/>
     <use x="1593.152344" xlink:href="#DejaVuSans-100"/>
     <use x="1656.628906" xlink:href="#DejaVuSans-32"/>
     <use x="1688.416016" xlink:href="#DejaVuSans-116"/>
     <use x="1727.625" xlink:href="#DejaVuSans-104"/>
     <use x="1791.003906" xlink:href="#DejaVuSans-101"/>
     <use x="1852.527344" xlink:href="#DejaVuSans-32"/>
     <use x="1884.314453" xlink:href="#DejaVuSans-100"/>
     <use x="1947.791016" xlink:href="#DejaVuSans-101"/>
     <use x="2009.314453" xlink:href="#DejaVuSans-116"/>
     <use x="2048.523438" xlink:href="#DejaVuSans-101"/>
     <use x="2110.046875" xlink:href="#DejaVuSans-99"/>
     <use x="2165.027344" xlink:href="#DejaVuSans-116"/>
     <use x="2204.236328" xlink:href="#DejaVuSans-101"/>
     <use x="2265.759766" xlink:href="#DejaVuSans-100"/>
     <use x="2329.236328" xlink:href="#DejaVuSans-32"/>
     <use x="2361.023438" xlink:href="#DejaVuSans-112"/>
     <use x="2424.5" xlink:href="#DejaVuSans-101"/>
     <use x="2486.023438" xlink:href="#DejaVuSans-97"/>
     <use x="2547.302734" xlink:href="#DejaVuSans-107"/>
     <use x="2605.212891" xlink:href="#DejaVuSans-115"/>
     <use x="2657.3125" xlink:href="#DejaVuSans-32"/>
     <use x="2689.099609" xlink:href="#DejaVuSans-97"/>
     <use x="2750.378906" xlink:href="#DejaVuSans-110"/>
     <use x="2813.757812" xlink:href="#DejaVuSans-100"/>
     <use x="2877.234375" xlink:href="#DejaVuSans-32"/>
     <use x="2909.021484" xlink:href="#DejaVuSans-118"/>
     <use x="2968.201172" xlink:href="#DejaVuSans-97"/>
     <use x="3029.480469" xlink:href="#DejaVuSans-108"/>
     <use x="3057.263672" xlink:href="#DejaVuSans-108"/>
     <use x="3085.046875" xlink:href="#DejaVuSans-101"/>
     <use x="3146.570312" xlink:href="#DejaVuSans-121"/>
     <use x="3205.75" xlink:href="#DejaVuSans-115"/>
    </g>
   </g>
   <g id="legend_1">
    <g id="patch_7">
     <path d="M 325.276562 78.914375 
L 426.575 78.914375 
Q 428.575 78.914375 428.575 76.914375 
L 428.575 33.88 
Q 428.575 31.88 426.575 31.88 
L 325.276562 31.88 
Q 323.276562 31.88 323.276562 33.88 
L 323.276562 76.914375 
Q 323.276562 78.914375 325.276562 78.914375 
z
" style="fill:#ffffff;opacity:0.8;stroke:#cccccc;stroke-linejoin:miter;"/>
    </g>
    <g id="line2d_12">
     <path d="M 327.276562 39.978437 
L 347.276562 39.978437 
" style="fill:none;stroke:#1f77b4;stroke-linecap:square;stroke-width:1.5;"/>
    </g>
    <g id="line2d_13"/>
    <g id="text_12">
     <!-- i.data -->
     <g transform="translate(355.276562 43.478437)scale(0.1 -0.1)">
      <use xlink:href="#DejaVuSans-105"/>
      <use x="27.783203" xlink:href="#DejaVuSans-46"/>
      <use x="59.570312" xlink:href="#DejaVuSans-100"/>
      <use x="123.046875" xlink:href="#DejaVuSans-97"/>
      <use x="184.326172" xlink:href="#DejaVuSans-116"/>
      <use x="223.535156" xlink:href="#DejaVuSans-97"/>
     </g>
    </g>
    <g id="line2d_14"/>
    <g id="line2d_15">
     <g>
      <use style="fill:#ff7f0e;stroke:#ff7f0e;stroke-linejoin:miter;" x="337.276562" xlink:href="#m994f12c98e" y="54.656563"/>
     </g>
    </g>
    <g id="text_13">
     <!-- o.data[peak] -->
     <defs>
      <path d="M 30.609375 48.390625 
Q 23.390625 48.390625 19.1875 42.75 
Q 14.984375 37.109375 14.984375 27.296875 
Q 14.984375 17.484375 19.15625 11.84375 
Q 23.34375 6.203125 30.609375 6.203125 
Q 37.796875 6.203125 41.984375 11.859375 
Q 46.1875 17.53125 46.1875 27.296875 
Q 46.1875 37.015625 41.984375 42.703125 
Q 37.796875 48.390625 30.609375 48.390625 
z
M 30.609375 56 
Q 42.328125 56 49.015625 48.375 
Q 55.71875 40.765625 55.71875 27.296875 
Q 55.71875 13.875 49.015625 6.21875 
Q 42.328125 -1.421875 30.609375 -1.421875 
Q 18.84375 -1.421875 12.171875 6.21875 
Q 5.515625 13.875 5.515625 27.296875 
Q 5.515625 40.765625 12.171875 48.375 
Q 18.84375 56 30.609375 56 
z
" id="DejaVuSans-111"/>
     </defs>
     <g transform="translate(355.276562 58.156563)scale(0.1 -0.1)">
      <use xlink:href="#DejaVuSans-111"/>
      <use x="61.166016" xlink:href="#DejaVuSans-46"/>
      <use x="92.953125" xlink:href="#DejaVuSans-100"/>
      <use x="156.429688" xlink:href="#DejaVuSans-97"/>
      <use x="217.708984" xlink:href="#DejaVuSans-116"/>
      <use x="256.917969" xlink:href="#DejaVuSans-97"/>
      <use x="318.197266" xlink:href="#DejaVuSans-91"/>
      <use x="357.210938" xlink:href="#DejaVuSans-112"/>
      <use x="420.6875" xlink:href="#DejaVuSans-101"/>
      <use x="482.210938" xlink:href="#DejaVuSans-97"/>
      <use x="543.490234" xlink:href="#DejaVuSans-107"/>
      <use x="601.400391" xlink:href="#DejaVuSans-93"/>
     </g>
    </g>
    <g id="line2d_16"/>
    <g id="line2d_17">
     <g>
      <use style="fill:#2ca02c;stroke:#2ca02c;stroke-linejoin:miter;" x="337.276562" xlink:href="#m836e5565fa" y="69.334687"/>
     </g>
    </g>
    <g id="text_14">
     <!-- o.data[valley] -->
     <g transform="translate(355.276562 72.834687)scale(0.1 -0.1)">
      <use xlink:href="#DejaVuSans-111"/>
      <use x="61.166016" xlink:href="#DejaVuSans-46"/>
      <use x="92.953125" xlink:href="#DejaVuSans-100"/>
      <use x="156.429688" xlink:href="#DejaVuSans-97"/>
      <use x="217.708984" xlink:href="#DejaVuSans-116"/>
      <use x="256.917969" xlink:href="#DejaVuSans-97"/>
      <use x="318.197266" xlink:href="#DejaVuSans-91"/>
      <use x="357.210938" xlink:href="#DejaVuSans-118"/>
      <use x="416.390625" xlink:href="#DejaVuSans-97"/>
      <use x="477.669922" xlink:href="#DejaVuSans-108"/>
      <use x="505.453125" xlink:href="#DejaVuSans-108"/>
      <use x="533.236328" xlink:href="#DejaVuSans-101"/>
      <use x="594.759766" xlink:href="#DejaVuSans-121"/>
      <use x="653.939453" xlink:href="#DejaVuSans-93"/>
     </g>
    </g>
   </g>
  </g>
 </g>
 <defs>
  <clipPath id="p5c1f36b5b7">
   <rect height="276.76" width="377.485" x="56.09" y="26.88"/>
  </clipPath>
 </defs>
</svg>
